<?xml version="1.0" encoding="UTF-8"?>
<svg id="Layer_2" data-name="Layer 2" xmlns="http://www.w3.org/2000/svg" viewBox="0 0 80.26 94.12">
  <g id="Layer_1-2" data-name="Layer 1">
    <path d="M40.12,0c-.39,0-.77.16-1.04.44-.28.27-.43.65-.43,1.04v5.23c0,.81.65,1.47,1.46,1.48.39,0,.77-.15,1.04-.43.28-.28.43-.66.43-1.05V1.48c0-.39-.15-.77-.43-1.04C40.89.16,40.52,0,40.12,0h0ZM40.12,11.17c-15.98,0-28.95,13-28.95,29.01,0,7.99,3.29,15.49,8.86,20.88,3.05,2.95,6.28,8.16,6.28,12.01v6.22h0c0,.13.02.27.06.4,0,.03.02.06.03.09.05.13.11.25.19.36.01,0,.02.02.03.03.08.1.17.19.27.27.02.02.03.03.05.04.11.08.24.14.37.18.02,0,.05.02.07.02.13.04.27.06.41.06h21.48c.98,0,1.75.77,1.75,1.76v.24c0,.99-.77,1.75-1.75,1.75h-18.89c-2.57,0-4.69,2.12-4.69,4.7v.24c0,2.57,2.12,4.69,4.69,4.69h22.88c.39,0,.77-.16,1.04-.43.28-.28.43-.65.43-1.04,0-.81-.66-1.46-1.47-1.46h-22.88c-.98,0-1.75-.76-1.75-1.75v-.24c0-.99.77-1.76,1.75-1.76h18.89c2.57,0,4.69-2.12,4.69-4.69v-.24c0-2.57-2.12-4.7-4.69-4.7h-20.02v-4.75c0-5.32-3.68-10.74-7.18-14.12-5-4.84-7.96-11.57-7.96-18.76,0-14.42,11.63-26.07,26.01-26.07s26.02,11.65,26.02,26.07c0,7.19-2.95,13.92-7.96,18.76-3.5,3.38-7.18,8.8-7.18,14.12v.66h0c0,.81.66,1.46,1.46,1.46.39,0,.77-.15,1.04-.43.28-.27.43-.65.43-1.04v-.66c0-3.84,3.22-9.05,6.28-12.01,5.57-5.38,8.86-12.88,8.86-20.88,0-16-12.99-29.01-28.97-29.01h0ZM67.46,11.34h0c-.39,0-.77.16-1.04.43l-3.69,3.71h0c-.57.57-.57,1.5,0,2.07.57.57,1.5.57,2.07,0l3.7-3.7c.28-.28.43-.65.43-1.04s-.16-.77-.43-1.04c-.27-.28-.65-.43-1.04-.43h0ZM12.8,11.34h0c-.39,0-.76.16-1.04.43-.28.27-.43.65-.43,1.04s.16.77.43,1.04l3.7,3.7c.57.57,1.5.57,2.07,0,.57-.57.57-1.5,0-2.07l-3.7-3.71h0c-.28-.27-.65-.43-1.04-.43h0ZM1.48,38.71h0c-.39,0-.77.15-1.04.43-.28.27-.43.65-.44,1.04,0,.39.16.77.43,1.04.28.28.66.43,1.05.43h5.23c.39,0,.76-.16,1.04-.44.27-.28.43-.65.43-1.04,0-.81-.66-1.46-1.46-1.46H1.48ZM73.55,38.71h0c-.81,0-1.46.66-1.46,1.47,0,.39.15.76.43,1.04.28.28.65.43,1.04.44h5.23c.39,0,.77-.16,1.05-.43.27-.28.43-.65.43-1.04,0-.39-.16-.77-.44-1.04-.27-.28-.65-.43-1.04-.43h-5.23ZM16.5,62.38c-.39,0-.76.16-1.04.43l-3.7,3.7h0c-.28.27-.43.65-.43,1.04s.16.77.43,1.04c.57.57,1.5.57,2.07,0l3.7-3.71h0c.57-.57.57-1.5,0-2.07-.27-.27-.65-.43-1.04-.43h0ZM63.76,62.38c-.39,0-.76.16-1.04.43-.57.57-.57,1.5,0,2.07l3.69,3.71h0c.28.27.65.43,1.04.43s.77-.16,1.04-.43c.28-.27.43-.65.43-1.04s-.16-.77-.43-1.04l-3.7-3.7h0c-.27-.27-.65-.43-1.04-.43h0Z"/>
  </g>
</svg>