<?xml version="1.0" encoding="UTF-8"?>
<svg id="Layer_2" data-name="Layer 2" xmlns="http://www.w3.org/2000/svg" viewBox="0 0 101.44 101.43">
  <defs>
    <style>
      .cls-1 {
        fill-rule: evenodd;
        stroke: #000;
        stroke-miterlimit: 10;
        stroke-width: .75px;
      }
    </style>
  </defs>
  <g id="Layer_2-2" data-name="Layer 2">
    <g id="Layer_1-2" data-name="Layer 1-2">
      <path class="cls-1" d="M65.5,23.46c-3.31,0-6.16,2.34-6.8,5.58-.65,3.25,1.09,6.5,4.15,7.77,3.06,1.26,6.59.2,8.42-2.56,1.84-2.75,1.48-6.42-.86-8.76-1.3-1.3-3.06-2.04-4.9-2.03h-.01ZM80.66,80.66c2.37-2.37,6.1-2.74,8.88-.87,2.79,1.87,3.88,5.44,2.59,8.54-1.28,3.1-4.58,4.86-7.87,4.21-3.29-.66-5.66-3.54-5.66-6.9,0-1.87.74-3.66,2.06-4.98h0ZM85.64,80.53c-2.44,0-4.54,1.72-5.01,4.11s.81,4.79,3.06,5.72,4.85.14,6.2-1.88c1.35-2.03,1.09-4.73-.63-6.45-.96-.96-2.26-1.5-3.61-1.49h0ZM10.86,10.86c2.37-2.37,6.1-2.74,8.88-.87,2.79,1.87,3.88,5.44,2.6,8.54-1.29,3.1-4.58,4.86-7.88,4.21-3.29-.66-5.66-3.54-5.66-6.9,0-1.87.74-3.66,2.06-4.98h0ZM15.83,10.72h0c-2.44,0-4.54,1.72-5.01,4.11-.47,2.39.8,4.78,3.06,5.72,2.25.93,4.85.14,6.2-1.88s1.09-4.73-.63-6.45c-.96-.96-2.26-1.5-3.61-1.5h-.01ZM77.06,91.36c.45-.29,1.04-.16,1.33.28s.16,1.04-.28,1.33c-13,8.42-29.15,10.39-43.79,5.34-14.64-5.05-26.14-16.55-31.19-31.19C-1.92,52.49.05,36.34,8.47,23.34c.3-.42.88-.54,1.32-.26s.57.86.3,1.31C1.99,36.89.1,52.42,4.95,66.5c4.86,14.08,15.92,25.15,30,30,14.08,4.86,29.61,2.96,42.11-5.13h0ZM24.39,10.08c-.45.27-1.02.14-1.31-.3-.28-.44-.17-1.02.26-1.32C36.34.05,52.49-1.92,67.13,3.13c14.64,5.05,26.14,16.55,31.19,31.19,5.05,14.64,3.08,30.79-5.34,43.79-.29.44-.88.57-1.33.28s-.57-.88-.28-1.33c8.1-12.5,9.99-28.03,5.14-42.11-4.86-14.08-15.92-25.15-30-30C52.43.09,36.89,1.99,24.39,10.08h0ZM31.13,78.73h0c.16-1.21.41-2.4.74-3.57H11.01c-.53,0-.97-.43-.97-.97,0-.07,0-.14.03-.21.54-4.4,2.51-8.51,5.62-11.68,1.8-1.83,4.01-3.2,6.44-4.01-.74-.42-1.43-.94-2.03-1.54-2.67-2.68-3.48-6.7-2.03-10.2,1.44-3.5,4.85-5.78,8.64-5.79,1.26-1.05,2.69-1.89,4.22-2.48.2-.07.4-.14.6-.21h0c-.66-.39-1.27-.86-1.81-1.4-2.68-2.68-3.36-6.77-1.68-10.17,1.67-3.4,5.33-5.36,9.09-4.87s6.79,3.32,7.54,7.03-.95,7.49-4.23,9.4c.27.09.54.19.81.3,1.49.61,2.88,1.44,4.1,2.48,3.35-1.9,7.45-1.9,10.8,0,1.23-1.04,2.61-1.88,4.1-2.48.27-.11.54-.21.81-.3-3.46-2.01-5.13-6.1-4.09-9.96,1.04-3.86,4.55-6.55,8.55-6.55s7.51,2.68,8.55,6.55-.64,7.95-4.09,9.96c.2.07.4.14.6.21h0c1.53.59,2.96,1.43,4.22,2.48,3.78,0,7.19,2.29,8.64,5.79,1.44,3.5.64,7.52-2.04,10.2-.6.6-1.29,1.12-2.03,1.54,2.43.81,4.64,2.18,6.44,4.01,3.1,3.17,5.07,7.28,5.62,11.68.07.28,0,.59-.18.82s-.46.36-.76.36h-20.85c.33,1.18.58,2.37.73,3.58.02.07.03.14.03.21,0,.26-.1.5-.28.68s-.42.28-.68.28h-37.37c-.53,0-.96-.43-.96-.97,0-.07,0-.14.02-.21h0ZM66.22,53.97h-5.15c-.94,2.65-2.84,4.84-5.34,6.12,2.45.74,4.73,1.98,6.68,3.64,1.42-1.77,3.17-3.25,5.15-4.34.83-.45,1.7-.83,2.6-1.12-1.74-.98-3.12-2.49-3.95-4.3h.01ZM61.55,52.04h4.04c-1-4.75,1.8-9.49,6.46-10.89-.69-.43-1.42-.8-2.18-1.09-2.87-1.11-6.06-1.08-8.91.07-1.14.46-2.21,1.08-3.17,1.84.24.2.47.42.69.64,2.47,2.47,3.61,5.98,3.08,9.43h0ZM40.87,25.49c-2.34-2.34-6.01-2.71-8.76-.87-2.75,1.84-3.82,5.37-2.55,8.42,1.27,3.06,4.51,4.79,7.76,4.15,3.25-.65,5.58-3.5,5.58-6.8,0-1.84-.73-3.6-2.03-4.9h0ZM35.88,52.05h4.04c-.54-3.46.6-6.96,3.08-9.43.22-.22.45-.44.69-.64-.97-.76-2.04-1.38-3.17-1.84-2.85-1.15-6.04-1.18-8.91-.07-.76.29-1.49.66-2.18,1.09,4.65,1.41,7.45,6.14,6.45,10.9h0ZM40.4,53.98h-5.15c-.83,1.82-2.21,3.33-3.95,4.3.9.29,1.77.67,2.6,1.12,1.99,1.09,3.74,2.57,5.15,4.34,1.96-1.66,4.23-2.9,6.69-3.64-2.5-1.28-4.41-3.47-5.34-6.12h0ZM31.97,44.86h0c-2.33-2.33-5.93-2.84-8.82-1.26s-4.39,4.89-3.68,8.11,3.46,5.59,6.75,5.81c3.29.23,6.34-1.75,7.47-4.84h0c.99-2.73.32-5.78-1.73-7.83h0ZM32.5,73.22h0c1.12-3.06,2.87-5.84,5.14-8.17-1.27-1.62-2.85-2.96-4.65-3.96-1.92-1.05-4.08-1.6-6.27-1.61-3.65.04-7.14,1.54-9.68,4.17-2.57,2.62-4.27,5.96-4.9,9.57h20.36ZM34.11,74.41h0c0,.05-.03.1-.06.16-.37,1.11-.66,2.25-.87,3.41h35.09c-.2-1.16-.49-2.29-.86-3.41-.03-.05-.04-.1-.06-.16-1.03-3.05-2.74-5.83-5-8.11-3.02-3.19-7.23-5-11.62-5s-8.6,1.81-11.62,5c-2.26,2.29-3.97,5.06-5,8.11h0ZM80.01,44.86c-2.47-2.46-6.32-2.88-9.26-1.01-2.94,1.87-4.18,5.55-2.98,8.82h0c.78,2.12,2.47,3.77,4.61,4.49,2.14.72,4.48.43,6.38-.78,1.9-1.21,3.15-3.22,3.39-5.46.24-2.24-.54-4.47-2.13-6.06h0ZM89.34,73.22c-.63-3.61-2.34-6.94-4.91-9.57-2.54-2.63-6.02-4.13-9.68-4.17-2.19,0-4.35.55-6.27,1.61-1.8.99-3.39,2.33-4.66,3.95,2.27,2.33,4.03,5.11,5.15,8.17h20.37ZM57.11,43.98c-3.04-3.04-7.81-3.51-11.39-1.12s-4.97,6.97-3.32,10.95c1.64,3.98,5.87,6.24,10.09,5.4,4.22-.84,7.26-4.54,7.26-8.84,0-2.39-.95-4.68-2.64-6.38h0Z"/>
    </g>
  </g>
</svg>