<?xml version="1.0" encoding="UTF-8"?>
<svg id="Layer_2" data-name="Layer 2" xmlns="http://www.w3.org/2000/svg" viewBox="0 0 73.19 91.12">
  <defs>
    <style>
      .cls-1 {
        fill: none;
      }
    </style>
  </defs>
  <g id="Layer_2-2" data-name="Layer 2">
    <g id="Layer_1-2" data-name="Layer 1-2">
      <g>
        <path d="M36.98,30.13c4.28,0,7.78-3.48,7.78-7.78s-3.48-7.78-7.78-7.78-7.78,3.48-7.78,7.78,3.49,7.78,7.78,7.78ZM36.98,16.86c3.03,0,5.5,2.47,5.5,5.5s-2.47,5.5-5.5,5.5-5.5-2.47-5.5-5.5,2.47-5.5,5.5-5.5Z"/>
        <path class="cls-1" d="M65.41,30.13c4.28,0,7.78-3.48,7.78-7.78s-3.48-7.78-7.78-7.78-7.78,3.48-7.78,7.78,3.49,7.78,7.78,7.78ZM65.41,16.86c3.03,0,5.5,2.47,5.5,5.5s-2.47,5.5-5.5,5.5-5.5-2.47-5.5-5.5,2.47-5.5,5.5-5.5Z"/>
        <path class="cls-1" d="M7.78,30.13c4.28,0,7.78-3.48,7.78-7.78s-3.48-7.78-7.78-7.78S0,18.05,0,22.35s3.49,7.78,7.78,7.78ZM7.78,16.86c3.03,0,5.5,2.47,5.5,5.5s-2.47,5.5-5.5,5.5-5.5-2.47-5.5-5.5,2.47-5.5,5.5-5.5Z"/>
        <path d="M50.14,33.06c-2.4-1.5-5.42-1.8-8.05-.79-3.44,1.31-6.78,1.31-10.22,0-2.63-1.01-5.65-.72-8.05.79-2.31,1.44-3.77,3.78-4.01,6.43-.02.27-.04.56-.04.84v14.58c0,2.75,2.23,4.99,4.99,4.99h3.33v26.2c0,2.77,2.26,5.02,5.02,5.02,1.57,0,2.96-.74,3.88-1.88.92,1.14,2.31,1.88,3.88,1.88,2.77,0,5.02-2.26,5.02-5.02v-26.2h3.33c2.75,0,4.99-2.23,4.99-4.99v-14.58c0-.28,0-.56-.04-.84-.28-2.64-1.74-4.98-4.04-6.43h.01ZM51.91,54.92c0,1.49-1.22,2.71-2.71,2.71h-3.33v-4.4c0-.63-.51-1.14-1.14-1.14s-1.14.51-1.14,1.14v32.89c0,1.51-1.23,2.75-2.75,2.75s-2.73-1.24-2.73-2.76v-27.34c0-.63-.51-1.14-1.14-1.14s-1.14.51-1.14,1.14v27.34c0,1.51-1.23,2.75-2.75,2.75s-2.75-1.23-2.75-2.75v-32.87c0-.63-.51-1.14-1.14-1.14s-1.14.51-1.14,1.14v4.4h-3.33c-1.49,0-2.71-1.22-2.71-2.71v-14.58c0-.22,0-.42.04-.64.17-1.93,1.25-3.64,2.95-4.7,1.8-1.13,4.07-1.34,6.04-.59,3.93,1.5,7.92,1.5,11.84,0,1.97-.75,4.23-.53,6.04.59,1.7,1.06,2.77,2.77,2.95,4.7.02.22.02.42.02.64v14.58h.02Z"/>
        <path d="M36.98,11.84c.63,0,1.14-.51,1.14-1.14V1.14c0-.63-.51-1.14-1.14-1.14s-1.14.51-1.14,1.14v9.56c0,.63.51,1.14,1.14,1.14Z"/>
        <path d="M27.94,14.92c.23.23.51.33.81.33s.58-.12.81-.33c.44-.44.44-1.16,0-1.61l-6.76-6.75c-.44-.44-1.16-.44-1.61,0s-.44,1.16,0,1.61l6.74,6.75h.01Z"/>
        <path d="M45.22,15.25c.3,0,.58-.12.81-.33l6.75-6.75c.44-.44.44-1.16,0-1.61s-1.16-.44-1.61,0l-6.75,6.75c-.44.44-.44,1.16,0,1.61.21.21.51.33.8.33h0Z"/>
      </g>
    </g>
  </g>
</svg>