<?xml version="1.0" encoding="UTF-8"?>
<svg id="Layer_2" data-name="Layer 2" xmlns="http://www.w3.org/2000/svg" viewBox="0 0 96.59 96.6">
  <defs>
    <style>
      .cls-1 {
        fill-rule: evenodd;
        stroke: #000;
        stroke-miterlimit: 10;
        stroke-width: .5px;
      }
    </style>
  </defs>
  <g id="Layer_2-2" data-name="Layer 2">
    <g id="Layer_1-2" data-name="Layer 1-2">
      <path class="cls-1" d="M31.66,28.3c5.64,0,10.73,3.4,12.89,8.61,2.16,5.21.96,11.21-3.02,15.2-3.99,3.99-9.99,5.18-15.2,3.02-5.21-2.16-8.61-7.25-8.61-12.89,0-7.71,6.24-13.95,13.94-13.95h0ZM60.73,94h-12.77v-18.67c0-.64-.53-1.17-1.17-1.17s-1.17.53-1.17,1.17v18.67h-27.9v-18.67c0-.64-.52-1.17-1.17-1.17s-1.17.53-1.17,1.17v18.67H2.59v-21.49c.08-7.83,6.21-13.97,13.95-13.97h30.25c7.74,0,13.86,6.13,13.95,13.96v21.5h-.01ZM40.44,25.75v2.78c3.34,2.14,5.79,5.44,6.89,9.26l6.04-6.04c-.89-4.77.68-9.68,4.2-13.03,3.51-3.35,8.48-4.7,13.21-3.59.41.1.74.41.86.82s0,.85-.29,1.15l-8.87,8.87,1.72,6.43,6.43,1.72,8.87-8.87c.3-.3.74-.41,1.15-.3.41.12.72.45.82.86,1.12,4.73-.23,9.7-3.59,13.22-3.36,3.51-8.26,5.09-13.03,4.2l-6.53,6.53c1.4.61,2.86,1.08,4.36,1.39.55.11.94.59.94,1.14v3.86h7.23v-3.85c0-.56.39-1.04.93-1.15,2.72-.57,5.3-1.64,7.63-3.16.46-.3,1.08-.24,1.47.15l2.73,2.73,5.11-5.11-2.73-2.73c-.39-.39-.45-1.01-.15-1.47,1.52-2.32,2.6-4.91,3.16-7.63.11-.55.59-.93,1.14-.94h3.86v-7.23h-3.86c-.55,0-1.04-.39-1.15-.93-.56-2.72-1.64-5.31-3.16-7.63-.3-.46-.24-1.08.15-1.47l2.73-2.73-5.11-5.11-2.72,2.73c-.39.39-1.01.45-1.48.15-2.32-1.52-4.91-2.6-7.62-3.16-.55-.11-.93-.59-.93-1.14v-3.86h-7.23v3.86c0,.55-.39,1.04-.93,1.15-2.72.56-5.31,1.64-7.63,3.16-.46.3-1.08.24-1.47-.15l-2.73-2.73-5.11,5.11,2.73,2.73c.39.39.45,1,.15,1.47-1.52,2.32-2.6,4.91-3.16,7.63-.11.55-.59.93-1.14.93h-3.86l-.03-.02ZM46.79,56.2c.56,0,1.12.03,1.68.09l15.16-15.16h0c.29-.29.7-.4,1.09-.31,3.67.86,7.53-.04,10.43-2.45,2.9-2.4,4.51-6.03,4.34-9.79l-7.7,7.7c-.3.29-.73.41-1.13.3l-7.74-2.07c-.41-.11-.72-.42-.83-.83l-2.07-7.74c-.11-.41,0-.84.3-1.13l7.69-7.69c-7.91-.34-14.09,6.9-12.23,14.76.09.39-.02.81-.31,1.1l-7.6,7.61c.32,3.08-.25,6.18-1.63,8.95s-3.52,5.09-6.17,6.68h6.71v-.02ZM51.25,56.81l5.3-5.29c1.51.73,3.09,1.3,4.72,1.71v4.09c0,.31.12.61.34.83s.52.34.83.34h9.57c.31,0,.61-.12.83-.34s.34-.52.34-.83v-4.09c2.36-.59,4.61-1.52,6.7-2.77l2.89,2.89c.22.22.52.34.83.34s.61-.12.83-.34l6.77-6.77h0c.22-.22.34-.52.34-.83s-.12-.61-.34-.83l-2.89-2.89c1.25-2.08,2.19-4.34,2.77-6.7h4.09c.65,0,1.17-.52,1.17-1.17v-9.57c0-.64-.52-1.17-1.17-1.17h-4.09c-.58-2.36-1.52-4.61-2.77-6.69l2.89-2.89c.46-.46.46-1.2,0-1.66l-6.77-6.77c-.46-.46-1.2-.46-1.66,0l-2.89,2.89c-2.08-1.25-4.34-2.19-6.7-2.77V1.42c0-.65-.52-1.17-1.17-1.17h-9.57c-.65,0-1.17.52-1.17,1.17v4.09c-2.36.59-4.62,1.52-6.7,2.77l-2.89-2.89c-.46-.46-1.2-.46-1.66,0l-6.77,6.77c-.46.46-.46,1.2,0,1.66l2.89,2.89c-1.25,2.08-2.19,4.34-2.78,6.7h-4.09c-.31,0-.61.12-.83.34s-.34.52-.34.83v2.7c-5.11-2.2-10.98-1.64-15.57,1.48-4.6,3.12-7.29,8.36-7.14,13.92.14,5.55,3.11,10.65,7.87,13.52h-6.71C7.49,56.2.3,63.55.25,72.5v22.68c0,.65.52,1.17,1.17,1.17h60.49c.64,0,1.17-.52,1.17-1.17v-22.68c-.02-3.54-1.18-6.98-3.31-9.8-2.13-2.83-5.12-4.89-8.52-5.88h0Z"/>
    </g>
  </g>
</svg>