<?xml version="1.0" encoding="UTF-8"?>
<svg id="Layer_2" data-name="Layer 2" xmlns="http://www.w3.org/2000/svg" viewBox="0 0 94.12 94.12">
  <g id="Layer_1-2" data-name="Layer 1">
    <path d="M77.06,0c-2.48,0-4.97.95-6.86,2.83l-9.31,9.31h0s0,.01,0,.02l-11.29,11.29c-.27.28-.43.65-.43,1.04s.16.76.43,1.04c.57.57,1.5.57,2.07,0l10.27-10.26,16.92,16.92-11.35,11.35c-.57.57-.57,1.5,0,2.07.28.28.65.43,1.04.43s.77-.15,1.04-.43l12.38-12.38.02-.02,9.3-9.3c3.78-3.78,3.78-9.93,0-13.71l-7.36-7.37C82.03.95,79.55,0,77.06,0h0ZM14.64.08c-3.37.01-6.71,1.26-9.26,3.8l-.25.26-.1.09C-.4,9.66.05,18.7,5.92,23.93l44.96,40.07c-1.73,6.53-.09,13.72,4.96,18.77,3.91,3.91,8.19,4.86,12.09,5.04,3.9.17,7.48-.27,10.66.65,5.18,1.49,9.18,5,9.18,5,.02.01.03.02.04.04.07.05.14.1.22.14.03.02.07.04.1.05.04.02.07.04.11.05.05.02.11.03.16.04l.11.02c.09.02.18.02.27.02.04,0,.07,0,.11,0,.09,0,.17-.03.25-.05.04-.01.08-.02.12-.04.08-.03.16-.07.24-.11.03-.02.07-.04.1-.06.07-.05.14-.11.2-.17.02-.02.04-.03.05-.05.03-.03.05-.07.08-.11l.05-.07c.05-.08.09-.16.13-.25,0-.02.02-.03.02-.04,0,0,8.7-23.34-6.17-38.2-3.81-3.81-8.84-5.67-13.88-5.62-1.65.02-3.29.24-4.9.66L25.09,4.78C22.47,1.84,18.9.26,15.31.1c-.22-.01-.45-.02-.68-.02h0ZM77.05,2.93c1.73,0,3.46.66,4.78,1.99l7.36,7.36c2.65,2.65,2.65,6.91,0,9.56l-8.27,8.27-16.92-16.92,8.27-8.27c1.32-1.32,3.05-1.99,4.78-1.99h0ZM14.68,3c2.98,0,6.01,1.24,8.23,3.73l39.27,44.03c-2.2.98-4.26,2.37-6.06,4.17-1.8,1.8-3.2,3.87-4.18,6.07L7.88,21.74c-4.68-4.17-4.98-11.2-.76-15.43l.35-.35c1.98-1.98,4.58-2.96,7.21-2.96h0ZM25.65,47.99c-.39,0-.77.16-1.04.43l-14.95,14.95c-.16.16-.29.36-.36.59L.08,92.19h0c-.17.53-.04,1.11.36,1.5s.96.53,1.49.36l28.23-9.24h0c.22-.07.42-.2.59-.36l1.46-1.46,14.59-14.59h0c.27-.28.43-.66.43-1.05s-.16-.77-.43-1.04c-.57-.57-1.5-.57-2.07,0l-13.56,13.56-16.92-16.93,12.46-12.46c.57-.57.57-1.5,0-2.07-.28-.28-.65-.43-1.04-.43h0ZM70.09,51.96c4.29-.04,8.55,1.55,11.79,4.79,10.94,10.94,7.63,27.51,6.08,33.15-1.81-1.29-4.88-3.18-8.55-4.25-3.94-1.14-7.78-.6-11.34-.76s-6.79-.84-10.14-4.19c-6.47-6.47-6.38-17.05.26-23.69,2.06-2.06,4.5-3.49,7.08-4.29h0s.01,0,.02,0c1.57-.48,3.2-.74,4.82-.75h0ZM12.15,65.04l16.92,16.93-.17.17-25.14,8.22,8.22-25.14.17-.17Z"/>
  </g>
</svg>