<?xml version="1.0" encoding="UTF-8"?>
<svg id="Layer_2" data-name="Layer 2" xmlns="http://www.w3.org/2000/svg" viewBox="0 0 49.5 49.23">
  <defs>
    <style>
      .cls-1 {
        stroke: #000;
        stroke-miterlimit: 10;
        stroke-width: .5px;
      }
    </style>
  </defs>
  <g id="Layer_2-2" data-name="Layer 2">
    <g id="Layer_1-2" data-name="Layer 1-2">
      <g>
        <g>
          <path class="cls-1" d="M30.84,48.97c-2.23,0-4.48-.44-6.65-1.32-2.02-.82-4.13-1.23-6.26-1.23h-5.91c-.28,0-.5-.22-.5-.5v-15.79c0-.28.22-.5.5-.5h6.57c2.27,0,4.48,1.1,6.07,3.01,1.42,1.71,3.31,2.65,5.3,2.65h3.53c1.39,0,3.07,1.32,3.07,2.96,0,.6-.23,1.16-.58,1.62.41-.1.82-.23,1.23-.37l7.79-2.81c1.09-.34,2.23-.16,3.08.46.76.56,1.17,1.4,1.17,2.37,0,1.2-1.09,2.25-2.02,2.78l-7.54,4.28c-2.81,1.59-5.82,2.4-8.85,2.4h0ZM12.52,45.42h5.41c2.26,0,4.49.44,6.64,1.31,4.83,1.95,10.02,1.59,14.63-1.02l7.54-4.28c.75-.43,1.51-1.22,1.51-1.91,0-.64-.27-1.2-.77-1.56-.59-.44-1.4-.55-2.16-.32l-7.76,2.81c-1.25.45-2.54.71-3.85.76h-6.5c-.28,0-.5-.22-.5-.5s.22-.5.5-.5h6.44c.88-.1,1.92-.97,1.92-1.95,0-1.04-1.16-1.96-2.07-1.96h-3.53c-2.27,0-4.48-1.1-6.07-3.01-1.42-1.71-3.31-2.65-5.3-2.65h-6.07v14.79h0Z"/>
          <path class="cls-1" d="M12.02,47.25H.75c-.28,0-.5-.22-.5-.5s.22-.5.5-.5h10.77v-16.83H.75c-.28,0-.5-.22-.5-.5s.22-.5.5-.5h11.27c.28,0,.5.22.5.5v17.83c0,.28-.22.5-.5.5Z"/>
          <path class="cls-1" d="M8.5,43.8h-2.33c-.28,0-.5-.22-.5-.5s.22-.5.5-.5h2.33c.28,0,.5.22.5.5s-.22.5-.5.5Z"/>
        </g>
        <path class="cls-1" d="M29.96,36.29c-.28,0-.5-.22-.5-.5V8.16c0-.28.22-.5.5-.5s.5.22.5.5v27.62c0,.28-.22.5-.5.5h0Z"/>
        <g>
          <path class="cls-1" d="M34.63,10.74c-3.11,0-5.02-2.22-5.05-2.25-.06-.07-.1-.17-.11-.26,0-.06-.16-1.5.97-2.85,1.12-1.33,3.07-2.07,5.78-2.2,4.62-.23,5.17-2.44,5.19-2.54.05-.24.3-.4.51-.39.24,0,.44.19.48.42.04.24.81,5.99-3.43,8.69-1.61,1.02-3.07,1.39-4.33,1.39h0ZM30.46,7.96c.6.63,3.58,3.33,7.97.54,2.44-1.55,2.96-4.38,3.03-6.14-.83.81-2.36,1.67-5.19,1.81-2.42.12-4.12.74-5.06,1.85-.66.79-.74,1.62-.75,1.94Z"/>
          <path class="cls-1" d="M29.97,8.66c-.12,0-.25-.04-.34-.14-.2-.19-.21-.49-.03-.69.11-.12,1.17-1.18,4.37-1.18,1.76,0,2.6-.61,3.13-1.14.2-.2.51-.2.71,0,.2.19.2.51,0,.71-.98.98-2.2,1.44-3.84,1.44-2.75,0-3.63.85-3.64.86-.1.1-.23.15-.36.15h0Z"/>
        </g>
        <g>
          <path class="cls-1" d="M25.29,19.6c-1.26,0-2.72-.36-4.33-1.39-4.24-2.69-3.46-8.49-3.43-8.73s.24-.42.48-.43h.01c.24,0,.45.17.49.41.02.09.57,2.35,5.19,2.58,2.71.13,4.65.87,5.78,2.2,1.14,1.34.98,2.79.97,2.85-.01.1-.05.19-.11.26-.03.03-1.94,2.25-5.05,2.25ZM18.47,11.2c.07,1.78.6,4.62,3.02,6.17,4.4,2.79,7.37.08,7.97-.55,0-.33-.08-1.16-.76-1.96-.94-1.1-2.64-1.71-5.04-1.83-2.82-.14-4.36-1.01-5.18-1.83h-.01Z"/>
          <path class="cls-1" d="M29.95,17.53c-.13,0-.27-.05-.36-.16-.03-.03-.92-.86-3.63-.86-1.64,0-2.86-.46-3.84-1.44-.2-.2-.2-.51,0-.71s.51-.2.71,0c.53.53,1.37,1.14,3.13,1.14,3.2,0,4.26,1.06,4.37,1.18.19.2.17.52-.03.71-.1.09-.22.13-.34.13h0Z"/>
        </g>
      </g>
    </g>
  </g>
</svg>