<?xml version="1.0" encoding="UTF-8"?>
<svg id="Layer_2" data-name="Layer 2" xmlns="http://www.w3.org/2000/svg" viewBox="0 0 101.69 101.68">
  <defs>
    <style>
      .cls-1 {
        stroke: #000;
        stroke-miterlimit: 10;
      }
    </style>
  </defs>
  <g id="Layer_2-2" data-name="Layer 2">
    <g>
      <path class="cls-1" d="M26.81,40.88c-3.79.01-7.2,2.29-8.64,5.79-1.45,3.5-.64,7.52,2.03,10.2.6.6,1.29,1.12,2.03,1.54-2.43.81-4.64,2.18-6.44,4.01-3.11,3.17-5.08,7.28-5.62,11.68-.03.07-.03.14-.03.21,0,.54.44.97.97.97h20.86c-.33,1.17-.58,2.36-.74,3.57h0c-.02.06-.02.13-.02.2,0,.54.43.97.96.97h37.37c.26,0,.5-.1.68-.28s.28-.42.28-.68c0-.07-.01-.14-.03-.21-.15-1.21-.4-2.4-.73-3.58h20.85c.3,0,.58-.13.76-.36s.25-.54.18-.82c-.55-4.4-2.52-8.51-5.62-11.68-1.8-1.83-4.01-3.2-6.44-4.01.74-.42,1.43-.94,2.03-1.54,2.68-2.68,3.48-6.7,2.04-10.2-1.45-3.5-4.86-5.79-8.64-5.79-1.26-1.05-2.69-1.89-4.22-2.48-.2-.07-.4-.14-.6-.21,3.45-2.01,5.13-6.09,4.09-9.96-1.25-4.66-6.08-7.59-11.04-6.2-2.11.59-3.94,1.99-5.07,3.87-2.65,4.42-1.08,9.87,3.1,12.29-.27.09-.54.19-.81.3-1.49.6-2.87,1.44-4.1,2.48-3.35-1.9-7.45-1.9-10.8,0-1.22-1.04-2.61-1.87-4.1-2.48-.27-.11-.54-.21-.81-.3,4.17-2.43,5.78-7.87,3.07-12.36-.81-1.33-1.99-2.43-3.38-3.14-4.66-2.37-9.97-.38-12.09,3.93-1.68,3.4-1,7.49,1.68,10.17.54.54,1.15,1.01,1.81,1.4l-.6.21c-1.53.59-2.96,1.43-4.22,2.48ZM19.43,49.74c.1-1.79.88-3.52,2.16-4.77,3.03-2.96,7.68-2.8,10.5,0,0,0,0,0,0,0h.01s0,0,0,0c2.05,2.05,2.72,5.1,1.73,7.83-1.13,3.09-4.18,5.07-7.47,4.84-3.97-.27-7.15-3.66-6.92-7.9ZM35.37,54.1h5.15c.93,2.65,2.84,4.84,5.34,6.12-2.46.74-4.73,1.98-6.69,3.64-1.41-1.77-3.16-3.25-5.15-4.34-.83-.45-1.7-.83-2.6-1.12,1.74-.97,3.12-2.48,3.95-4.3ZM12.26,73.34c.63-3.61,2.33-6.95,4.9-9.57,2.54-2.63,6.03-4.13,9.68-4.17,2.19.01,4.35.56,6.27,1.61,1.8,1,3.38,2.34,4.65,3.96-2.27,2.33-4.02,5.11-5.14,8.17H12.26ZM33.3,78.1c.21-1.16.5-2.3.87-3.41.03-.06.06-.11.06-.16,1.03-3.05,2.74-5.82,5-8.11,3.02-3.19,7.23-5,11.62-5s8.6,1.81,11.62,5c2.26,2.28,3.97,5.06,5,8.11.02.06.03.11.06.16.37,1.12.66,2.25.86,3.41h-35.09ZM55.85,60.21c2.5-1.28,4.4-3.47,5.34-6.12h5.14c.83,1.81,2.21,3.32,3.95,4.3-.9.29-1.77.67-2.6,1.12-1.98,1.09-3.73,2.57-5.15,4.34-1.95-1.66-4.23-2.9-6.68-3.64ZM84.55,63.77c2.57,2.63,4.28,5.95,4.91,9.56h0s0,0,0,0h-20.37c-1.12-3.06-2.88-5.84-5.15-8.17,1.27-1.62,2.86-2.96,4.66-3.95,1.92-1.06,4.08-1.61,6.27-1.61,3.66.04,7.14,1.54,9.68,4.17ZM80.13,44.98h.01c1.59,1.59,2.37,3.82,2.13,6.06-.24,2.24-1.49,4.25-3.39,5.46-1.9,1.21-4.24,1.5-6.38.78-2.14-.72-3.83-2.37-4.61-4.49-1.2-3.27.04-6.95,2.98-8.82s6.79-1.45,9.26,1.01ZM58.82,29.16c.64-3.24,3.49-5.58,6.8-5.58h.01c1.01,0,2.01.19,2.92.63,4.03,1.96,5.11,6.77,2.84,10.16-1.83,2.76-5.36,3.82-8.42,2.56-3.06-1.27-4.8-4.52-4.15-7.77ZM61.08,40.25c2.85-1.15,6.04-1.18,8.91-.07.76.29,1.49.66,2.18,1.09-4.66,1.4-7.46,6.14-6.46,10.89h-4.03c.53-3.45-.61-6.96-3.08-9.43-.22-.22-.45-.44-.69-.64.96-.76,2.03-1.38,3.17-1.84ZM45.84,42.98c3.58-2.39,8.35-1.92,11.39,1.12h0c2.68,2.71,3.5,6.89,1.62,10.6-.78,1.53-2.02,2.81-3.53,3.64-4.98,2.73-10.81.44-12.8-4.4-1.65-3.98-.26-8.56,3.32-10.95ZM31.23,35.43c-.64-.63-1.18-1.39-1.55-2.27-1.29-3.1-.16-6.7,2.69-8.51,1.04-.66,2.23-.94,3.43-.91.1,0,.19-.01.29-.01,3.58,0,6.51,2.74,6.83,6.23.06.2.11.39.11.56,0,2.22-1.07,4.22-2.76,5.5-.13.1-.26.2-.39.29-.13.08-.26.16-.39.24-.25.14-.51.27-.78.38-.08.03-.17.06-.25.09-.32.12-.65.22-.99.29,0,0-.01,0-.02,0-.02,0-.04,0-.07,0-.34.06-.69.1-1.05.11-.05,0-.1,0-.15,0-.03,0-.06,0-.09,0-.32,0-.64-.03-.95-.07-.06,0-.12-.02-.19-.03-.34-.06-.67-.14-.99-.24-.06-.02-.11-.04-.17-.06-.28-.1-.56-.22-.82-.36-.1-.05-.2-.11-.3-.17-.2-.11-.38-.24-.57-.37-.27-.19-.52-.41-.77-.64-.03-.03-.06-.05-.09-.08ZM31.73,40.19c2.87-1.11,6.06-1.08,8.91.07,1.13.46,2.2,1.08,3.17,1.84-.24.2-.47.42-.69.64-2.48,2.47-3.62,5.97-3.08,9.43h-4.04c1-4.75-1.8-9.48-6.45-10.89.69-.43,1.42-.8,2.18-1.09Z"/>
      <path class="cls-1" d="M14.58,22.86c3.3.65,6.59-1.11,7.88-4.21,1.28-3.1.19-6.67-2.6-8.54-2.78-1.87-6.51-1.5-8.88.87-1.32,1.32-2.06,3.11-2.06,4.98,0,3.36,2.37,6.24,5.66,6.9ZM10.94,14.95c.47-2.39,2.57-4.11,5.01-4.11h.01c2.19,0,4.24,1.42,4.93,3.74.23.77.26,1.6.08,2.38-.74,3.32-4.14,4.89-6.98,3.71-2.26-.94-3.53-3.33-3.06-5.72Z"/>
      <path class="cls-1" d="M98.44,34.44c-5.05-14.64-16.55-26.14-31.19-31.19C52.61-1.8,36.46.17,23.46,8.58c-.43.3-.54.88-.26,1.32.29.44.86.57,1.31.3C37.01,2.11,52.55.21,66.63,5.07c14.08,4.85,25.14,15.92,30,30,4.85,14.08,2.96,29.61-5.14,42.11-.29.45-.17,1.04.28,1.33.45.29,1.04.16,1.33-.28,8.42-13,10.39-29.15,5.34-43.79Z"/>
      <path class="cls-1" d="M89.66,79.91c-2.78-1.87-6.51-1.5-8.88.87-1.32,1.32-2.06,3.11-2.06,4.98,0,3.36,2.37,6.24,5.66,6.9,3.29.65,6.59-1.11,7.87-4.21,1.29-3.1.2-6.67-2.59-8.54ZM90.01,88.6c-1.65,2.47-5.16,3.1-7.62,1.01-.92-.79-1.53-1.92-1.69-3.12-.42-3.24,2.07-5.84,5.06-5.84h.01c1.35,0,2.65.54,3.61,1.5,1.72,1.72,1.98,4.42.63,6.45Z"/>
      <path class="cls-1" d="M77.18,91.48h0c-12.5,8.1-28.03,10-42.11,5.14-14.08-4.85-25.14-15.92-30-30C.22,52.54,2.11,37.01,10.21,24.51c.27-.45.14-1.03-.3-1.31-.44-.28-1.02-.16-1.32.26C.17,36.46-1.8,52.61,3.25,67.24c5.05,14.64,16.55,26.14,31.19,31.19s30.79,3.08,43.79-5.34c.44-.29.57-.89.28-1.33-.29-.44-.88-.57-1.33-.28Z"/>
    </g>
  </g>
</svg>