<svg width="4233" height="2136" viewBox="0 0 4233 2136" fill="none" xmlns="http://www.w3.org/2000/svg">
<path fill-rule="evenodd" clip-rule="evenodd" d="M565.812 0L0 568.192H305.244L305.244 1614.06L824.158 2135.37L824.158 415.512H662.21L1075.98 0H565.812ZM1075.98 0V1077.31L1594.9 556V0H1075.98ZM1050.06 568.192H1048.63L1050.06 566.76V568.192Z" fill="white"/>
<path d="M3861.15 1712.61C3758.53 1712.61 3670.91 1676.31 3598.3 1603.7C3525.7 1531.09 3489.39 1443.48 3489.39 1340.86C3489.39 1238.48 3525.7 1150.99 3598.3 1078.38C3670.91 1005.53 3758.53 969.108 3861.15 969.108C3963.52 969.108 4051.02 1005.53 4123.62 1078.38C4196.47 1150.99 4232.9 1238.48 4232.9 1340.86H4047.02C4047.02 1289.79 4028.75 1246.11 3992.2 1209.8C3955.9 1173.26 3912.21 1154.98 3861.15 1154.98C3809.84 1154.98 3766.03 1173.26 3729.72 1209.8C3693.42 1246.11 3675.27 1289.79 3675.27 1340.86C3675.27 1392.17 3693.42 1435.98 3729.72 1472.28C3766.03 1508.59 3809.84 1526.74 3861.15 1526.74V1712.61Z" fill="white"/>
<path d="M2641.33 1712.61V1340.86C2641.33 1238.48 2677.64 1150.99 2750.24 1078.38C2822.85 1005.53 2910.47 969.108 3013.08 969.108C3115.46 969.108 3202.95 1005.53 3275.56 1078.38C3348.41 1150.99 3384.84 1238.48 3384.84 1340.86V1712.61H3198.96V1340.86C3198.96 1289.79 3180.69 1246.11 3144.14 1209.8C3107.84 1173.26 3064.15 1154.98 3013.08 1154.98C2961.78 1154.98 2917.97 1173.26 2881.66 1209.8C2845.36 1246.11 2827.21 1289.79 2827.21 1340.86V1712.61H2641.33Z" fill="white"/>
<path d="M2165.02 1526.74C2216.09 1526.74 2259.78 1508.59 2296.08 1472.28C2332.63 1435.98 2350.9 1392.17 2350.9 1340.86C2350.9 1289.79 2332.63 1246.11 2296.08 1209.8C2259.78 1173.26 2216.09 1154.98 2165.02 1154.98C2113.71 1154.98 2069.91 1173.26 2033.6 1209.8C1997.3 1246.11 1979.15 1289.79 1979.15 1340.86C1979.15 1392.17 1997.3 1435.98 2033.6 1472.28C2069.91 1508.59 2113.71 1526.74 2165.02 1526.74ZM2165.02 1712.61C2062.4 1712.61 1974.79 1676.31 1902.18 1603.7C1829.58 1531.09 1793.27 1443.48 1793.27 1340.86C1793.27 1238.48 1829.58 1150.99 1902.18 1078.38C1974.79 1005.53 2062.4 969.108 2165.02 969.108C2267.4 969.108 2354.89 1005.53 2427.5 1078.38C2500.35 1150.99 2536.78 1238.48 2536.78 1340.86C2536.78 1443.48 2500.35 1531.09 2427.5 1603.7C2354.89 1676.31 2267.4 1712.61 2165.02 1712.61Z" fill="white"/>
<path d="M3965.24 1340.86C3965.24 1398.35 3918.63 1444.95 3861.15 1444.95C3803.66 1444.95 3757.05 1398.35 3757.05 1340.86C3757.05 1283.37 3803.66 1236.77 3861.15 1236.77C3918.63 1236.77 3965.24 1283.37 3965.24 1340.86Z" fill="white"/>
<path d="M3238.56 814.83V770.22H3435.41V814.83H3238.56ZM3238.56 469.1V424.49H3435.41V469.1H3238.56ZM3238.56 625.236V580.626H3424.25V625.236H3238.56ZM3212.35 424.49H3259.75V814.83H3212.35V424.49Z" fill="white"/>
<path d="M2921.35 696.612C2930.28 712.226 2939.57 725.981 2949.24 737.877C2959.27 749.773 2970.43 759.067 2982.69 765.758C2994.96 772.45 3008.9 775.796 3024.52 775.796C3045.33 775.796 3062.06 770.034 3074.7 758.509C3087.34 746.985 3093.66 732.301 3093.66 714.457C3093.66 696.984 3089.57 683.043 3081.39 672.634C3073.22 662.225 3062.43 653.861 3049.05 647.541C3036.04 640.85 3022.1 634.901 3007.23 629.697C2997.56 626.351 2986.78 622.076 2974.89 616.871C2962.99 611.295 2951.65 604.418 2940.87 596.239C2930.09 587.689 2921.17 577.28 2914.11 565.012C2907.41 552.744 2904.07 537.688 2904.07 519.844C2904.07 500.513 2908.9 483.226 2918.57 467.984C2928.23 452.743 2941.61 440.846 2958.72 432.296C2975.82 423.374 2995.33 418.913 3017.27 418.913C3038.46 418.913 3056.86 423.002 3072.47 431.181C3088.46 438.988 3102.03 449.211 3113.18 461.851C3124.33 474.118 3133.07 487.13 3139.39 500.885L3098.68 524.305C3093.85 514.639 3087.71 505.16 3080.28 495.866C3072.84 486.572 3063.74 478.951 3052.95 473.003C3042.55 467.055 3029.72 464.081 3014.48 464.081C2993.29 464.081 2977.86 469.286 2968.2 479.695C2958.53 489.732 2953.7 501.07 2953.7 513.71C2953.7 524.491 2956.48 534.528 2962.06 543.822C2967.64 552.744 2976.93 561.294 2989.94 569.473C3003.33 577.28 3021.36 585.087 3044.03 592.893C3054.44 596.611 3065.41 601.444 3076.93 607.392C3088.46 613.34 3099.05 620.961 3108.72 630.255C3118.76 639.177 3126.93 650.143 3133.25 663.155C3139.57 675.794 3142.73 691.036 3142.73 708.88C3142.73 725.981 3139.39 741.409 3132.7 755.163C3126.38 768.918 3117.45 780.629 3105.93 790.294C3094.78 799.96 3081.95 807.395 3067.45 812.599C3053.33 817.804 3038.46 820.406 3022.84 820.406C3001.65 820.406 2981.95 815.945 2963.73 807.023C2945.89 797.729 2930.09 785.647 2916.34 770.777C2902.95 755.535 2891.99 739.364 2883.44 722.263L2921.35 696.612Z" fill="white"/>
<path d="M2576.09 697.728L2592.82 653.118H2765.69L2782.42 697.728H2576.09ZM2678.14 512.595L2612.34 667.616L2607.88 677.653L2549.88 814.83H2496.91L2678.14 404.973L2859.37 814.83H2806.39L2749.52 680.999L2745.06 669.846L2678.14 512.595Z" fill="white"/>
<path d="M2166.32 625.236V580.626H2433.99V625.236H2166.32ZM2402.2 424.49H2449.6V814.83H2402.2V424.49ZM2140.12 424.49H2187.51V814.83H2140.12V424.49Z" fill="white"/>
<path d="M1834.62 424.49H1882.02V814.83H1834.62V424.49ZM1860.83 469.1V424.49H1940.57C1965.85 424.49 1988.34 429.323 2008.04 438.988C2028.11 448.282 2043.91 461.665 2055.44 479.137C2067.33 496.61 2073.28 517.428 2073.28 541.592C2073.28 565.384 2067.33 586.202 2055.44 604.046C2043.91 621.519 2028.11 635.088 2008.04 644.753C1988.34 654.047 1965.85 658.694 1940.57 658.694H1860.83V614.084H1940.57C1965.85 614.084 1986.29 607.95 2001.91 595.682C2017.89 583.414 2025.88 565.384 2025.88 541.592C2025.88 517.428 2017.89 499.398 2001.91 487.502C1986.29 475.234 1965.85 469.1 1940.57 469.1H1860.83Z" fill="white"/>
</svg>
