<?xml version="1.0" encoding="UTF-8"?>
<svg id="Layer_2" data-name="Layer 2" xmlns="http://www.w3.org/2000/svg" viewBox="0 0 379.82 402.34">
  <defs>
    <style>
      .cls-1 {
        fill: #114262;
      }

      .cls-2 {
        fill: #9bc032;
      }

      .cls-3 {
        fill: #114262;
      }
    </style>
  </defs>
  <g id="Layer_2-2" data-name="Layer 2">
    <g>
      <path class="cls-2" d="M55.18,116.65c-.39,1.13-38.43,192.74-38.43,192.74l3.33,18.77,35.1,53.03,106.84-19.87.67-11.21-42.08-60.13-7.68-18.95-5.07-38.33-15.38-14.13-3.66-105.56-4.77-16.85-28.86,20.49Z"/>
      <path class="cls-2" d="M171.95,360.05l95.54-141.48v-22.57l4.11-23.3,16.4-11.99v-69.63l47.85,23.85,6.67,17.41,14.16,87.73,4.12,40.11-10.91,23.83s-40.7,63.98-41.69,64.94-20.22,23.85-20.22,23.85l-116.05-12.72Z"/>
      <path class="cls-1" d="M367.05,149.26c-2.5,0-5.03-.73-7.24-2.26L187.14,27.64c-15.27,11-52.03,37.47-87.19,62.68-20.31,14.57-40.09,28.71-54.87,39.22q-27.75,19.71-32.32,19.71c-7.05,0-12.76-5.71-12.76-12.76,0-4.9,2.76-9.16,6.82-11.29C15.01,119.94,98.02,60.4,177.67,3.01c5.47-3.95,12.88-4.02,18.44-.18l178.2,123.17c5.8,4.01,7.25,11.95,3.24,17.75-2.48,3.58-6.46,5.51-10.51,5.51ZM12.7,123.74h0,0ZM12.73,123.74h0,0ZM12.76,123.74h-.02.02Z"/>
      <path class="cls-1" d="M.58,402.34c91.74-62.36,232.78-64.03,333.53-22.88,15.15,6.4,30.08,13.5,43.55,22.88-15.19-6.01-30.62-10.88-46.23-14.97-106.96-27.61-227.67-26.94-330.85,14.97h0Z"/>
      <path class="cls-3" d="M53.15,382.68l-36.55-52.08c-4.17-5.94-5.74-13.42-4.32-20.53L51.73,112.18l8.34,1.66-39.46,197.89c-.97,4.84.11,9.94,2.94,13.99l36.55,52.08-6.96,4.89Z"/>
      <path class="cls-3" d="M88.21,218.71l-3.32-100.24c-.11-3.26-.53-6.52-1.25-9.7l-2.64-11.67,8.29-1.88,2.64,11.67c.84,3.7,1.33,7.5,1.45,11.3l3.32,100.24-8.5.28Z"/>
      <rect class="cls-3" x="283.74" y="93.3" width="8.5" height="67.4"/>
      <path class="cls-3" d="M296.17,369.42l-7-4.83,63.59-92.25c2.48-3.6,3.79-7.81,3.79-12.18v-11.92c0-3.82-.36-7.65-1.06-11.41l-20.81-111.28,8.36-1.56,20.81,111.28c.8,4.27,1.2,8.63,1.2,12.97v11.92c0,6.1-1.83,11.98-5.29,17.01l-63.59,92.25Z"/>
      <path class="cls-3" d="M102.37,363.31c-2.45-4.65-6.39-10.79-10.56-17.29-10.92-17.02-23.3-36.31-24.69-51.06-.19-2.02-4.59-49.6,2.78-64.3,4.04-8.06,11.45-13.68,19.34-14.69,6.77-.85,13.15,1.7,17.96,7.2,7.62,8.73,8.58,25.51,9.36,39,.22,3.88.43,7.54.79,10.22,1.35,10.26,20.55,36.35,34.57,55.4,7.67,10.42,14.29,19.42,17.09,24.51l-7.46,4.09c-2.52-4.59-8.99-13.38-16.48-23.56-19.56-26.57-34.63-47.81-36.15-59.33-.39-2.99-.6-6.63-.84-10.84-.66-11.55-1.57-27.36-7.27-33.89-2.92-3.35-6.55-4.86-10.48-4.36-5.12.65-10.03,4.51-12.81,10.06-4.13,8.24-4.07,36.91-1.92,59.69,1.2,12.69,13.5,31.87,23.38,47.27,4.27,6.66,8.3,12.95,10.92,17.92l-7.52,3.96Z"/>
      <rect class="cls-3" x="144.61" y="114.92" width="34.81" height="34.81"/>
      <rect class="cls-3" x="144.61" y="167.73" width="34.81" height="34.81"/>
      <rect class="cls-3" x="198.66" y="114.92" width="34.81" height="34.81"/>
      <rect class="cls-3" x="198.66" y="167.73" width="34.81" height="34.81"/>
      <path class="cls-3" d="M175.47,359.66l-7.04-4.77,88.13-130.1c2.67-3.76,4.18-8.1,4.43-12.61l3.04-28.83c.63-11.45,9.11-24.03,21.66-24.03h2.18c4.71,0,9.32,2.15,13.34,6.23,6.64,6.74,11.36,18.6,11.22,28.21l.03,44.41c-.13,9.26-2.83,18.2-7.79,25.94l-39.8,62-7.16-4.59,39.8-62.01c4.11-6.4,6.34-13.8,6.45-21.4l-.03-44.41c.09-6.47-3.16-16.49-8.77-22.18-2.42-2.45-4.86-3.69-7.28-3.69h-2.18c-7.35,0-12.75,8.38-13.19,16.21l-3.04,28.83c-.32,5.9-2.38,11.78-5.92,16.77l-88.08,130.03Z"/>
    </g>
  </g>
</svg>