<?xml version="1.0" encoding="UTF-8"?>
<svg id="Layer_2" data-name="Layer 2" xmlns="http://www.w3.org/2000/svg" viewBox="0 0 373.59 414.15">
  <defs>
    <style>
      .cls-1 {
        fill: #dfca00;
      }

      .cls-2 {
        fill: #38791d;
      }

      .cls-3 {
        fill: #231f21;
      }
    </style>
  </defs>
  <g id="Layer_2-2" data-name="Layer 2">
    <g>
      <path class="cls-2" d="M373.59,287.03c-29.67,10.86-73.63,16.13-94.02-13.39-.95-12.38-3.26-23.96-7.23-35.51-2.7-7.59-5.92-14.29-10.61-21.46,12-2.42,28.49-6.61,40.09-4.92,20.11,1.64,30.91,15.79,39.48,32.29l11.76,22.62c2.85,4.78,5.67,9.26,9.22,13.46,3.06,3.39,6.54,5.32,11.31,6.93Z"/>
      <path class="cls-2" d="M140.78,271.25c-10.25,16.7-27.59,20.43-46.11,20.54l-25.95.15c-10.63,1.07-19.68.55-27.71,9.15,3.8-31.38,19.11-72.99,54.66-77.73,18.59,7.59,38.42,12.26,58.98,10.05-3.6,12.27-6.98,27.93-13.87,37.85Z"/>
      <path class="cls-2" d="M187.81,132.29c-8.77-9.13-21.09-20.55-26.13-31.75-8.51-16.16-3.55-33.03,4.99-47.97l14.27-24.97c4.24-9.47,8.86-16.67,5.5-27.6,11.51,8.74,21.32,18.64,29.59,30.16,11.61,16.68,18.33,36.74,10.06,56.3-15.8,12.11-30.11,27.16-38.29,45.83Z"/>
      <path class="cls-3" d="M290.7,93.91c-21.75,1.81-42.08,7.84-61.15,17.3-8.62,4.27-15.75,9.56-23.18,15.98,4.01-8.93,10.11-16.13,17.18-22.53,17.49-15.83,39.55-22.7,62.81-24.91,15.22-1.45,29.89-3.02,44.94-5.39,15.87-3.24,30.46-5.33,40.03-20,1.39,20.29-.71,39.59-6.01,58.5-9.15,32.63-28.7,59.77-58.77,75.84-10.13,5.41-20.52,9.65-32.1,12.15,18.59-12.51,35.51-26.25,50.35-42.79,18.19-20.33,34.12-46.32,34.32-74.69-22.92,5.63-45.02,8.6-68.42,10.54Z"/>
      <path class="cls-3" d="M64.65,150.53c11.69,26.55,31.98,53.9,58.12,67.5-9.66-.74-18.15-4.07-26.35-8.47-20.51-11.02-34.68-29.57-44.26-50.49-6.45-14.08-12.83-27.68-20.06-41.33-8.12-13.73-14.98-27.36-32.1-31.68,25.8-8.95,53.96-13.69,80.77-11.98,28.87,1.96,57.17,13.32,73.52,38.97-16.66-8.56-32.71-15.62-50.25-20.25-12.47-3.41-24.72-5.4-37.68-5.64-11.55-.02-22.76,1.42-33.56,5.61,13.24,17.74,22.56,37.55,31.85,57.77Z"/>
      <path class="cls-3" d="M177.04,375.74c-23.72-29.02-39.97-66.24-24.58-103.69,2.31,20.12,6.11,38.95,13.12,57.42,7.8,20.54,19.89,41.07,38.57,53.79,8.33-20.65,18.85-39.77,30.53-58.71,14.31-23.2,25.79-59.04,21.93-86.59,4.11,7.13,6.38,14.96,7.66,23.26,3.79,24.57-3.58,48.04-16.07,69.05-8.05,13.55-15.74,26.79-22.91,40.81-6.59,14.62-12.91,26.19-7.39,43.08-15.69-11.33-28.87-24.11-40.88-38.42Z"/>
      <path class="cls-1" d="M181.44,191.1s12.89-10.29,16.19-29.02c0,0,7.66,37.35,33.79,51.92,0,0-40.24-9.54-61.8.29,0,0,15.78-13.88,37.52-12.03,0,0-7.86-4.51-10.75-18.62,0,0-5.15,5.32-14.94,7.46Z"/>
    </g>
  </g>
</svg>