<?xml version="1.0" encoding="UTF-8"?>
<svg id="Layer_2" data-name="Layer 2" xmlns="http://www.w3.org/2000/svg" viewBox="0 0 922.87 320.44">
  <defs>
    <style>
      .cls-1 {
        fill: #009e82;
      }

      .cls-1, .cls-2, .cls-3 {
        fill-rule: evenodd;
      }

      .cls-2 {
        fill: #00247d;
      }

      .cls-3 {
        fill: #99a7ce;
      }
    </style>
  </defs>
  <g id="Layer_2-2" data-name="Layer 2">
    <g>
      <polygon class="cls-1" points="650.85 242.72 622.41 193.39 650.85 144.11 707.77 144.11 736.21 193.39 707.77 242.72 650.85 242.72"/>
      <polygon class="cls-2" points="744.18 296.73 715.74 247.45 744.18 198.17 801.1 198.17 829.54 247.45 801.1 296.73 744.18 296.73"/>
      <polygon class="cls-3" points="837.51 242.72 809.02 193.44 837.51 144.11 894.38 144.11 922.87 193.44 894.38 242.72 837.51 242.72"/>
      <path d="M62.36,202.7c-15.32-26.71-16.29-59.31-2.59-86.89,9.08-17.98,23.5-32.71,41.27-42.19-8.34-10.88,2.22-23.16,7.32-27.79.26-.28.25-.72-.03-.98-.17-.16-.4-.22-.62-.18-20.93,9.82-42.84,33.49-53.12,52.62-18.14,33.69-15.78,74.72,6.11,106.11,1.62,2.64,3.89,3.38,1.62-.69"/>
      <path d="M61.99,220.91c-36.13-34.97-38.07-94.44-14.96-138.02,13.42-25.22,34.5-45.53,60.21-57.99,4.5-2,9.14-3.64,13.89-4.91-3.61-7.55,6.53-16.03,21.81-18.53.28-.32,0-.74-.65-.97-6.58-2.78-37.42,7.41-43.12,2.92-24.54,14.35-44.99,34.76-59.38,59.28-30.52,54.24-22,121.67,21.31,160.49,4.63,4.21,5.79,2.08.88-2.32"/>
      <path d="M28.32,60.61c.6-.32,1.11-.42,1.44,0-25.49,41.14-25.49,93.17,0,134.32,2.13,3.47,1.02,4.91-2.45,0C9.74,170.47-.49,148.61.02,112.16c.17-9.06,1.29-18.08,3.33-26.91,7.73,4.31,18.99-21.35,24.96-24.92"/>
      <path d="M265.32,242.35c-4.03,2.02-8.46,3.13-12.97,3.24-5.57.22-10.96-1.95-14.82-5.97-3.84-4.27-5.85-9.87-5.6-15.61.05-3.11.38-6.21.97-9.26l11.16-62.62h-13.06l1.44-6.85h12.69l5.6-31.22,17.09-5.09-6.53,36.31h23.16l-1.44,6.85h-22.79l-11.63,65.07c-.5,3.06-.76,6.16-.79,9.26-.22,2.89.6,5.77,2.32,8.11,1.77,1.9,4.31,2.89,6.9,2.69,3.42-.21,6.74-1.2,9.73-2.87l-1.44,7.92"/>
      <path d="M310.01,242.35c-4.03,2.02-8.46,3.13-12.97,3.24-5.57.23-10.97-1.95-14.82-5.97-3.84-4.27-5.85-9.87-5.6-15.61.06-3.11.4-6.21,1.02-9.26l11.16-62.62h-13.06l1.44-6.85h12.69l5.6-31.22,17.09-5.09-6.53,36.31h27.19l-1.44,6.85h-26.86l-11.58,65.12c-.53,3.06-.81,6.16-.83,9.26-.21,2.85.59,5.69,2.27,8.01,1.77,1.9,4.31,2.89,6.9,2.69,3.43-.21,6.77-1.19,9.77-2.87l-1.44,7.92"/>
      <path d="M337.57,232.07c-2.39.08-4.64-1.17-5.84-3.24-1.49-3.03-2.16-6.4-1.95-9.77.18-9.95,1.63-19.83,4.31-29.41,2.17-9.14,5.62-17.94,10.24-26.12,3.77-7.38,11.3-12.09,19.59-12.23,3.45-.01,6.88.47,10.19,1.44,3.4,1.11,6.64,2.67,9.63,4.63l-5.56,31.22c-16.77,29.12-30.29,43.68-40.57,43.68M399.59,243.46l.88-5.79h-1.44c-3.36-.16-6.69-.64-9.96-1.44-1.02-.42-1.53-1.57-1.53-3.52.07-4.29.52-8.57,1.34-12.78l13.34-74.75h-16.21c-3.33-.83-6.21-1.57-8.57-1.57-1.91-.31-3.85-.48-5.79-.51-14.39,0-27.81,8.41-40.25,25.24-11.98,15.67-18.49,34.84-18.53,54.56-.41,5.97,1.11,11.92,4.35,16.95,3.15,3.88,7.98,5.99,12.97,5.65,7.13,0,14.85-3.95,23.16-11.86,9.19-9.17,16.78-19.82,22.46-31.49l-7.32,41.17,31.08.14Z"/>
      <path d="M417.93,244.34c.42-7.09.6-12.04.6-14.96.46-24.33-3.5-48.54-11.67-71.47-1.67-4.63-5.88-6.9-12.46-6.9h-1.44l.74-5.93h26.54c6.93,23.31,11.22,47.33,12.78,71.6,16.37-30.04,26.26-53.68,29.69-70.91h4.63c8.68,23.42,13.89,47.98,15.47,72.9l7.87-12.83c12.35-20.13,18.53-35.26,18.53-45.39.13-5.59-1.76-11.03-5.33-15.33h19.73c.22,1.53.35,3.08.37,4.63,0,7.87-5.5,20.81-16.49,38.81-18.87,30.51-30.57,49.03-35.11,55.58h-5.42c.46-5.97.74-10.19.74-12.55.12-19.3-2.75-38.5-8.52-56.92-9.85,22.31-21.11,43.97-33.72,64.84-.23.37-1.07,1.85-2.45,4.63h-5.09"/>
      <path d="M533.16,232.07c-2.41.1-4.68-1.15-5.88-3.24-1.49-3.03-2.16-6.4-1.95-9.77.17-9.95,1.62-19.83,4.31-29.41,2.18-9.14,5.63-17.93,10.24-26.12,3.78-7.39,11.34-12.09,19.64-12.23,3.45.03,6.89.56,10.19,1.57,3.39,1.1,6.62,2.66,9.59,4.63l-5.56,31.22c-16.7,29.12-30.23,43.68-40.57,43.68M595.13,243.6l.88-5.79h-1.44c-3.4-.08-6.78-.48-10.1-1.2-1.02-.42-1.53-1.57-1.53-3.52.08-4.29.54-8.57,1.39-12.78l13.15-75.22h-16.07c-3.33-.74-6.16-1.3-8.52-1.67-1.93-.31-3.88-.48-5.84-.51-14.39,0-27.79,8.41-40.2,25.24-11.99,15.66-18.5,34.83-18.53,54.56-.44,5.97,1.09,11.93,4.35,16.95,3.12,3.99,8.01,6.17,13.06,5.84,7.13,0,14.85-3.95,23.16-11.86,9.19-9.18,16.78-19.82,22.46-31.49l-7.32,41.17,31.08.28Z"/>
      <path d="M82.83,236.24c45.67,25.2,98.14,2.83,114.82-34.88,16.07-36.27,6.39-84.02-25.98-101.9-10.5-5.99-22.37-9.18-34.46-9.26-38.07,0-68.92,32.42-68.92,71.98-.41,35.11,24.9,65.25,59.56,70.91,4.63.51,6.02,1.95,0,1.34-22.73-2.38-43.07-15.16-55.07-34.6-14.42-25.07-14.64-55.88-.56-81.15,22.14-40.48,72.99-52.29,113.47-29.97,40.44,22.33,55.12,73.22,32.79,113.66,0,0,0,0,0,0-27.79,50.95-86.29,63.73-137,35.71-9.91-5.84-11.49-9.77-3.94-5.23l5.47,3.15"/>
      <path d="M232.48,319.61v-44.93h14.54c3.61-.14,7.23.09,10.79.69,2.6.69,4.89,2.24,6.48,4.4,1.83,2.54,2.74,5.63,2.59,8.75.08,2.4-.43,4.79-1.48,6.95-.87,1.83-2.17,3.42-3.8,4.63-1.39,1-2.96,1.73-4.63,2.13-3.06.49-6.16.7-9.26.65h-6.21v16.72h-9.03ZM241.74,282.28v12.78h4.96c2.41.14,4.84-.09,7.18-.69,1.15-.43,2.14-1.2,2.83-2.22.69-1.03,1.04-2.24,1.02-3.47.06-1.49-.46-2.95-1.44-4.08-1-1.11-2.36-1.83-3.84-2.04-2.17-.27-4.35-.38-6.53-.32l-4.17.05Z"/>
      <path d="M295.7,319.61v-4.91c-1.17,1.74-2.77,3.16-4.63,4.12-1.89.98-3.99,1.49-6.11,1.48-2.05.04-4.08-.46-5.88-1.44-1.67-.88-2.99-2.3-3.75-4.03-.88-2.3-1.27-4.76-1.16-7.23v-20.43h8.38v14.91c-.13,2.8.03,5.61.46,8.38.28.99.89,1.85,1.71,2.45.94.63,2.06.93,3.2.88,1.41.02,2.78-.4,3.94-1.2,1.11-.71,1.96-1.77,2.41-3.01.59-2.88.8-5.82.65-8.75v-13.66h8.61v32.42h-7.83Z"/>
      <path d="M312.28,319.61v-44.93h8.61v16.16c2.25-2.84,5.64-4.54,9.26-4.63,3.75-.09,7.34,1.49,9.82,4.31,2.81,3.49,4.2,7.9,3.89,12.37.3,4.62-1.12,9.19-3.98,12.83-2.34,2.93-5.89,4.63-9.63,4.63-1.91-.01-3.78-.49-5.47-1.39-1.85-.98-3.44-2.4-4.63-4.12v4.63l-7.87.14ZM320.8,302.61c-.18,2.58.37,5.17,1.57,7.46,1.23,2.13,3.51,3.44,5.97,3.43,1.91-.02,3.71-.93,4.86-2.45,1.51-2.25,2.22-4.94,1.99-7.64.26-2.83-.44-5.67-1.99-8.06-1.25-1.58-3.17-2.49-5.19-2.45-2.01-.03-3.92.86-5.19,2.41-1.54,2.12-2.28,4.71-2.08,7.32h.05Z"/>
      <path d="M351.05,319.61v-44.93h8.61v44.93h-8.61Z"/>
      <path d="M368.46,282.55v-7.92h8.61v7.92h-8.61ZM368.46,319.61v-32.42h8.61v32.42h-8.61Z"/>
      <path d="M414.32,296.45l-8.52,1.53c-.18-1.44-.87-2.77-1.95-3.75-1.12-.89-2.51-1.35-3.94-1.3-1.96-.08-3.86.74-5.14,2.22-1.47,2.19-2.14,4.83-1.9,7.46-.27,2.87.42,5.75,1.95,8.2,1.26,1.59,3.21,2.48,5.23,2.41,1.47.07,2.91-.43,4.03-1.39,1.2-1.27,1.98-2.89,2.22-4.63l8.48,1.44c-.62,3.42-2.4,6.51-5.05,8.75-2.91,2.11-6.46,3.16-10.05,2.96-4.29.17-8.44-1.52-11.39-4.63-3-3.44-4.53-7.91-4.26-12.46-.27-4.58,1.25-9.09,4.26-12.55,2.99-3.12,7.17-4.8,11.49-4.63,3.28-.14,6.52.75,9.26,2.55,2.6,1.93,4.47,4.69,5.28,7.83Z"/>
      <path d="M438.35,319.61v-44.93h9.26v17.69h17.79v-17.74h9.26v44.97h-9.26v-19.64h-17.97v19.64h-9.08Z"/>
      <path d="M502.5,309.23l8.57,1.48c-.91,2.9-2.75,5.42-5.23,7.18-2.66,1.72-5.78,2.57-8.94,2.45-4.85.37-9.57-1.72-12.55-5.56-2.26-3.29-3.4-7.22-3.24-11.21-.28-4.61,1.23-9.16,4.21-12.69,2.71-3.04,6.63-4.73,10.7-4.63,4.32-.25,8.51,1.45,11.44,4.63,3.11,4.23,4.54,9.46,4.03,14.68h-21.54c-.08,2.18.66,4.32,2.08,5.97,1.27,1.39,3.07,2.17,4.96,2.13,1.24.03,2.45-.36,3.43-1.11,1-.89,1.72-2.05,2.08-3.33ZM502.96,300.52c.08-2.06-.62-4.07-1.95-5.65-1.18-1.31-2.87-2.02-4.63-1.95-1.77-.04-3.47.71-4.63,2.04-1.3,1.55-1.94,3.54-1.81,5.56h13.01Z"/>
      <path d="M524.96,297l-7.78-1.39c.68-2.81,2.31-5.31,4.63-7.04,2.88-1.71,6.2-2.5,9.54-2.27,2.94-.16,5.88.31,8.61,1.39,1.65.71,3.02,1.93,3.94,3.47.96,2.46,1.36,5.1,1.16,7.73v10.05c-.06,2.12.08,4.25.42,6.35.32,1.51.84,2.97,1.53,4.35h-8.52c-.23-.56-.51-1.39-.83-2.55l-.32-1.02c-1.33,1.34-2.9,2.42-4.63,3.2-1.7.72-3.53,1.08-5.37,1.07-2.9.16-5.74-.82-7.92-2.73-1.9-1.76-2.95-4.26-2.87-6.85-.03-1.73.42-3.43,1.3-4.91.88-1.44,2.17-2.59,3.71-3.29,2.19-.95,4.49-1.62,6.85-1.99,2.84-.46,5.63-1.17,8.34-2.13v-.88c.12-1.33-.33-2.64-1.25-3.61-1.38-.86-3.01-1.24-4.63-1.07-1.26-.07-2.5.26-3.57.93-1.1.78-1.91,1.91-2.32,3.2ZM536.5,304c-1.11.37-2.87.79-5.23,1.3-1.61.25-3.17.75-4.63,1.48-1.04.65-1.66,1.79-1.67,3.01-.01,1.18.48,2.3,1.34,3.1.92.89,2.16,1.35,3.43,1.3,1.67.02,3.3-.52,4.63-1.53.96-.7,1.68-1.69,2.04-2.83.28-1.37.38-2.77.32-4.17l-.23-1.67Z"/>
      <path d="M553.5,319.61v-44.93h8.61v44.93h-8.61Z"/>
      <path d="M585.92,287.18v6.85h-5.88v13.11c-.11,1.54-.11,3.09,0,4.63.11.43.37.81.74,1.07.44.3.96.44,1.48.42,1.18-.09,2.34-.38,3.43-.83l.74,6.72c-2.16.9-4.47,1.34-6.81,1.3-1.44.02-2.88-.24-4.21-.79-1.08-.41-2.03-1.12-2.73-2.04-.66-1.02-1.07-2.18-1.2-3.38-.24-2.01-.34-4.04-.28-6.07v-14.27h-3.98v-6.72h3.98v-6.48l8.61-5.05v11.53h6.11Z"/>
      <path d="M600.37,274.63v16.58c3.64-4.66,9.98-6.24,15.38-3.84,1.43.6,2.68,1.58,3.61,2.83.81,1.14,1.37,2.43,1.67,3.8.34,2.14.48,4.31.42,6.48v19.13h-8.66v-17.23c.11-2.17-.06-4.35-.51-6.48-.31-.9-.92-1.66-1.71-2.18-.94-.56-2.01-.83-3.1-.79-1.36-.02-2.69.35-3.84,1.07-1.15.74-2.02,1.85-2.45,3.15-.61,2.01-.87,4.11-.79,6.21v16.26h-8.61v-44.93l8.61-.05Z"/>
    </g>
  </g>
</svg>