<?xml version="1.0" encoding="UTF-8"?>
<svg id="Layer_2" data-name="Layer 2" xmlns="http://www.w3.org/2000/svg" viewBox="0 0 566.37 384.56">
  <defs>
    <style>
      .cls-1 {
        fill: #fff;
      }

      .cls-2 {
        fill: red;
      }

      .cls-3 {
        fill: none;
      }

      .cls-3, .cls-4 {
        stroke: #000;
        stroke-miterlimit: 10;
        stroke-width: 2px;
      }

      .cls-4 {
        fill: #4c76c4;
      }
    </style>
  </defs>
  <g id="Layer_2-2" data-name="Layer 2">
    <g>
      <path class="cls-2" d="M351.1,67.6v178.76c-27.23,5.84-44.56,22.02-52.6,31.36-3.55,4.11-5.29,6.9-5.29,6.9V99.35s1.76-2.28,5.29-5.65c8.13-7.76,25.64-21.31,52.6-26.1Z"/>
      <path class="cls-2" d="M565.36,58.98v185.27s-21.54,26.88-66.26,28.77V90.75c43.98-4.06,66.26-31.77,66.26-31.77Z"/>
      <path class="cls-3" d="M293.21,99.35s45.35-58.66,136.71-20.75c89.72,37.23,135.45-19.63,135.45-19.63v185.27s-44.05,54.95-136.91,13.23c-92.29-41.47-135.25,27.14-135.25,27.14V99.35Z"/>
      <path class="cls-4" d="M273.16,99.35s-45.35-58.66-136.71-20.75C46.73,115.84,1,58.98,1,58.98v185.27s44.05,54.95,136.91,13.23c92.29-41.47,135.25,27.14,135.25,27.14V99.35Z"/>
      <rect x="267.86" y="43.19" width="31.96" height="283.16"/>
      <polygon points="221.43 351.25 283.84 384.56 345.58 351.25 283.84 312.56 221.43 351.25"/>
      <path d="M283.84,0c-.34,3.25-.34,5.5-15.25,21.53-14.92,16.04,0,26.58,0,26.58h30.5s14.92-10.54,0-26.58c-14.92-16.04-14.92-18.28-15.25-21.53Z"/>
      <path d="M564.97,265.78l.39,27.53s-64.1,53.52-133.99,10.99c-63.59-38.69-132.87-4.04-132.87-4.04,0,0,65.06-55.85,137.44-17.5,36.5,19.35,66.45,20.69,129.03-16.99Z"/>
      <path d="M565.03,308.62l.33,23.1s-68.73,30.86-121.2,13.23c-20.52-6.9-40.54-27.59-73.85-31.28-11.93-1.32-50.18-.07-62.24,8.16,27.25-18.61,82.88-25.7,125.83.74,23.05,14.19,98.72,12.73,131.13-13.96Z"/>
      <path d="M1.39,265.78l-.39,27.53s64.1,53.52,133.99,10.99c63.59-38.69,132.87-4.04,132.87-4.04,0,0-65.06-55.85-137.44-17.5-36.5,19.35-66.45,20.69-129.03-16.99Z"/>
      <path d="M1.33,308.62l-.33,23.1s68.73,30.86,121.2,13.23c20.52-6.9,40.54-27.59,73.85-31.28,11.93-1.32,50.18-.07,62.24,8.16-27.25-18.61-82.88-25.7-125.83.74-23.05,14.19-98.72,12.73-131.13-13.96Z"/>
      <polygon class="cls-1" points="140.02 136.11 147.83 160.13 173.09 160.13 152.65 174.97 160.46 199 140.02 184.15 119.59 199 127.39 174.97 106.96 160.13 132.22 160.13 140.02 136.11"/>
      <path class="cls-2" d="M391.41,164.38l-4.44,2.07,19.71,15.96c.45.37.62.98.42,1.53l-2.43,6.7,18-3.16c1.08-.19,2.11.54,2.3,1.62.02.14.03.29.03.43l-.94,18.08h3.77l-.94-18.08c-.05-1.1.8-2.03,1.9-2.08.14,0,.29,0,.43.03l18,3.16-2.43-6.7c-.2-.55-.03-1.16.42-1.53l19.71-15.96-4.44-2.07c-.62-.29-.93-1-.71-1.66l3.9-11.98-11.36,2.41c-.63.13-1.27-.2-1.53-.8l-2.2-5.17-8.86,9.51c-.52.55-1.38.57-1.93.05-.34-.32-.49-.79-.4-1.25l4.27-22.04-6.85,3.96c-.65.38-1.48.16-1.86-.49-.02-.03-.03-.05-.04-.08l-6.96-13.66-6.96,13.66c-.34.67-1.15.95-1.83.61-.03-.01-.05-.03-.08-.04l-6.85-3.96,4.27,22.04c.14.74-.34,1.45-1.08,1.59-.46.09-.93-.06-1.25-.4l-8.86-9.51-2.2,5.17c-.26.6-.9.93-1.53.8l-11.36-2.41,3.9,11.98c.21.65-.09,1.36-.71,1.66Z"/>
    </g>
  </g>
</svg>