<?xml version="1.0" encoding="UTF-8"?>
<svg id="Layer_2" data-name="Layer 2" xmlns="http://www.w3.org/2000/svg" viewBox="0 0 636.08 618.94">
  <defs>
    <style>
      .cls-1 {
        fill: #eee5dc;
      }

      .cls-2 {
        fill: #f5eee7;
      }

      .cls-3 {
        fill: #bfae9d;
      }

      .cls-4 {
        fill: #8e7d6b;
      }

      .cls-5 {
        fill: #3e3e3e;
      }

      .cls-6 {
        fill: #cf7e4a;
      }

      .cls-7 {
        fill: #36393c;
      }

      .cls-8 {
        fill: #d7c8b8;
      }

      .cls-9 {
        fill: #a59381;
      }

      .cls-10 {
        fill: #f4ece5;
      }

      .cls-11 {
        fill: #6c5e4f;
      }

      .cls-12 {
        fill: #dccfc0;
      }

      .cls-13 {
        fill: #753f1e;
      }

      .cls-14 {
        fill: #24282a;
      }

      .cls-15 {
        fill: #1f2122;
      }

      .cls-16 {
        fill: #d1c1b0;
      }

      .cls-17 {
        fill: #fdfdfd;
      }

      .cls-18 {
        fill: #e5d9cc;
      }
    </style>
  </defs>
  <g id="Layer_1-2" data-name="Layer 1">
    <g>
      <path class="cls-16" d="M435.09,61.14c-1.09,1.05-2.29,1.5-4.14,1.71-14.72,1.66-24.78.01-34.17-12.43-4.98-7.92-10.41-15.05-16.35-22.02,2.88-10.37,11.31-18.4,20.39-21.67,11.42-4.12,23.08-1.85,31.99,5.21,15.83,12.55,16.47,35.51,2.28,49.21Z"/>
      <path class="cls-2" d="M615.93,407.58c-.44,1.26-.84,2.52-1.74,3.83l-5.15,7.43c-.7,1.02-1.51,1.56-2.56,1.4l-.16-2.35.11-10.24,9.5-.06Z"/>
      <path class="cls-2" d="M380.43,28.39c5.94,6.97,11.37,14.1,16.35,22.02,9.39,12.44,19.45,14.1,34.17,12.43,1.85-.21,3.05-.65,4.14-1.71.17.43.79.68,1.37.54l18.88-4.43c7.76-1.82,15.53-2.72,23.22-1.03,10.04,2.21,17.92,8.38,22,17.67,2.32,5.28,7.47,8.23,13.32,8.28,32.43.24,57.89,20.55,68.4,50.93,9.47,27.38,5.22,53.51-2.48,80.9l-1.7,9.15-59.13-.02v-44.56s55.58-.37,55.58-.37c-1.34-6.61-7.64-10.1-14.14-8.52-4.1-7.85-13.08-11.02-21.45-7.83-2.83,1.08-5.05,2.75-7.61,4.68-3.46-3.72-7.77-4.82-12.39-4.59l-.2-39.87-6.48-13.51-99.68-.02-10.3,13.16c-.45.57-.55,1.27-.5,1.89-1.36.28-3.37,2.58-3.38,4.37l-.46,74.63c-5.36-.34-10.58-3.04-16.13-2.94l-.11-13.2-.05-125.15-5.46-15.07-118.74-.05-3.95,15.55-.21,138.09c-.56-.19-1.32-.45-2.1-.26l-15.13,3.69-.16-81.38c0-1.57-1.66-3.77-2.78-4.25.06-1.29-.6-2.38-1.35-3.55l-9.97-15.66-94.13-.1c-1.54,0-2.84.02-3.64.71-.59-2.29-1.48-4.23-2.41-6.35l8.98.12c3.34.05,6.23-.54,6.01-1.99-.11-.73-.52-1.35-1.25-2.17,1.5-.82,2.6-.58,3.64-.81.84-3.61-2.98-3.01-2.13-4.93,3.57.79,6.92,2.33,10.35,4.26,8.28-21.93,20.76-36.58,39.36-49.86C217.92,14.97,254.81,2.28,293.27.24c31.12-1.65,61.26,4.88,84.59,25.95.99.89,1.41,2.12,2.56,2.2Z"/>
      <path class="cls-10" d="M108.79,139.02l.24,77.83-50.17.02-13.23,18.13-.18,129.73c-.43-.06-.92-.15-1.37-.12l-6.91.45c-.37-.21-.92-.57-1.36-.61l-7.77-.64c-.99-.08-1.98.79-1.97,1.9l.2,31.15c.01,1.98,3.18,1.52,4.39,1.57l5.84.23.08,10.8c-1.1-.21-1.89.18-2.72.97l-8.27,7.95c-.75.72-1.41,1.18-2.3,1.02-9.79-15.82-17.03-33.59-15.83-52.76.73-11.68,4.68-22.66,11.88-31.83,4.25-5.4,9.43-9.23,14.44-13.78,5.41-4.92,6.51-12.65,4.53-19.51l-4.85-11.43c-8.28-17.11-14.04-34.84-16.28-53.89-3.25-27.6,3.13-57.79,21.52-78.68,13.57-15.42,33.06-23.09,53.54-20.98l16.56,2.46Z"/>
      <path class="cls-1" d="M136.91,82.9c-.85,1.92,2.97,1.32,2.13,4.93-1.04.23-2.14-.01-3.64.81.74.83,1.14,1.44,1.25,2.17.23,1.45-2.67,2.04-6.01,1.99l-8.98-.12-72.07-.03c-.75,0-1.4-.27-1.46-.7-.04-.33-.15-.99.23-1.62,8.02-13.16,22.36-21.95,38.01-22.26,13.44-.26,25.56,5.73,34.69,15.58,5.48-1.61,10.66-1.91,15.85-.76Z"/>
      <path class="cls-18" d="M253.32,199.83l.22,15.49,7.61.4-4.99,14.3-13,34.53-4.83,3.03-7.17-4.48,4.84-12.06.08-47.78,15.13-3.69c.78-.19,1.53.06,2.1.26Z"/>
      <path class="cls-18" d="M397.96,202.58l.13,45.55,4.34,9.56c-.22.41-.1,1.42.13,1.83-2.62-.95-5.47-1.66-8.11-.05l-3.35,2.02-10.74-28.41-6.36-17.11,2.77-.6c1.14-.25,3.84.92,4.62-.44.93-1.62.22-3.97.24-5.42l.08-6.91.12-2.95c5.55-.1,10.77,2.6,16.13,2.94Z"/>
      <path class="cls-17" d="M518.98,178.56v-16.62c4.6-.23,8.91.87,12.38,4.59,2.56-1.93,4.78-3.6,7.61-4.68,8.37-3.19,17.35-.02,21.45,7.83,6.5-1.59,12.8,1.91,14.14,8.52l-55.58.37Z"/>
      <path class="cls-16" d="M518.97,161.93v16.62s0,44.56,0,44.56l-8.79.11.08-51.74.1-43.15-18.1-.07-75.63-.05-.11,61.82c0,1.3,1.25,1.46,2.01,1.19l.08,48.78-.2,14.21c0,.59-1.39.74-1.7.53-.25-1.16-1.67-1.14-2.96-1.18l-2.08-.08c-.49-.02-1.14.42-1.08,1.25l-1.78.03-.17-132.57-6.83,1.4c-.05-.61.05-1.32.5-1.89l10.3-13.16,99.68.02,6.48,13.51.2,39.87Z"/>
      <path class="cls-9" d="M408.81,254.75h-1.1c-.77-.02-2.51-.19-3.43.25-.81.39-1.28,1.74-1.85,2.7l-4.34-9.56-.13-45.55.46-74.63c.01-1.79,2.02-4.09,3.38-4.37l6.83-1.4.17,132.57Z"/>
      <path class="cls-12" d="M492.19,130.65l14.27.15-.11,42.5-.17,49.82-15.79.02c.79-7.29-.44-14.26-1.13-21.67-.52-5.56-1.67-10.93-3.82-16.01-1.36-3.22-4.11-5.28-6.99-6.45l-5.49-2.22c-1.23-.5-2.49-1.16-3.89-1.21l-.43-3.08,3.64-6c1.13-1.86,3.21-3.38,1.97-5.91-.54-1.1-1.08-2.3-.85-3.49,1.02,0,3.6.52,3.39-1.34l-2.19-2.75c-.18-4.31-2.32-7.95-6.2-9.79-1.67,2.22-1.68,4.59-2.22,7.29l-.45-8.96c-1.75-.79-4.05-.86-5.78-.06l-.86,5.5-1.18-3.73c-3.53,1.05-6.07,4.52-6.51,8.14-.24,2.02-1.08,3.07-2.48,4.52-.17,1.59,2.29,1.28,3.33,1.27.68,1.4-.35,2.6-.83,3.77-1.04,2.54.99,4.22,2.35,5.8,1.51,1.76,1.96,4.51,3.87,5.68-.54,1.34-.56,2.65-1.44,3.68-1.25,0-2.64.18-3.41,1.28-1.67-.4-2.98.72-4.35,1.19-4.2,1.45-7.79,4.32-9.09,8.88l-3.34,11.71c.76,7.71-4.19,13.08,2.35,21.41,1.53,1.94,2.58,4.42,4.83,5.45l-1.32,14.33c-2.42-1.56-4.75-.24-7.24-.26l-15.99-.12-.08-48.78v-60.59s73.65.02,73.65.02Z"/>
      <path class="cls-3" d="M510.26,171.49l-.08,51.74-4.01-.11.17-49.82c1.75.27,2.02-2.18,3.91-1.81Z"/>
      <path class="cls-8" d="M441.86,240.38l-1.2,14.27c-2.01-.02-3.05-.06-4.2,1.88l-7.11.07c-.77,0-.82.83-.65,1.22l-4.17.09c-1.91.04-3.54-.7-5.6-1.03l-3.02-.48.81-1.66c.32.21,1.7.05,1.7-.53l.2-14.21,15.99.12c2.49.02,4.82-1.29,7.24.26Z"/>
      <path class="cls-3" d="M492.27,128.26l-.07,2.38-73.64-.02v60.59c-.77.28-2.02.12-2.02-1.19l.11-61.82,75.63.05Z"/>
      <path class="cls-9" d="M510.26,171.49c-1.9-.37-2.16,2.08-3.91,1.81l.11-42.5-14.27-.15.07-2.38,18.1.07-.1,43.15Z"/>
      <path class="cls-4" d="M416.72,254.74l-.81,1.66c-1.91-.3-4.11.15-5.31-1.68-.06-.83.58-1.26,1.08-1.25l2.08.08c1.29.05,2.71.02,2.96,1.18Z"/>
      <path class="cls-9" d="M478.46,179.02c-.77.41-.89,1.1-.93,2.06l-.52,12.41,3.45,13.91c-.67.11-.99.95-.9,1.79l1.31,14-24.29.23,14.52,19.21-.31,133.76-6.06.21c-.32,1.34-.41,2.61-1.16,3.55l-8.48-16.24c-.82-1.57-1.21-2.71-1.17-4.25l.37-14.85-.02-12.66.5-32.52.08-11.55.12-6.53.16-16.05.08-10.68-14.57-.15,1.2-14.27,1.32-14.33c.38-4.11,1.88-8.07,1.55-12.64-.54-2.17-.63-4.76.36-7.02,3.12-7.11,4.65-14.46,3.37-22.33-.3-1.87-.3-3.77-.03-5.46,1.37-.47,2.68-1.59,4.35-1.19l.99,13.56,18.13-.04,1.06-14.13,5.49,2.22Z"/>
      <path class="cls-11" d="M490.4,223.14l-8.77-.13-.4-9.32-.76-6.29-3.45-13.91.52-12.41c.04-.95.15-1.65.93-2.06,2.88,1.16,5.63,3.22,6.99,6.45,2.15,5.08,3.3,10.45,3.82,16.01.69,7.41,1.92,14.38,1.13,21.67Z"/>
      <path class="cls-16" d="M481.63,223.01l-.75.18-1.31-14c-.08-.84.23-1.68.9-1.79l.76,6.29.4,9.32Z"/>
      <path class="cls-11" d="M448.43,178.6c-.27,1.69-.27,3.58.03,5.46,1.27,7.87-.25,15.22-3.37,22.33-.99,2.25-.89,4.85-.36,7.02.33,4.58-1.17,8.53-1.55,12.64-2.25-1.03-3.31-3.5-4.83-5.45-6.54-8.32-1.59-13.7-2.35-21.41l3.34-11.71c1.3-4.57,4.89-7.43,9.09-8.88Z"/>
      <path class="cls-11" d="M472.96,176.8l-1.06,14.13-18.13.04-.99-13.56c.77-1.1,2.16-1.27,3.41-1.28.59,3,3.38,5.33,6.39,5.33,3.37,0,6.94-2.65,6.49-5.87,1.41.05,2.66.71,3.89,1.21Z"/>
      <path class="cls-11" d="M473.4,157.12c-.23,1.18.31,2.39.85,3.49,1.24,2.53-.84,4.04-1.97,5.91l-3.64,6c-4.11,1.42-6.54,2.68-11.01-.06-1.9-1.17-2.35-3.92-3.87-5.68-1.36-1.58-3.38-3.26-2.35-5.8.48-1.17,1.52-2.37.83-3.77l21.14-.1Z"/>
      <path class="cls-4" d="M473.4,157.12l-21.14.1c-1.05,0-3.51.32-3.33-1.27,1.4-1.45,2.23-2.5,2.48-4.52.44-3.62,2.98-7.09,6.51-8.14l1.18,3.73.86-5.5c1.73-.8,4.03-.73,5.78.06l.45,8.96c.54-2.7.55-5.07,2.22-7.29,3.87,1.84,6.01,5.48,6.2,9.79l2.19,2.75c.21,1.86-2.37,1.33-3.39,1.34Z"/>
      <path class="cls-4" d="M468.64,172.52l.43,3.08c.45,3.21-3.12,5.86-6.49,5.87-3.01,0-5.79-2.33-6.39-5.33.88-1.03.9-2.34,1.44-3.68,4.46,2.74,6.9,1.48,11.01.06Z"/>
      <path class="cls-16" d="M233.15,117.63c-2.49-.79-5.27-3.43-8.15-5.71l-.13,130.84c-.55,0-1.25-.12-1.77.04-.25-1.39-1.42-1.64-2.73-1.59-1.11.04-2.29.43-2.15,1.83-1.08-.01-2.19.13-3.56-.31l-.11-57.53c.25.19.71.46,1.01.43.67-.05,1.2-.62,1.2-1.67l-.08-66.42h-99.11s.13,84.47.13,84.47l4.15,1.15.02,13.8-12.83-.12-.24-77.83.04-26.85,15.23-13.14c.8-.69,2.1-.71,3.64-.71l94.13.1,9.97,15.66c.74,1.17,1.41,2.26,1.35,3.55Z"/>
      <path class="cls-9" d="M233.15,117.63c1.12.48,2.78,2.67,2.78,4.25l.16,81.38-.08,47.78-4.84,12.06-2,3.71c-1.15-.12-1.97.28-3.17.7l-.31-10.3c-.01-.47-.15-1.28-.03-1.75.61-2.38.4-4.82.39-7.26v-2.45c0-.54.22-1.19.05-1.75-.08-.26-.44-.53-.65-.72l-.58-.51.13-130.84c2.88,2.27,5.66,4.92,8.15,5.71Z"/>
      <path class="cls-12" d="M214.54,185.21l.11,57.53c1.37.44,2.48.3,3.56.31,1.64.02,3.28.25,4.89-.24.52-.16,1.23-.04,1.77-.04l.58.51c.12.32.36.58.65.72.16.56-.06,1.21-.06,1.75l-10.87.04-19.29-.1-13.77.09-.04-2.99,6.93-.04c.47-6.99-2.82-17.94-1.95-19.28.27-.42,1.12-.73,2.1-.97l-1.17-12.88c1.95-1.45,4.77-3.14,4.7-6.02-.19-7.66,5.19-16.93,3.58-23.06-1.75-6.66-4.18-13.28-7.46-19.32-2.7-4.96-13.18-4.6-12.68-8.37.49-2.43,2.14-4.97,4-6.75,1.67-1.6.06-3.27-.17-4.68-.46-2.81.14-5.19-1.97-7.37-3.37-3.48-9.21-3.65-12.66-.1-2.05,2.11-1.6,4.66-1.88,7.36-.12,1.13-1.05,2.18-.87,3.23.21,1.19,1.17,1.64,1.91,2.71,1.07,1.54,1.58,3.77,3.06,4.86.91,4.73-6.88,3.36-11.12,7.38-2.56,2.43-4.19,6.03-5.69,9.13s-3.47,4.33-5.45,6.68c-3.86,4.57-7.25,9.92-9.51,15.38-1.63,3.93-.56,9.01,2.52,11.36l4.02,2.08c3.99,2.06,8.9,1.25,11.69-1.35,3.45-3.2,4.53-7.97,2.36-12.11s-6.08-6.02-11.05-6.15c5.1-3.83,8.8-8.11,13.26-13.3l.1,20.01-2.84,25.75-33.96-.02-.02-13.8-.04-83.28h92.79s-.05,65.32-.05,65.32Z"/>
      <path class="cls-3" d="M214.54,185.21l.05-65.33h-92.79s.04,83.29.04,83.29l-4.15-1.15-.13-84.46h99.11s.08,66.42.08,66.42c0,1.05-.54,1.62-1.2,1.67-.3.02-.76-.24-1.01-.43Z"/>
      <path class="cls-9" d="M223.09,242.81c-1.61.49-3.25.26-4.89.24-.14-1.4,1.04-1.79,2.15-1.83,1.31-.05,2.49.2,2.73,1.59Z"/>
      <path class="cls-12" d="M225.68,257.21l.31,10.3c1.2-.43,2.02-.82,3.17-.7l-2.66,7.11c-.27.72-.48,1.58-.98,1.84-.55.29-1.14.19-1.71.08l-.19-6.65-6.82-.1.28,26.62c0,.19.08.44,0,.63-3.01-.18-6.18.69-8.81,2.42-2.29,1.5-3.61.2-5.31-1.18l-7.3-5.88c-3.03-2.43-5.76-5.06-9.16-6.95l-3.84,2.44-.06-12.03,17.96-.23-4.69-5.75c.08-.21.33-.55.76-.54l16.16.12c2.4.02,3.22-2.84,4.14-4.49,3.59-.98,1.93-3.31,5.89-5.51.87-.49,1.51-1.9,2.85-1.53Z"/>
      <path class="cls-18" d="M226.04,245.75v2.45c-1.71-.49-3.25.07-4.27,1.48-.93,1.29-.58,2.73.14,4.12s2.13,1.82,3.75,1.66c-.12.47.02,1.28.03,1.75-1.33-.37-1.97,1.04-2.85,1.53-3.96,2.21-2.3,4.53-5.89,5.51-.92,1.64-1.74,4.5-4.14,4.49l-16.16-.12c-.43,0-.68.33-.76.54l-.48-.5c.35-1.39,1.5-2.34,2.59-3.52l14.91-16.23c.97-1.06,1.96-1.91,2.27-3.12l10.87-.04Z"/>
      <path class="cls-12" d="M226.04,248.21c0,2.44.22,4.88-.39,7.26-1.62.17-3.03-.26-3.75-1.66s-1.06-2.82-.14-4.12c1.02-1.42,2.56-1.98,4.28-1.48Z"/>
      <path class="cls-18" d="M226.1,244c-.29-.14-.53-.4-.65-.72.21.18.57.46.65.72Z"/>
      <path class="cls-6" d="M215.17,245.8c-.31,1.21-1.3,2.06-2.27,3.12l-14.91,16.23c-1.09,1.19-2.25,2.14-2.59,3.52l-7.44-.24c-1.7-1.11-3.93-2.17-5.37-3.7-.91-1.18-.26-3.33-.28-4.41l13.56-14.63,19.29.1Z"/>
      <polygon class="cls-18" points="195.87 245.7 182.32 260.32 182.1 245.79 195.87 245.7"/>
      <path class="cls-4" d="M223.82,275.82c.04,1.23.28,3.2-.29,4.6l-6.44,15.27-.28-26.62,6.82.1.19,6.65Z"/>
      <polygon class="cls-3" points="187.96 268.43 195.4 268.67 195.88 269.17 200.58 274.92 182.61 275.15 182.69 268.55 187.96 268.43"/>
      <path class="cls-4" d="M176.12,152.86c-.5,3.77,9.98,3.41,12.68,8.37,3.28,6.04,5.71,12.66,7.46,19.32,1.61,6.13-3.77,15.4-3.58,23.06.07,2.88-2.75,4.57-4.7,6.02l1.17,12.88c-.99.23-1.83.54-2.1.97-.87,1.35,2.42,12.3,1.95,19.28l-6.93.04-.83-25.4c-2.81-.9-5.59-.2-8.55-.39-.23-2.3-.17-4.19-1.08-6.08l-.78,6.07h-15s2.84-25.75,2.84-25.75l-.1-20.01c-4.45,5.19-8.16,9.47-13.26,13.3,4.97.14,8.92,2.09,11.05,6.15s1.09,8.9-2.36,12.11c-2.8,2.6-7.7,3.41-11.69,1.35l-4.02-2.08c-3.08-2.35-4.14-7.43-2.52-11.36,2.26-5.46,5.65-10.81,9.51-15.38,1.99-2.35,4.02-3.71,5.45-6.68s3.13-6.71,5.69-9.13c4.24-4.02,12.03-2.64,11.12-7.38,3.66,1.97,5.63.61,8.59.74ZM189.22,196.27c-.07-5.16,1.13-10.16.22-14.82l-4-8.3-.08,17.44,1.15,8.55c1.02-.23,2.73-1.31,2.71-2.87ZM187.45,206.85c1.41-1.12,1.63-3.1.24-4.1-.81,1.41-.71,2.67-.24,4.1Z"/>
      <path class="cls-11" d="M176.12,152.86c-2.96-.13-4.93,1.23-8.59-.74-1.48-1.09-2-3.31-3.06-4.86-.74-1.07-1.7-1.53-1.91-2.71-.18-1.05.75-2.1.87-3.23.28-2.7-.17-5.26,1.88-7.36,3.45-3.55,9.3-3.38,12.66.1,2.11,2.18,1.51,4.56,1.97,7.37.23,1.41,1.84,3.07.17,4.68-1.86,1.79-3.51,4.32-4,6.75Z"/>
      <path class="cls-8" d="M189.22,196.27c.02,1.56-1.69,2.63-2.71,2.87l-1.15-8.55.08-17.44,4,8.3c.92,4.65-.29,9.66-.22,14.82Z"/>
      <path class="cls-8" d="M187.45,206.85c-.47-1.43-.57-2.69.24-4.1,1.38,1,1.17,2.97-.24,4.1Z"/>
      <path class="cls-1" d="M480.84,612.84l-91.91,5.15.21-11.3.42-6.73c3.04-4.74,5.67-9.83,6.7-15.3,2.33-.71,4.98-1.68,5.79-4.01l4.51-12.96c3.41-4.97,6.53-9.62,6.81-16.1l.51-11.88,3.24-15.32c1.24-5.87-.67-10.97-1.33-16.66l.64-12.23-2.98-9.12-9.86-63.4c.76-.47,1.19,1.55,1.72,1.57l18.13-.07,26.13,83.4,27.29,90.2,3.96,14.76Z"/>
      <path class="cls-18" d="M154.57,411.31l.49.58-10.37,19.5-34.59,64.8c.25.24-.53.88-.53,1.51l.41,106.88c-12.66-2.5-24.97-6.5-37.29-11.27-.96-.37-1.48-.66-1.54-1.59,11.12-4.44,19.44-14.76,20.97-27.33-14.95.19-27.54,9.5-33.71,22.29l-2.83-1.46c.75-6.64,1.95-13.11,4.66-19.48,21.17-8.54,35.15-29.99,31.52-52.68-1.91.16-3.61.42-4.83,1.04-1.75-2.83-3.29-5.71-4.04-8.87l21.11-45.51,20.98,1.85-21.9-37.12-36.36,19c-1.15.6-2.9.06-3.29,1.99l-15.16,8.3,20.18,2.3-23.91,35.18c-2.97-5.21-6.66-10.01-10.82-14.28l2.15-2.24-4.78-4.79-1.72-5.89c3.53-2.14,2.7-4.92,2.08-8.02l-1.31-6.51-1.17-7.45c-.34-2.13-1.56-5-.59-7.16,1.47-3.26,4.97-5.4,8.11-6.16,0,1.99-.62,4.69.43,6.77.86,1.7,4.05,1.54,5.42,1.04,1.23-.44,2.65-1.39,2.65-3.12l.08-28.69,23.76,1.52,39.56,2.64,46.16,2.42Z"/>
      <path class="cls-18" d="M597.3,374.71l1.16-.14c-.02,1.36,1.33,1.74,2.25,2.58,1.74,1.6,3.66,2.72,5.94,1.71l.14-1.8c1.08-.07,1.97.78,2.19,2.12,1.31.47,2.37.32,3.97.44-.43,1.99,1.25,3.79,1.26,5.46.01,2.55-.75,6.01-1.8,8.44l-3.23,4.51-6.85,8.09c.47.24,1.15.67,1.54,1.22l-5.8.47v33.29c-.01,1.35,1.41,2.53,2.17,3.04.16.11.45.1.61.12.59,1.66-.73,1.95-1.86,2.99-1.91,1.77-3.09,5.52-2.61,7.99l2.88,5.89c-7.05,5.8-13.01,12.78-17.79,20.52-1.32-1.38-2.02-3.9-3.48-4.92s-1.17-1.67-1.97-2.9l-9.16-14.19,20.1-1.9-54.17-29.73-22.54,35.55,21.4-1.2,22.66,49.22,16.11,36.74c.4.92.67,1.34,1.67,1.31-2.02,12.24-2.22,24.44-2.31,37.67-1.43-2.9-2.46-6.3-3.17-9.49,2.12-21.3-5.85-44.2-25.32-54.24-.77-.4-1.87-.48-2.38-.25-.36.16-.79.74-.9,1.48-3.47,22.36,6.7,41.86,26.36,53.07,1.82,5.37,3.55,10.48,4.14,16.56-5.87-9.35-14.42-18.32-25.56-18.78.06,10.44,5.05,19.53,13.58,24.78l-31.16,6.87.26-108.48c0-1.41-.58-1.8-.8-2.41l-1.2-3.24-15.92-30.25-23.86-44.45,79.16-3.85,29.48-1.07c1.39-.05,3.73-.15,4.43-1.35.75-1.28.28-3.09.33-4.43l-18.09.56,16.9-21.24c-.2-2.5-1.09-4.71-1.87-6.84,1.22-1.64,2.15-3.38,1.8-5.39l1.32-.15Z"/>
      <path class="cls-3" d="M204.38,422.66l-.23,2.12-16.92,50.32-42.95,124.2-3.44,11.13-6.61-1.08-.08-38.67-.53-73.21,65.84-142.53c.48-1.04.73-1.47,1.41-1.79.97.75.6,2.18.65,3.6l2.14,57.45.72,8.46Z"/>
      <path class="cls-3" d="M501.74,497.5l-.45,113.17-6.44.85-3.47-11.8-60.35-176.65,3.2-70c1.1.36,1.24.99,1.65,1.9l25.39,55.6,40.47,86.93Z"/>
      <path class="cls-1" d="M214.72,425.58l-8.31,32.67-7.12,33.06c-1.29,6-.67,12,1.68,17.38,1.58,5.87,4.95,11.06,8.33,16.56.83,7.81,4.15,14.5,9.72,20.11,6.25,5.14,3.15,14.13,13.16,16.81,1.83,3.2,2.83,6.95,5.41,9.59,1.43,1.47,3.82-.22,5.29-.37l-.59,8.16-.05,19.35-1.41,18.89-54.15-2.43-32.85-3.13c-.13-1.3.09-2.03.55-3.51l57.13-182.98c1.38-.39,2.2-.25,3.2-.16Z"/>
      <path class="cls-18" d="M369.63,283.38l11.59,38.69,19.5,65.51,7.62,26.05,10.73.15,9.13.19,2.82,9.08,60.35,176.65,3.47,11.8-14.02,1.33-3.96-14.76-27.29-90.2-26.13-83.4-18.13.07c-.53-.02-.96-2.05-1.72-1.57l-4.38-20.63c-1.23-5.81-3.72-11.15-7.27-15.92l-4.35-18.75-21.46-77.74-10.54-.45-1.13-6.62,15.16.52Z"/>
      <path class="cls-9" d="M133.61,497.48l.53,73.21.08,38.67-24.24-4.78-.41-106.88c0-.63.78-1.27.53-1.51l23.51,1.29Z"/>
      <path class="cls-9" d="M524.82,496.43c.23.61.81,1.01.8,2.41l-.26,108.48-24.08,3.34.45-113.17,23.08-1.07Z"/>
      <path class="cls-18" d="M216.88,413.82l.94-.06-3.1,11.82c-1-.09-1.83-.23-3.2.16l-57.13,182.98c-.46,1.48-.69,2.2-.55,3.51l-13-1.8,3.44-11.13,42.95-124.2,16.92-50.32.23-2.12,2.76-8.75,9.74-.09Z"/>
      <path class="cls-1" d="M36.57,409.47l-.1,5.4.03,13.85c-3.15.76-6.65,2.89-8.11,6.16-.97,2.16.25,5.04.59,7.16l1.17,7.45,1.31,6.51c.62,3.1,1.45,5.88-2.08,8.02l1.72,5.89,4.78,4.79-2.15,2.24c-4.25-4.37-14.8-12.49-17.2-11.07-.43.26-.73,1.19-.85,2.03-1.71,11.27-.79,22.57,2.35,33.31-.8-.15-1.34-.65-1.87-1.46l-3.94,3.57c-1.69,1.53-2.26,3.24-3.33,5.13-.72,1.29-2.37,2.16-2.68,3.94-.26,1.47-1.42,2.21-2.71,2.02-7.5-31.59-3.47-65.26,17.45-90.98,1.14-1.4,2.38-2.37,2.34-4,.88.16,1.55-.3,2.3-1.02l8.27-7.95c.82-.79,1.62-1.18,2.72-.97Z"/>
      <path class="cls-1" d="M631.31,524.04c-4.01-.19-2.81-6.58-7.72-6.64l-4.41-.14.93-3.95c.51-2.17.77-4.12.45-6.07-.67-4.11-3.41-7.73-6.27-11.05s-2.08-6.67-3.42-6.29l-1.92.43c3.31-10.08,4.9-20.85,3.32-31.54-.17-1.14-.69-2.19-1.41-2.68-1.53-1.05-8.84,2.77-11.59,5.03l-2.88-5.89c-.48-2.47.7-6.22,2.61-7.99,1.12-1.04,2.45-1.33,1.86-2.99,1.72.17,3.66.41,5.44-.71l.14-14.86c1.33-.2,1.53.65,2.36,1.7,20.7,26.1,30.02,61.34,22.52,93.64Z"/>
      <path class="cls-18" d="M18.02,501.2c1.7,5.81,4.15,11.58,7.23,16.76l-7.99,11.61c-2.75-.71-5.89-.83-8.9.07l-4.87-15.24c1.29.19,2.46-.55,2.71-2.02.31-1.78,1.96-2.66,2.68-3.94,1.06-1.9,1.64-3.6,3.33-5.13l3.94-3.57c.54.81,1.07,1.31,1.87,1.46Z"/>
      <path class="cls-18" d="M631.31,524.04c-1.97,8.49-5.02,16.76-9.03,24.52l-2.8-4.84-8.01-13.75c3.09-3.89,5.48-8.23,7.7-12.7l4.41.14c4.91.05,3.71,6.44,7.72,6.64Z"/>
      <path class="cls-4" d="M606.32,417.88l.16,2.35-.05,8.47-.14,14.86c-1.78,1.11-3.72.88-5.44.71-.16-.02-.45-.01-.61-.12l.23-5.52.03-20.15c2.02-.89,4.13-1.5,5.81-.6Z"/>
      <path class="cls-6" d="M71.81,370.31l-23.02,28.78-3.98-.07-8.32-.35-5.84-.23c-.35-2-1.55-4.49-.11-6.14l8.17-9.39,9.88-12.51c.75-.4,1.69-.59,2.84-.56l20.39.48Z"/>
      <path class="cls-18" d="M37.17,365.06c-.47,1.33-.5,2.8-.26,4.46l2.53-.31c2.87,1.13,6.33-.27,9.15,1.18l-9.88,12.51-8.17,9.39-1.53-8.32-.14-13.93c2.32-3.38,5.53-3.94,6.94-5.59.44.04.99.4,1.36.61Z"/>
      <path class="cls-11" d="M44.81,399.02l.28,5.71-.08,28.69c0,1.73-1.43,2.67-2.65,3.12l.04-25.85-.42-4.73c-1.43.53-3.16.93-4.16,1.96-1.59,1.64,1.46,7.12-1.34,6.95l.1-5.4-.08-10.8,8.32.35Z"/>
      <path class="cls-12" d="M35.81,364.45c-1.41,1.65-4.62,2.21-6.94,5.59l.14,13.93,1.53,8.32c-1.43,1.65-.24,4.14.11,6.14-1.21-.05-4.38.41-4.39-1.57l-.2-31.15c0-1.11.98-1.98,1.97-1.9l7.77.64Z"/>
      <path class="cls-4" d="M44.08,364.62c0,.61-.32,1.2-.97,1.7l-3.66,2.89-2.53.31c-.23-1.66-.21-3.13.26-4.46l6.91-.45Z"/>
      <path class="cls-3" d="M82.89,505.22l-2.47,4.5c-1.87-.42-2.62,1.27-4.11,2.04-1.32.69-4.43-.57-5.55-1.67-.55-.54-1.14-2.86-2.35-2.17-5.77,3.3-9.02.68-12.35,2.22-1.19.55-2.03,1.94-3.88,1.25-1.31-7.06-4.06-13.93-7.62-20.18l23.91-35.18-20.18-2.3,15.16-8.3c.38-1.93,2.13-1.39,3.29-1.99l36.36-19,21.9,37.12-20.98-1.85-21.11,45.51Z"/>
      <path class="cls-1" d="M199.62,351.06c.53.01,1.03.06,1.32.56.25.42-.02,1.19-.08,1.54-.68.32-.93.75-1.41,1.79l-65.84,142.53-23.51-1.29,34.59-64.8,10.37-19.5,4.03-7.59,9.34-17.55,3.16-5.83,12.07-23.49,3.81-6.79,12.15.41Z"/>
      <polygon class="cls-8" points="48.79 399.08 71.34 400.36 93.32 401.32 115.49 402.44 137.13 403.43 154.56 404.18 154.57 411.31 108.41 408.89 68.85 406.25 45.08 404.73 44.81 399.02 48.79 399.08"/>
      <path class="cls-4" d="M42.35,436.53c-1.36.49-4.56.66-5.42-1.04-1.04-2.08-.42-4.78-.43-6.77l-.03-13.85c2.8.17-.25-5.32,1.34-6.95,1-1.03,2.73-1.43,4.16-1.96l.42,4.73-.04,25.85Z"/>
      <path class="cls-1" d="M86.92,514.09c-4.37,2.24-8.25,5.16-12.13,8.17.4-1.3,1.09-3.03,1.74-4.4l3.89-8.14,2.47-4.5c.74,3.16,2.29,6.04,4.04,8.87Z"/>
      <polygon class="cls-4" points="159.09 404.3 155.06 411.89 154.57 411.31 154.56 404.18 159.09 404.3"/>
      <path class="cls-3" d="M581.48,481.67c-5.5,8.93-9.31,18.78-11.05,29.16-5.73.65-5.04-4.09-9.41-.34-1.76,1.52-4.51.83-6.71,1.11l-22.66-49.22-21.4,1.2,22.54-35.55,54.17,29.73-20.1,1.9,9.16,14.19c.8,1.23.52,1.9,1.97,2.9s2.16,3.54,3.48,4.92Z"/>
      <path class="cls-1" d="M435.88,350.82l12.19-.12,4.6,8.45c.25.46.98.59,1.27.51-.04,1.55.35,2.68,1.17,4.25l8.48,16.24,2.12,3.64,6.83,13.11c.44.85,1.13,1.02,1.78.71l.2,3.17,6.4,12.29c.32.61.78,1,1.23,1.2.17,1.5,1,2.9,1.71,4.22l23.86,44.45,15.92,30.25,1.2,3.24-23.08,1.07-40.47-86.93-25.39-55.6c-.42-.91-.55-1.53-1.65-1.9.63-.17.35-.99.36-1.37.01-.43.67-.89,1.29-.89Z"/>
      <path class="cls-16" d="M570.43,510.83c-1.8,10.75-1.49,22.01,1.06,32.85.54,2.31.95,3.84.6,5.96-1,.03-1.27-.39-1.67-1.31l-16.11-36.74c2.19-.29,4.94.41,6.71-1.11,4.36-3.76,3.67.99,9.41.34Z"/>
      <path class="cls-11" d="M603.87,407.35l2.55.3-.11,10.24c-1.68-.9-3.8-.29-5.81.6l-.03,20.15-.23,5.52c-.76-.51-2.18-1.69-2.18-3.04v-33.29s5.82-.47,5.82-.47Z"/>
      <path class="cls-9" d="M215.35,340.01l.32,32.28.61,35.95c.03,2.05.04,3.85.61,5.58l-9.74.09-2.76,8.75-.72-8.46-2.14-57.45c-.05-1.42.32-2.84-.65-3.6.06-.35.33-1.12.08-1.54-.3-.5-.79-.54-1.32-.56l-.18-10.01c-.01-.79.46-1.37.64-1.74l15.27.69Z"/>
      <path class="cls-9" d="M435.33,339.45l.55,11.37c-.62,0-1.28.46-1.29.89-.01.38.27,1.19-.36,1.37l-3.2,70-2.82-9.08-9.13-.19,1.04-73.87,15.22-.47Z"/>
      <path class="cls-18" d="M620.55,507.24c-1.86.2-4.11-.2-5.82.61-4.55,2.16-8.94,4.26-12.53,7.38-.83-1.61-1.46-3.11-3.08-4.23,4.27-6.28,7.44-13.39,9.82-20.65l1.92-.43c1.34-.38.61,3.03,3.42,6.29s5.6,6.94,6.27,11.05Z"/>
      <path class="cls-4" d="M608.94,490.34c-2.38,7.26-5.56,14.37-9.82,20.65l-14.49,21.33-10.1,15.11c-1.34,2-.99,5.33-1.23,7.51-1.3,11.94-1.68,23.81-1.22,36.33,1.93-4.55,2.53-9.17,3.57-13.99l2.7-12.47,3.04-11.82c3.86-15.02,9.33-27.8,20.81-37.78,3.59-3.12,7.97-5.21,12.53-7.38,1.71-.81,3.96-.4,5.82-.61.32,1.95.06,3.9-.45,6.07l-.93,3.95c-2.22,4.47-4.61,8.81-7.7,12.7l-13.15,13.09c-5.53,5.51-11.56,10.51-15.82,17.07-3.43,5.28-3.7,11.73-5.06,17.69,2.27-1.52,2.29-3.89,3.17-6.24,4.07-10.89,13.16-19.14,24.41-21.78,2.84-.67,5.62-.86,8.29.37-1.46,4.27-3.78,7.62-6.35,10.59-6.39,7.39-15.27,11.85-24.93,14.63-4.71,5-7.24,11.4-7.38,17.98,2.71-2.91,4.7-5.05,7.95-6.02,1.15-.16,2.41-.05,3.47.44-6.13,4.92-21.66,10.93-29.55,12.67-8.53-5.26-13.51-14.34-13.58-24.78,11.13.46,19.68,9.42,25.56,18.78-.59-6.08-2.33-11.19-4.14-16.56-19.66-11.2-29.83-30.71-26.36-53.07.11-.73.55-1.31.9-1.48.51-.24,1.61-.15,2.38.25,19.46,10.04,27.43,32.94,25.32,54.24.71,3.19,1.75,6.59,3.17,9.49.1-13.23.29-25.43,2.31-37.67.35-2.12-.06-3.65-.6-5.96-2.55-10.84-2.86-22.1-1.06-32.85s5.54-20.23,11.05-29.16c4.77-7.75,10.74-14.72,17.79-20.52,2.74-2.26,10.06-6.08,11.59-5.03.72.5,1.24,1.54,1.41,2.68,1.59,10.69-.01,21.46-3.32,31.54Z"/>
      <path class="cls-8" d="M622.28,548.56c-3.17,6.13-6.53,12.27-11.12,17.45.86-3.55-3.27-2.03-4.19-5.25,2.57-2.97,4.89-6.32,6.35-10.59-2.67-1.23-5.45-1.04-8.29-.37-11.25,2.64-20.34,10.89-24.41,21.78-.88,2.35-.9,4.72-3.17,6.24,1.36-5.96,1.64-12.41,5.06-17.69,4.26-6.56,10.28-11.57,15.82-17.07l13.15-13.09,8.01,13.75,2.8,4.84Z"/>
      <path class="cls-18" d="M606.97,560.75c.92,3.22,5.05,1.7,4.19,5.25l-6.24,7.04c-5.41,6.11-11.72,11.3-18.84,14.74-1.05-.49-2.32-.6-3.47-.44-3.25.96-5.24,3.1-7.95,6.02.14-6.58,2.67-12.98,7.38-17.98,9.66-2.78,18.54-7.24,24.93-14.63Z"/>
      <path class="cls-16" d="M599.12,510.99c1.62,1.12,2.25,2.62,3.08,4.23-11.48,9.97-16.96,22.76-20.81,37.78l-3.04,11.82c-.79-.23-1.2-.6-1.47-1.27l-3.59-8.61c.24-2.18-.11-5.51,1.23-7.51l10.1-15.11,14.49-21.33Z"/>
      <path class="cls-18" d="M578.36,564.82l-2.7,12.47c-1.05,4.82-1.65,9.44-3.57,13.99-.46-12.53-.08-24.39,1.22-36.33l3.59,8.61c.27.67.68,1.03,1.47,1.27Z"/>
      <path class="cls-16" d="M80.42,509.72l-3.89,8.14c-.65,1.37-1.34,3.1-1.74,4.4-7.85,7.84-13.25,17.29-15.85,28.1-.75.13-1.34.62-1.73,1.45l-2.69,5.8c-.43.93-1.14,1.28-2.03,1.17l-2.81-16.43c3.26-10.09,4.38-20.63,2.47-30.95,1.86.68,2.69-.7,3.88-1.25,3.33-1.54,6.59,1.08,12.35-2.22,1.21-.69,1.8,1.62,2.35,2.17,1.12,1.11,4.23,2.36,5.55,1.67,1.49-.78,2.25-2.46,4.11-2.04Z"/>
      <path class="cls-4" d="M33.73,476.93c4.16,4.27,7.85,9.07,10.82,14.28,3.56,6.26,6.31,13.12,7.62,20.18,1.91,10.32.78,20.86-2.47,30.95l2.81,16.43,2.27,19.24,2.81-12.81c.27-5.19.21-10.03,1.36-14.85,2.59-10.82,8-20.26,15.85-28.1,3.89-3.01,7.76-5.93,12.13-8.17,1.22-.63,2.92-.88,4.83-1.04,3.63,22.68-10.35,44.14-31.52,52.68-2.71,6.37-3.91,12.84-4.66,19.48-.8-.41-2.36-.55-2.85-1.74.29-4.67-2.48-8.79-4.49-12.97-1.51-3.12-3.11-3.93-6.37-4.59-7.36-1.48-13.37-6.21-19.52-10.05-4.08-6.11-8.14-12.17-11.11-19.3l-2.88-6.91c3.01-.9,6.15-.78,8.9-.07,5.56,1.43,10.45,4.37,15.01,8.21,7.41,6.23,11.88,14.44,14.76,23.38l.68,4.59,4.28,7.64-1.53-14.73-3.12-16.77c-8.79-6.94-16.5-14.53-22.09-23.94-3.08-5.18-5.54-10.95-7.23-16.76-3.13-10.73-4.06-22.04-2.35-33.31.13-.85.42-1.78.85-2.03,2.4-1.42,12.95,6.71,17.2,11.07Z"/>
      <path class="cls-4" d="M71.15,591.71c-3.83.36-9.03-3.12-12.74-5.05,6.17-12.79,18.76-22.09,33.71-22.29-1.53,12.57-9.85,22.89-20.97,27.33Z"/>
      <path class="cls-18" d="M52.73,583.46l-.84-.14c.01-1.09-.49-2.12-1.52-2.74-.84-.5-2.04-.94-3.08-.16-9.9-6.39-18.46-14.86-24.95-24.58,6.15,3.84,12.16,8.57,19.52,10.05,3.25.65,4.86,1.47,6.37,4.59,2.02,4.18,4.78,8.29,4.49,12.97Z"/>
      <path class="cls-9" d="M51.89,583.32c-1.84-.3-3.13-1.95-4.6-2.9,1.04-.78,2.24-.34,3.08.16,1.03.62,1.53,1.65,1.52,2.74Z"/>
      <path class="cls-16" d="M50.46,558.66c-.94.98-1.22,2.05-2.06,4.13-.71-.38-.98-1.15-1.38-1.63-2.88-8.94-7.35-17.15-14.76-23.38-4.56-3.83-9.45-6.77-15.01-8.21l7.99-11.61c5.59,9.4,13.3,17,22.09,23.94l3.12,16.77Z"/>
      <path class="cls-18" d="M58.94,550.36c-1.16,4.82-1.09,9.66-1.36,14.85l-2.81,12.81-2.27-19.24c.89.11,1.59-.23,2.03-1.17l2.69-5.8c.39-.83.97-1.32,1.73-1.45Z"/>
      <path class="cls-12" d="M47.03,561.16c.4.48.67,1.25,1.38,1.63.84-2.09,1.11-3.15,2.06-4.13l1.53,14.73-4.28-7.64-.68-4.59Z"/>
      <path class="cls-3" d="M380.36,233.09l10.74,28.41,29.01,78.42-1.04,73.87-10.73-.15-7.62-26.05-19.5-65.51-11.59-38.69-3-9.09c-3.03-.85-5.77.86-7.28-1.21.52-2.66-.13-5.1-3.24-6.96,2.08-1.78,3.12-3.71,2.39-6.06-1.12-3.62-4.25-3.12-7.6-4.06,1.42-2.92,1.71-6.6-.79-8.35l5.45-5.76,11.82,9.39c1.96,1.55,2.95,3.31,4.4,5.76l.02-11.26c2.3.52.07-4.91,2.4-10.56,2.89-.39,4.24-2.33,6.16-2.13Z"/>
      <path class="cls-1" d="M391.95,386.42c-5.21-7-15.66-13.76-23.65-15.53-1.68-1.03-1.78-2.54-1.91-4.01-.25-2.81-3.49-4.35-5.26-6.06-1.49-5.72-4.77-9.93-10.41-12.02-5.25-1.95-10.7-3.44-16.13-3.97v-3.54c3.56,0,5.97.48,10.13-.1,3.05-.42,3.86-2.78,4.83-5.55,2.03-5.78,4.52-11.18,5.41-17.33.75-5.18,1.01-10.16-.41-15.22-1.71-6.14,1.67-9.99,1.04-13.62l10.54.45,21.46,77.74,4.35,18.75Z"/>
      <path class="cls-16" d="M359.35,273.08c1.5,2.07,4.25.37,7.28,1.21l3,9.09-15.16-.52-.93-5.66c2.82,0,4.29-1.84,5.81-4.12Z"/>
      <path class="cls-3" d="M262.89,231.51c-.36.94-.62,2.16.5,2.84l-.4,20.18c1.52-.47,1.94-1.5,3.13-2.4l4.12,5.12c-.39,1.42.07,2.86.19,4.72-1.77.84-3.67,1.86-3.99,3.81-.5,3.02,1.51,5.17,3.64,7.41-2.78,1.36-4.71,3.05-5.58,4.93-1.27,2.74-1.21,5.55.5,7.71-1.3,1.02-.93,2.75-1.35,4.21l-9.21,31.59-15.29,51.5c-3.84,2.43-6.73,6.02-9.24,9.75-3.56,5.27-6.31,11.13-8.18,17.53l-3.9,13.36-.94.06c-.57-1.73-.57-3.53-.61-5.58l-.61-35.95-.32-32.28,27.82-75.46,13-34.53,6.73,1.5Z"/>
      <path class="cls-18" d="M408.81,254.75l1.78-.03c1.19,1.82,3.4,1.37,5.31,1.68l3.02.48c2.06.33,3.69,1.07,5.6,1.03.17,1.36-.73,2.45-1.97,3.31-1.8,2.03-4.07,3.46-4.82,5.91-3.33,1.53-5.29,4.71-8.05,7.03-1.41-.65-1.68-2.15-2.23-3.52l-2.26-5.59.63-6.69c1.9-.53,2.33-2.05,1.89-3.62h1.1Z"/>
      <path class="cls-6" d="M282.3,210.45c-.13.98-.81,1.67-1.62,2.51l-17.79,18.55-.69-15.56.04-5.38,20.06-.12Z"/>
      <polygon class="cls-9" points="262.89 231.51 256.17 230.01 261.16 215.71 262.2 215.95 262.89 231.51"/>
      <path class="cls-1" d="M243.17,264.54l-27.82,75.46-15.27-.69,12.86-32.78,4.16-10.21c.08-.19,0-.44,0-.63l6.44-15.27c.57-1.4.32-3.37.29-4.6.57.12,1.15.21,1.71-.08.5-.26.71-1.12.98-1.84l2.66-7.11,2-3.71,7.17,4.48,4.83-3.03Z"/>
      <path class="cls-16" d="M407.71,254.74c.44,1.58,0,3.09-1.89,3.62l-.63,6.69-2.63-5.52c-.23-.41-.35-1.42-.13-1.83.57-.96,1.04-2.31,1.85-2.7.91-.43,2.65-.26,3.43-.26Z"/>
      <path class="cls-1" d="M402.56,259.53l2.63,5.52,2.26,5.59c.55,1.36.82,2.86,2.23,3.52-.9.76-.25,1.9.24,2.94l1.95,4.2,6.51,15.04,16.96,43.1-15.22.47-29.01-78.42,3.35-2.02c2.64-1.61,5.49-.89,8.11.05Z"/>
      <path class="cls-4" d="M374,215.98l6.36,17.11c-1.92-.2-3.27,1.74-6.16,2.13-2.33,5.65-.1,11.08-2.4,10.56l-.12-11.34c1.03,0,2.14.27,3.21-.49-1.89-2.55-2.22-5.16-2.28-7.82l-.23-10.14h1.62Z"/>
      <path class="cls-18" d="M142.49,372.93l-3.53-.07-23.47,29.58-22.17-1.12,23.2-29.27,4.62-3.94,20.25.63c.5.44-.18,2.02-.48,2.5.46.51,1.55.96,1.58,1.68Z"/>
      <polygon class="cls-6" points="142.49 372.93 160.79 373.38 156.18 379.88 137.13 403.43 115.49 402.44 138.96 372.85 142.49 372.93"/>
      <path class="cls-6" d="M116.52,372.05l-23.2,29.27-21.98-.96c-.14-1.04.57-1.73,1.36-2.69l21.49-26.49,22.33.87Z"/>
      <path class="cls-18" d="M94.19,371.18l-21.49,26.49c-.79.96-1.5,1.66-1.36,2.69l-22.55-1.28,23.02-28.78,22.38.88Z"/>
      <polygon class="cls-18" points="168.43 386.76 159.09 404.3 154.56 404.18 137.13 403.43 156.18 379.88 160.79 373.38 167.76 373.89 168.43 386.76"/>
      <path class="cls-12" d="M212.93,306.54l-12.86,32.78c-.18.37-.65.95-.64,1.74l.18,10.01-12.15-.41,5.44-10.4-9.91-.91.04-7.12c.98-.15,1.13-1.02,1.52-1.96l10.3-25.03,18.07,1.3Z"/>
      <polygon class="cls-3" points="187.47 350.66 183.66 357.44 183.01 339.34 192.91 340.25 187.47 350.66"/>
      <path class="cls-12" d="M439.44,281.15c.17.21.13.41.09.46l-4.86,6.66,20.19-.2-.08,11.55-3.5-1.46c-.96-.42-2.11.73-2.22,1.41-.12.76.24,1.73.93,2.79l-19.49,15.62c5.93,1.3,11.44,0,17.14.44l5.23,12.93c.25.62.97.83,1.4.79l.02,12.66-8.28.63,2.05,5.26-12.19.12-.55-11.37-16.96-43.1-.07-14.74,1.91-.4,19.23-.06Z"/>
      <path class="cls-3" d="M454.3,344.8l-.37,14.85c-.29.08-1.02-.05-1.27-.51l-4.6-8.45-2.05-5.26,8.28-.63Z"/>
      <path class="cls-1" d="M270.63,302.33c.7,1.77,2.61,2.96,5.2,2.35l-.21,4.1c-.13,2.55,2.97,3.51,5.77,2.72-.32,1.89-.43,2.96.23,4.26.37.73,2.35.39,3.13.97,3.23,2.41,5.59,6.42,6.79,10.32.66,2.14.32,4.35.1,6.24l-.96,8.71-6.05-.62c-4.57-.47-8.83-1.02-13.06-.52-6.55.78-8.93,5-9.24,12.11l-5.43,3.44c-3.13,1.98-5.2,5.7-4.64,9.28l-3.85,1.56c-.54-1.4-.26-2.62.18-4.17l11.61-41.14,6.58-22.58c2.44.6,2.44,2.72,3.85,2.94Z"/>
      <path class="cls-18" d="M267.31,291.28c-1.09.47-1.8,1.95-1.37,3.3.67.23,1.6.74,1.54,1.27l-.19,2.09-.51,1.44-6.58,22.58-11.61,41.14c-.44,1.55-.72,2.77-.18,4.17l-9.26,5.85,15.29-51.5,9.21-31.59c.43-1.46.05-3.18,1.35-4.21.84,1.06,2.55,1.58,4.26,2.1l-1.94,3.35Z"/>
      <path class="cls-18" d="M440.66,254.66l14.57.15-.08,10.68-15.7,15.66-19.23.06,21.74-23.34-13.26-.05c-.17-.38-.12-1.21.65-1.22l7.11-.07c1.16-1.94,2.19-1.91,4.2-1.88Z"/>
      <path class="cls-3" d="M454.79,299.62l-.5,32.52c-.43.04-1.15-.16-1.4-.79l-5.23-12.93c-5.7-.44-11.2.86-17.14-.44l19.49-15.62c-.7-1.05-1.05-2.02-.93-2.79.11-.69,1.26-1.83,2.22-1.41l3.5,1.46Z"/>
      <path class="cls-6" d="M454.98,281.54l-15.45.08c.04-.05.08-.25-.09-.46l15.7-15.66-.16,16.05Z"/>
      <polygon class="cls-3" points="454.98 281.54 454.86 288.07 434.68 288.27 439.53 281.61 454.98 281.54"/>
      <path class="cls-8" d="M365.23,234.43h6.45s.12,11.35.12,11.35l-.02,11.26c-1.45-2.45-2.44-4.21-4.4-5.76l-11.82-9.39-5.45,5.76c-2.39-1.67-5.58-1.61-8.66-1.43-.02-2.65-.79-4.68-2.07-6.72,2.07.25,2.26-3.63,1.73-4.97l4.16-.48,19.95.37Z"/>
      <path class="cls-18" d="M304.1,210.41l-21.36,23.54-19.35.41c-1.12-.68-.86-1.9-.5-2.84l17.79-18.55c.81-.85,1.49-1.54,1.62-2.51l21.8-.04Z"/>
      <path class="cls-16" d="M282.74,233.94c.61.57,1.45.72,2.63.71l6.14-.02c-.05,1.62-.47,3.26.48,4.55-1.47,1.45-2.68,3.44-2.47,6.32-3.78-1.9-7.71-1.75-10.33,1.28-1.73,2-.92,4.08-.1,6.31.77,2.08-5.72.42-8.85,4.17l-4.12-5.12c-1.19.9-1.61,1.93-3.13,2.4l.4-20.18,19.35-.41Z"/>
      <path class="cls-6" d="M428.7,257.82l13.26.05-21.74,23.34-1.91.4.1-.26-.08-12.21c0-.88-.15-1.53-.59-2.01.75-2.45,3.02-3.88,4.82-5.91,1.23-.86,2.13-1.95,1.97-3.31l4.17-.09Z"/>
      <path class="cls-3" d="M417.74,267.13c.44.48.58,1.13.59,2.01l.08,12.21c-2.11.32-4.29.35-6.54-.04l-1.95-4.2c-.48-1.04-1.14-2.19-.24-2.94,2.76-2.31,4.73-5.49,8.05-7.03Z"/>
      <path class="cls-18" d="M346.04,210.37c-1.12,1.99-2.78,3.52-4.46,5.32l-17.09,18.3c-2.76-.29-5.48.58-8.56.4l-1.97-.12c-.36-.02-.62.7-.38,1.28-1.67-1.92-4.7-.97-7.08-1.12-.99-.06-1.94-.45-3.14-.39l20.99-23.46,21.68-.2Z"/>
      <path class="cls-6" d="M324.36,210.57l-20.99,23.46-11.86.6-6.14.02c-1.18,0-2.02-.14-2.63-.71l21.36-23.54,20.26.17Z"/>
      <path class="cls-6" d="M366.85,210.45l-12.14,12.94-9.44,10.67-4.16.48-16.66-.05.05-.5,17.09-18.3c1.68-1.8,3.34-3.33,4.46-5.32l20.81.08Z"/>
      <path class="cls-18" d="M372.32,213.47l.07,2.51.23,10.14-7.39,8.31-19.95-.37,9.44-10.67,12.14-12.94,5.1-.22c.57,1.05.34,2.2.37,3.24Z"/>
      <path class="cls-3" d="M217.1,296.32l-4.16,10.21-18.07-1.3-10.3,25.03c-.39.95-.54,1.81-1.52,1.96l-.38-45.04,3.84-2.44c3.4,1.88,6.13,4.51,9.16,6.95l7.3,5.88c1.71,1.38,3.03,2.68,5.31,1.18,2.64-1.73,5.8-2.6,8.81-2.42Z"/>
      <path class="cls-4" d="M418.4,281.35l-.1.26.07,14.74-6.51-15.04c2.25.39,4.43.36,6.54.04Z"/>
      <path class="cls-6" d="M371.68,234.44h-6.45s7.39-8.32,7.39-8.32c.06,2.67.39,5.27,2.28,7.82-1.07.76-2.18.49-3.21.49Z"/>
      <path class="cls-12" d="M153.21,284.83v41.9s-.08,42.12-.08,42.12l4.45.46,5.85.11,2.38-.52,5.53.36.25,11.67-3.16,5.83-.67-12.87-6.98-.51-18.3-.45c-.02-.71-1.12-1.17-1.58-1.68.3-.48.98-2.06.48-2.5l-20.25-.63-4.62,3.94-22.33-.87-22.38-.88-20.39-.48c-1.15-.03-2.09.16-2.84.56-2.81-1.45-6.27-.06-9.15-1.18l3.66-2.89c.65-.5.97-1.09.97-1.7.44-.03.94.07,1.37.12l6.31.82c-.04,1.48-1.27,1.77-2.53,2.45,1.34,1.26,3.73,1.17,4.75.12.57-.59.39-2.14.96-2.37.51-.2,1.63-.27,2.6-.23v-30.38s-.07-44.39-.07-44.39v-46.94s95.78.03,95.78.03l-.04,40.96ZM97.33,288.23c.56,2.42-1,3.7-1.89,5.51-1.02,2.09-.05,5.12.82,7.43l8.66,23.18-.22,42.61c.49.41,1.59.37,1.95,0l-.2-42.25c-.03-6.72,8.17-23.06,7.09-29.64-.19-1.14-.53-2.23-1.72-2.38l-.48-3.16c-.25-1.64,2.3-3.23,3.78-7.14,2.39-2.11,5.16-5.16,2.87-8.47-.64-.92-1.43-1.08-1.1-2.79.54-2.81.61-6.33-.94-8.92-3.21-5.33-9.54-7.12-15.4-5.69-6.31,1.53-10.15,7.37-8.68,13.85.48,2.13-.67,2.74-1.4,4.02-1.84,3.23.86,6.17,3.13,7.87,1.56,1.54,1.82,4.82,3.72,5.97ZM88.74,297.66c-2.12-.44-3.85.81-5.71,1.85-5.31,2.99-8.56,7.62-9.87,13.68-2.91,13.44-4.85,27.06-4.13,40.93,1.3,2.46,5.9,2.7,7.77,1.77l-2.73-1.96c-1.77-1.27-2.8-2.69-2.78-5.09.11-12.61,1.58-25.05,4.47-37.28,1.58-6.72,6.26-10.22,12.48-12.22-1.37,5.14-.97,10.09-1.31,15.32-1.64,1.42-3.68,3.16-4.22,5.48-1.17,4.99-2.07,10.65,1.03,11.89,1.05.42,2.37.44,2.98-.48.45-.69.01-1.55-.38-1.6l-2.14-.25c-1.16-5.43.81-13.1,4.75-12.76,3.58.31,5.37,7.42,4.68,12.71-1.16-.35-2.92.35-2.72,1.24.41,1.81,2.58,1.45,3.65.87,2.55-1.4,1.29-6.8.39-11.29-.6-3.04-3.54-4.35-5.11-6.1-1.26-6.88-.37-14.95,4-20.59-2.81-.1-3.88,2.05-5.09,3.89ZM119.83,323.74c-1.39-.6-2.62.89-3.24,1.84-.87,1.35-.83,2.87-.01,4.44,1.05,2.01,3.09,3.09,5.26,2.72,1.93-.33,3.52-1.88,3.83-4.01.29-1.97-.61-4.87-3.18-4.93l-.72-18.06c-.12-4.83-2.7-12.68-7.21-11.89,6.6,7.6,5.4,19.88,5.26,29.88ZM134.27,356.38c2.04.95,5.79.2,5.84-1.49.38-14.55-1.42-28.68-4.48-42.71-1.69-7.75-6.98-12.4-14.74-14.46.48,1.98,2.2,2.61,3.62,3.25,5.57,2.52,8.56,6.82,9.77,12.67,2.41,11.67,3.6,23.44,3.32,35.38-.07,3.16-1.13,5.63-3.33,7.36ZM118.49,313.03c.77-.87-.51-2.68-1.22-3.08.75-1.28,1.55-1.44,1.58-3.53-1.66.53-2.8.73-4.25,1.86.74.9,2.64,2.72,2.05,3.73-2.37,4.07-6.29,6.94-7.35,11.44l9.18-10.42ZM110.5,331.53c0-.9-.73-1.63-1.63-1.63s-1.63.73-1.63,1.63.73,1.63,1.63,1.63,1.63-.73,1.63-1.63ZM110.93,346c0-.96-.78-1.74-1.74-1.74s-1.74.78-1.74,1.74.78,1.74,1.74,1.74,1.74-.78,1.74-1.74ZM111.09,357.84c0-.95-.77-1.72-1.72-1.72s-1.72.77-1.72,1.72.77,1.72,1.72,1.72,1.72-.77,1.72-1.72Z"/>
      <path class="cls-16" d="M165.48,235.39l.32,133.5-2.38.52c.15-.33.13-.99-.16-1.24-.78-.69-2.96-.9-4.56-.54-.61.14-1.21.8-1.14,1.67l-4.45-.46.08-42.12,3.22-.76.03-41.77v-42.78s-6.12.11-6.12.11l-96.52-.22.07,50.07.02,45.79c1.67-.61,2.34-2.01,3.63-2.02v30.38c-.96-.04-2.07.02-2.59.23-.56.22-.39,1.78-.96,2.37-1.02,1.05-3.41,1.14-4.75-.12,1.26-.68,2.49-.97,2.53-2.45l-6.31-.82.18-129.73c1.46.53,2.68.56,4.26-.02l110.62.22c2.06,0,3.45-.22,4.98.19Z"/>
      <path class="cls-8" d="M181.24,217.4c-1.14.68-1.99,1.51-2.79,2.48l-12.96,15.52c-1.52-.41-2.92-.19-4.98-.19l-110.62-.22c-1.58.58-2.8.55-4.26.02l13.23-18.13,50.17-.02,12.83.12,33.96.02h15s.78-6.06.78-6.06c.91,1.88.85,3.78,1.08,6.08,2.96.19,5.75-.51,8.55.39Z"/>
      <path class="cls-9" d="M182.07,242.8l.04,2.99.21,14.54c.02,1.08-.64,3.23.28,4.41,1.44,1.52,3.67,2.58,5.37,3.7l-5.28.12-.07,6.6.06,12.03.38,45.04-.04,7.12.66,18.1-12.07,23.49-.25-11.67-5.53-.36-.32-133.5,12.96-15.52c.8-.96,1.65-1.8,2.79-2.48l.83,25.4Z"/>
      <path class="cls-9" d="M156.45,284.2c-1.1-.2-2.22-.05-3.24.63l.04-40.96-95.78-.03v46.94c-1.18.32-2.34.67-3.59.62l-.07-50.07,96.52.22,6.11-.11v42.78Z"/>
      <path class="cls-3" d="M57.47,290.77l.06,44.39c-1.3.02-1.96,1.41-3.63,2.02l-.02-45.79c1.26.05,2.41-.3,3.59-.62Z"/>
      <path class="cls-3" d="M156.45,284.2l-.03,41.77-3.22.76v-41.9c1.02-.68,2.14-.83,3.24-.63Z"/>
      <path class="cls-4" d="M163.43,369.41l-5.85-.11c-.07-.87.53-1.53,1.14-1.67,1.6-.37,3.78-.15,4.56.54.28.25.31.91.16,1.24Z"/>
      <path class="cls-11" d="M111.36,289.53c-4.09.49-6.25,3.43-11.52.23l-2.51-1.52c-1.9-1.15-2.15-4.43-3.72-5.97-2.27-1.7-4.96-4.64-3.13-7.87.73-1.28,1.88-1.89,1.4-4.02-1.47-6.48,2.37-12.31,8.68-13.85,5.86-1.42,12.19.36,15.4,5.69,1.56,2.59,1.49,6.11.94,8.92-.33,1.71.46,1.86,1.1,2.79,2.3,3.31-.48,6.35-2.87,8.47-1.47,3.9-4.03,5.49-3.78,7.14Z"/>
      <path class="cls-11" d="M106.47,324.71l-1.54-.36-8.66-23.18c-.86-2.31-1.84-5.34-.82-7.43.42,0,1-.04,1.44.96,1.22,2.74,4.31,6.91,7.83,6.75,4.46-.2,7.66-5.15,7.12-8.76,1.18.16,1.53,1.24,1.72,2.38,1.08,6.58-7.12,22.92-7.09,29.64Z"/>
      <path class="cls-11" d="M88.23,299.34c.12-.43.22-1.25.51-1.68,1.21-1.84,2.28-3.99,5.09-3.89-4.36,5.64-5.25,13.71-4,20.59,1.57,1.75,4.5,3.06,5.11,6.1.89,4.5,2.16,9.89-.39,11.29-1.07.59-3.24.95-3.65-.87-.2-.89,1.56-1.59,2.72-1.24.69-5.29-1.09-12.4-4.68-12.71-3.94-.34-5.9,7.33-4.75,12.76l2.14.25c.39.05.83.91.38,1.6-.61.93-1.92.9-2.98.48-3.1-1.24-2.2-6.9-1.03-11.89.54-2.31,2.58-4.06,4.22-5.48.35-5.23-.05-10.18,1.31-15.32Z"/>
      <path class="cls-16" d="M88.74,297.66c-.28.43-.39,1.25-.51,1.68-6.22,2-10.89,5.5-12.48,12.22-2.88,12.23-4.35,24.67-4.47,37.28-.02,2.4,1.01,3.82,2.78,5.09l2.73,1.96c-1.88.93-6.48.69-7.77-1.77-.72-13.86,1.22-27.49,4.13-40.93,1.31-6.06,4.56-10.69,9.87-13.68,1.86-1.05,3.59-2.29,5.71-1.85Z"/>
      <path class="cls-3" d="M134.27,356.38c2.2-1.73,3.25-4.2,3.33-7.36.28-11.93-.91-23.71-3.32-35.38-1.21-5.85-4.2-10.15-9.77-12.67-1.41-.64-3.14-1.27-3.62-3.25,7.75,2.05,13.05,6.71,14.74,14.46,3.06,14.02,4.86,28.15,4.48,42.71-.04,1.69-3.8,2.44-5.84,1.49Z"/>
      <path class="cls-4" d="M111.36,289.53l.48,3.16c.54,3.61-2.66,8.56-7.12,8.76-3.52.16-6.61-4-7.83-6.75-.44-1-1.02-.96-1.44-.96.89-1.81,2.44-3.09,1.89-5.51l2.51,1.52c5.27,3.2,7.44.27,11.52-.23Z"/>
      <path class="cls-11" d="M122.49,323.8c-.9-.02-1.61.39-2.66-.07.13-10,1.34-22.29-5.26-29.88,4.5-.8,7.08,7.05,7.21,11.89l.72,18.06Z"/>
      <path class="cls-3" d="M106.47,324.71l.2,42.25c-.37.38-1.46.42-1.95,0l.22-42.61,1.54.36Z"/>
      <path class="cls-9" d="M119.83,323.74c1.05.45,1.76.05,2.66.07,2.57.05,3.47,2.95,3.18,4.93-.31,2.13-1.9,3.69-3.83,4.01-2.17.37-4.21-.72-5.26-2.72-.82-1.57-.85-3.09.01-4.44.61-.95,1.84-2.44,3.24-1.84ZM122.92,328.02c0-1.08-.87-1.95-1.95-1.95s-1.95.87-1.95,1.95.87,1.95,1.95,1.95,1.95-.87,1.95-1.95Z"/>
      <path class="cls-3" d="M118.49,313.03l-9.18,10.42c1.06-4.5,4.98-7.37,7.35-11.44.59-1.01-1.31-2.83-2.05-3.73,1.45-1.13,2.6-1.33,4.25-1.86-.03,2.09-.83,2.25-1.58,3.53.71.4,1.99,2.21,1.22,3.08Z"/>
      <circle class="cls-9" cx="109.19" cy="346" r="1.74"/>
      <circle class="cls-9" cx="109.36" cy="357.84" r="1.72"/>
      <circle class="cls-9" cx="108.87" cy="331.53" r="1.63"/>
      <circle class="cls-8" cx="120.97" cy="328.02" r="1.95"/>
      <path class="cls-10" d="M616.45,406.03l-.38-31.12c-.47-1.25-3.25-.94-4.4-.85l-5.79.45-7.41.06-1.16.14.11-119.39c.82-.14,1.33.24,2.1.81,23.37,17.48,36.02,46.22,36.54,75.44.46,25.63-6.08,50.48-17.7,73.07-.51.99-1.17,1.26-1.9,1.39Z"/>
      <path class="cls-12" d="M616.45,406.03c0,.77-.33,1-.52,1.55l-9.5.06-2.55-.3c-.39-.55-1.07-.98-1.54-1.22l6.85-8.09,3.23-4.51c1.05-2.43,1.81-5.89,1.8-8.44,0-1.67-1.69-3.48-1.26-5.46-1.61-.11-2.66.03-3.97-.44-.22-1.35-1.11-2.19-2.19-2.12-.6-.65-.75-1.59-.91-2.55l5.79-.45c1.15-.09,3.93-.4,4.4.85l.38,31.12Z"/>
      <path class="cls-8" d="M483.85,418.49c-.71-1.32-1.55-2.72-1.71-4.22-.09-.83-.11-1.71.25-2.76l5.02-.3,23.59-.67,22.57-.72,22.98-.74,22.6-.73,18.09-.56c-.05,1.34.42,3.15-.33,4.43-.7,1.19-3.04,1.3-4.43,1.35l-29.48,1.07-79.16,3.85Z"/>
      <path class="cls-6" d="M594.19,380.26c.78,2.13,1.67,4.34,1.87,6.84l-16.9,21.24-22.6.73,23.51-29.5,11.84-.13c.78,0,2.06.2,2.28.81Z"/>
      <path class="cls-3" d="M605.88,374.51c.16.97.31,1.9.91,2.55l-.14,1.8c-2.28,1.01-4.19-.11-5.94-1.71-.91-.84-2.27-1.22-2.25-2.58l7.41-.06Z"/>
      <path class="cls-18" d="M474.27,379.56c1.51.36,3.24-.12,4.66-.28.16.63.55,1.65,1.92,1.66l7.82.1-12,15.14c-.72.89-1.31,1.47-2.35,1.42-.65.31-1.34.14-1.78-.71l-6.83-13.11c1.11-.34,1.24-1.97,1.72-2.53l4.27-1.48,1.78,1.09c.37.23.94-.72.78-1.31Z"/>
      <path class="cls-18" d="M526.97,380.08l7.91-.11-23.36,28.93c-.48.59-.57,1.16-.53,1.63l-23.59.67,24.1-30.64,11.21-.18,4.25-.3Z"/>
      <path class="cls-6" d="M557.01,379.85l-23.45,29.96-22.57.72c-.04-.46.05-1.04.53-1.63l23.36-28.93,22.13-.12Z"/>
      <polygon class="cls-18" points="580.06 379.58 556.55 409.07 533.57 409.81 557.01 379.85 580.06 379.58"/>
      <path class="cls-6" d="M511.51,380.56l-24.1,30.64-5.02.3c-.37,1.05-.35,1.93-.25,2.76-.45-.2-.91-.58-1.23-1.2l-6.4-12.29-.2-3.17c1.04.05,1.63-.53,2.35-1.42l12-15.14,22.84-.49Z"/>
      <path class="cls-16" d="M597.41,255.32l-.11,119.39-1.32.15-10.92.21.08-47.18c1.23-.16,2.25.44,3.84.77v-40.31s-.01-39.01-.01-39.01c-.49-.67-1.33-.75-1.93-.75l-107.36.02v70.69c.01.97,2.36,1.45,2.65,1.42l-.07,55.2c-.02.81-2.15.5-2.78.49l-7.04-.09c.13,1.71,1.28,2.3,1.83,3.24.15.6-.41,1.54-.78,1.31l-1.78-1.09-4.27,1.48c-.48.56-.62,2.18-1.72,2.53l-2.12-3.64c.75-.94.84-2.21,1.16-3.55l6.06-.21.31-133.76c1.39-.22,2.69-.16,4.43-.16l72.87.05,45.85-.13c1,0,1.63-.33,2.12-1.01.47.68,1.08,1.3,1.08,2.57l-.05,11.36Z"/>
      <path class="cls-8" d="M480.88,223.19l.75-.18,8.77.13,15.79-.02,4.01.11,8.79-.11,59.13.02,5.8.08,12.48,18.17c-.49.68-1.12,1.01-2.12,1.01l-45.85.13-72.87-.05c-1.73,0-3.04-.06-4.43.16l-14.52-19.21,24.29-.23Z"/>
      <path class="cls-12" d="M585.24,251.13l-.06,34.3-.03,42.47-.08,47.18,10.92-.21c.35,2.01-.58,3.75-1.8,5.39-.22-.6-1.51-.82-2.28-.81l-11.84.13-23.04.28-22.13.12-7.91.11c.07-.74.22-1.63.57-2.25.89-1.57,4.19.33,3.67-2.11l6.04-.05c.39,4.36,6.03-1.27,11.52,1.35.9.43,1.27,1.74,2.61,1.57,1.21-.15,1.97-.9,3.28-1.64.75-.43,2.73-.15,2.4-1.77l1.71.07c0,.46.22.95.53,1.12.41.24,1.22.24,1.57-.27l1.42-2.02c2.42,1.86,7.98,1.83,11.81.69.63-9.1.06-17.99-1.35-27.01.9-1.76.73-3.42.31-5.22l-3.64-15.58c-1.02-4.35-3.73-8.35-7.78-10.19l-13.62-6.2-2.86-1.82-.33-3.32c2.24-1.82,3.63-4.98,4.43-8.13,3.68-1.44,5.05-5.47,3.9-9.21-1.38-.73-1.99-2.04-1.72-3.47,1.02-.34,1.55-1.96,1.49-2.88-.08-1.18.12-2.37.29-3.4,3.28-1.35,7.13-3.86,6.91-5.83-.08-.75-.62-1.44-1.57-1.85l-19.24-8.33c-1.39-.6-2.8-.71-4.21-.09l-19.96,8.81c-1.29.57-1.16,2.82-.1,3.52l6.36,4.18c0,.89.09,2.05.22,2.96-1.16,1.67,1.11,1.9,1.35,3.77,0,.89-.9,1.92-1.35,2.63-2.56,4.07.88,7.14,3,9.63s2.49,5.97,5.05,7.84l-.18,3.26c-.93.04-1.63,1.1-2.6,1.53l-12.02,5.38c-3.74,1.67-6.81,4.41-8.38,8.43-2.7,6.9-4.9,14.17-5.3,21.69l.48,4.4c-1.5,8.65-1.73,17.24-.96,25.88l4.73.07c.06.11.23.55.5.68.34.16.63-.45.77-.63l4.7-.14c.48,2.05,4.68.19,7.88,1.12,1.35.39,2.66,2.18,3.43,3.12l-11.21.18-22.84.49-7.82-.1c-1.37-.02-1.75-1.03-1.92-1.66.47-.9.64-1.87.55-2.87.64,0,2.76.33,2.78-.49l.07-55.2-.06-69.76,102.95.16Z"/>
      <path class="cls-3" d="M587.04,248.59c0,1.3-.74,2.22-1.81,2.53l-102.95-.16.06,69.76c-.29.03-2.63-.46-2.63-1.42v-70.69s107.34-.02,107.34-.02Z"/>
      <path class="cls-3" d="M588.97,288.35v40.31c-1.57-.33-2.59-.93-3.83-.77l.03-42.47c1.9.11,1.3,2.88,3.79,2.93Z"/>
      <path class="cls-9" d="M588.97,288.35c-2.49-.05-1.89-2.82-3.79-2.93l.06-34.3c1.07-.32,1.82-1.23,1.81-2.53.6,0,1.43.08,1.93.75v39.01Z"/>
      <path class="cls-4" d="M479.48,376.42c.09,1-.08,1.97-.55,2.87-1.42.16-3.15.64-4.66.28-.55-.94-1.7-1.53-1.83-3.24l7.04.09Z"/>
      <path class="cls-8" d="M531.22,375.72c.51,2.44-2.78.54-3.67,2.11-.35.62-.5,1.5-.57,2.25l-4.25.3c-.78-.94-2.08-2.73-3.43-3.12-3.2-.93-7.4.93-7.88-1.12,1.76-.05,3.43-.08,5.47-.12l14.33-.29Z"/>
      <path class="cls-8" d="M557.06,375.17c.33,1.62-1.65,1.35-2.4,1.77-1.31.75-2.07,1.49-3.28,1.64-1.34.17-1.71-1.14-2.61-1.57-5.48-2.62-11.13,3.01-11.52-1.35l19.8-.5Z"/>
      <path class="cls-11" d="M529.5,308.85c-.03,1.5,1.03,3.03,2.02,4.43l5.69,8.01,6.67-9.55c.68-.98,1.24-1.95,1.28-2.99l2.86,1.82,13.62,6.2c4.05,1.84,6.77,5.84,7.78,10.19l3.64,15.58c.42,1.8.59,3.46-.31,5.22,1.41,9.02,1.98,17.92,1.35,27.01-3.83,1.14-9.39,1.17-11.81-.69.67-.95.91-2.16.79-3.55l-1.33-15.03c-.15-1.71.73-3.42-.47-5.24-1.38,1.71-.27,3.52-.29,5.21l-.18,18.73c0,.9-1.64,1.21-2.04,1.04l-1.71-.07-19.8.5-6.04.05-14.33.29c-2.04.04-3.72.07-5.47.12l-4.7.14c-.4-.24-.89-.24-1.27-.05l-4.73-.07c-.76-8.63-.54-17.23.96-25.88l-.48-4.4c.4-7.52,2.6-14.79,5.3-21.69,1.58-4.02,4.65-6.76,8.38-8.43l12.02-5.38c.97-.43,1.67-1.49,2.6-1.53ZM551.24,342.73c1.52.09,4.67-2.02,4.8-3.54l.66-7.6-5.07-1.05-5.54.93c1,2.64.5,4.66.66,7.36.09,1.62,2.67,3.78,4.49,3.89Z"/>
      <path class="cls-11" d="M551.44,284.62c-.27,1.43.33,2.74,1.72,3.47,1.14,3.73-.22,7.77-3.9,9.21-.8,3.14-2.18,6.31-4.43,8.13-4.58,3.72-10.52,3.52-15.15.16-2.56-1.86-2.97-5.4-5.05-7.84s-5.56-5.56-3-9.63c.45-.71,1.36-1.74,1.35-2.63.69-.83,2.2-.25,3.21.18,6.65,2.79,14.04,2.73,20.82.45l4.44-1.49Z"/>
      <path class="cls-11" d="M553.22,278.34c-4.58-1.14-9.04-3-13.73-2.36,1.13-1.97,2.32-4.44,1.19-6.6-.43-.83-2.53-1.87-3.44-1.87-1.55,0-2.68,1.23-4.07,1.83-.36,2.17.03,4.29,1.26,6.29-4.3.71-8.8,1.45-13.02,3.14l-6.36-4.18c-1.06-.69-1.18-2.95.1-3.52l19.96-8.81c1.42-.62,2.83-.51,4.21.09l19.24,8.33c.95.41,1.48,1.09,1.57,1.85.22,1.96-3.63,4.48-6.91,5.83Z"/>
      <path class="cls-5" d="M552.93,281.74c.06.92-.46,2.54-1.49,2.88l-4.44,1.49c-6.78,2.28-14.17,2.34-20.82-.45-1.01-.42-2.52-1.01-3.21-.18-.24-1.86-2.51-2.1-1.35-3.77,10.22-2.93,21.05-2.84,31.31.02Z"/>
      <path class="cls-4" d="M544.83,305.43l.33,3.32c-.04,1.04-.6,2.01-1.28,2.99l-6.67,9.55-5.69-8.01c-.99-1.4-2.05-2.92-2.02-4.43l.18-3.26c4.63,3.36,10.57,3.56,15.15-.16Z"/>
      <path class="cls-4" d="M539.49,275.98c4.69-.63,9.16,1.22,13.73,2.36-.16,1.03-.37,2.22-.29,3.4-10.26-2.86-21.09-2.95-31.31-.02-.13-.91-.23-2.06-.22-2.96,4.22-1.69,8.72-2.43,13.02-3.14l5.06.35Z"/>
      <path class="cls-8" d="M562.3,374.08l-1.42,2.02c-.36.5-1.17.51-1.57.27-.3-.17-.53-.67-.53-1.12.41.17,2.04-.14,2.04-1.04l.18-18.73c.02-1.7-1.09-3.5.29-5.21,1.2,1.82.32,3.53.47,5.24l1.33,15.03c.12,1.39-.12,2.6-.79,3.55Z"/>
      <path class="cls-8" d="M506.72,376.28c-.13.18-.42.8-.77.63-.27-.13-.45-.58-.5-.68.38-.19.87-.19,1.27.05Z"/>
      <path class="cls-3" d="M551.24,342.73c-1.82-.11-4.4-2.27-4.49-3.89-.16-2.7.34-4.72-.66-7.36l5.54-.93,5.07,1.05-.66,7.6c-.13,1.51-3.28,3.63-4.8,3.54Z"/>
      <path class="cls-3" d="M539.49,275.98l-5.06-.35c-1.23-2-1.61-4.12-1.26-6.29,1.39-.59,2.51-1.82,4.07-1.83.91,0,3.01,1.04,3.44,1.87,1.13,2.17-.06,4.63-1.19,6.6Z"/>
      <path class="cls-4" d="M377.69,589.34c-.07.73.25,1.2.5,1.74l6.66,13.93c1.95-1.72,3.6-3.31,4.71-5.04l-.42,6.73-.21,11.3-86.77.95-3.04-6.78c8.93,2.34,18.88,5.66,27.3,3.55-8.12-.82-15.16-2.29-22.58-4.57-4.84-1.49-9.8-2.13-14.37-.57l4.02.65-.37,7.66-52.29-1.08,1.41-18.89.05-19.35c.91.07,1.06-1.1,1.1-2.44l19.06,6.98,27.69,5.43c.5,5.8.6,11.05,3.5,15.61-.95-5.48-2.12-10.29-2.04-15.52l29.74,2.29c13.54,1.04,39.32-2.61,52.69-8.05l2.47,4.9c.25.49.86.62,1.16.59Z"/>
      <path class="cls-11" d="M302.16,618.94l-9.03-.07.37-7.66-4.02-.65c4.57-1.56,9.53-.92,14.37.57,7.42,2.29,14.45,3.76,22.58,4.57-8.42,2.11-18.36-1.21-27.3-3.55l3.04,6.78Z"/>
      <path class="cls-7" d="M391.95,386.42c3.55,4.77,6.04,10.11,7.27,15.92l4.38,20.63,9.86,63.4,2.98,9.12-.64,12.23c.66,5.7,2.57,10.79,1.33,16.66l-3.24,15.32-.51,11.88c-.28,6.48-3.4,11.13-6.81,16.1l-4.51,12.96c-.81,2.34-3.47,3.3-5.79,4.01-1.46.45-2.75.61-4.58.52-4.94-.24-11.44-2.66-13.49-7.39l-.42-13.79c-1.41-4.87-3.92-9.45-1.95-14.76,2.1.69,2.82,3.03,4.21,4.1,1.47,1.14,2.47,2.15,3.76,3.86.38.35,1.47-1.09,1.22-1.66l-.65-1.51c-3.18-7.4-9.85-18.28-6.54-24.12,5.35,5.38,13.06,7.49,15.42,2.47.9-1.92-7.22-2.59-11.68-6.84l-10.12-9.64c-3.2-3.05-4.67-6.58-4.55-11.16l.24-8.93-3.06-15.84-4.2-23.2-1.76-20.87-1.74,15.27c-3.67-6.81-3.99-14.28-6.35-21.8-1.97,11.98,2.85,22.51,6.16,33.13l1.62,21.26c.07.96-.79,2.3-.85,2.98,1.75,3.01,1.34,6.51-.23,9.58l-8.59,16.77-6.19-51.1c-1.62-13.35-6.21-31.67-15.77-40.93l15.65-25.89c4.7-7.77,20.17-25.67,26.47-24.28,7.99,1.76,18.44,8.53,23.65,15.53Z"/>
      <path class="cls-14" d="M252.26,365.71c2.81,18.08,14.37,31.01,33.36,33.27,10.56,1.26,20.37-1.84,29.57-7.07l22.5-15.82c7.81-5.49,15.02-12.02,24.85-8.33,1.2.45,2.4.37,3.1,1.92.1-1.64.09-2.32.75-2.8.13,1.47.23,2.98,1.91,4.01-6.3-1.39-21.77,16.51-26.47,24.28l-15.65,25.89c9.55,9.27,14.15,27.58,15.77,40.93l6.19,51.1,8.59-16.77c1.57-3.07,1.97-6.57.23-9.58.06-.68.92-2.02.85-2.98l-1.62-21.26c-3.32-10.62-8.13-21.15-6.16-33.13,2.36,7.52,2.68,14.99,6.35,21.8l1.74-15.27,1.76,20.87,4.2,23.2,3.06,15.84-.24,8.93c-.12,4.57,1.35,8.11,4.55,11.16l10.12,9.64c4.46,4.25,12.58,4.92,11.68,6.84-2.36,5.02-10.07,2.91-15.42-2.47-3.31,5.85,3.36,16.72,6.54,24.12l.65,1.51c.25.58-.84,2.01-1.22,1.66-1.29-1.71-2.29-2.72-3.76-3.86-1.39-1.07-2.11-3.42-4.21-4.1-1.97,5.31.54,9.89,1.95,14.76l.42,13.79c-1.16-.02-1.67.6-2.2.76l-5.4,1.6-1.41-13.98c-9.14,1.97-18.02,3.58-27.44,3.98l-15.52.64c-14.75,8.85-27.65,9.91-44.46,9.24-.9-.04-1.64.33-1.84,1.29l-17.97-3.41c-6.62-1.25-13.26-3.47-19.05-6.54-1.47.15-3.86,1.84-5.29.37-2.58-2.64-3.58-6.39-5.41-9.59-10.01-2.68-6.91-11.67-13.16-16.81-5.58-5.61-8.89-12.3-9.72-20.11-3.37-5.5-6.74-10.69-8.33-16.56,1.43-.15,2.33-1.03,3.26-2.27l11.94,8.78c1.32.97,2.51,1.94,4.46,1.66,1.79-6.05,4.71-11.07,7.65-17.25-4.82-.5-11.62,1.71-11.96,1.2-1.51-2.22,3.29-6.13,8.37-8.17,1.35-.54,4.12-1.65,4.03-3.34-.21-3.98-2.56-6.38-3.14-8.9,2.9.01,3.21-2.35,3.23-4.65l.26-26.65c-1.61-3.45-2.73-6.82-3.46-10.51-1.41-7.64-3.29-15.03-2.08-23.01,1.27,7.29,2.13,13.78,4.84,20.78,2.36-4.01-.52-9.79,1.2-13.59,1.35,2.26.31,4.33.51,6.48l1.56,16.58,3.9,34.97,5.23-29.6c3.32-13.23,8.46-26.23,19.54-34.41-4.94-13.16-8.73-25.95-11.24-39.23l-10.02,14.97c-.41.61-.72,1.7-1.35,1.88-.4.11-1.56-.48-1.89-.2-1.72,1.47-3.99,3.41-5.38,5.36-1.31,1.84-.31,4.44-1.22,6.68-1.8-1.24-.3-3.2-.33-4.53-.18-6.57.63-12.38,2.7-18.58-.73-.41-1.21-.18-1.67-.26,2.52-3.72,5.4-7.32,9.24-9.75l9.26-5.85,3.85-1.56ZM275.39,415.01c-3.66.11-7.33,1.16-10.7,2.64-8.85,3.88-16.07,15.96-19.16,25.16-3.25,9.71-4.97,19.45-6.37,29.61l-2.75,19.99c-3.62,2.3-4.49,8.64-3.96,13.3l-.19,1.86c-1.12,11.18-.93,22.44.32,33.65.72,6.44,4.39,11.15,10.46,13.11,19.4,6.25,45.5,8.23,66.25,8.48,3.99.05,7.59-.82,10.88-2.11l2.69-.37c4.45-1.93,8.06-4.58,11.91-7.35,6.19-4.46,9.69-10.91,8.94-18.95l-6.27-66.81-4.39-24.06c-2.39-13.09-10.4-23.6-24.06-25.88-.31-3.7-.91-7.14-2.72-10.9,2.68,1.01,2.01,3.67,3.75,5.74l9.23-16.11-14.07,6.62c.75,1.53,1.79,2.33.95,3.96-.92-1.06-1.82-3.41-3.28-3.73-7.73,2.32-15.38,1.38-23.08.38-2.72-.35-4.7-1.51-7.74-2.61.58,5.74,4.81,9.64,3.37,14.38ZM366.6,564.16c4.47-1.34,3.65-10.12,2.22-16.29l-2.03-8.77c-2.96-8.87-5.66-17.46-6.81-26.81-1.49,1.03-1.19,2.43-1.79,3.56l-8.89,17c.46,10.36-3.56,19.33-10.3,26.8l-10.61,9.27c13.13.45,25.65-.99,38.2-4.75Z"/>
      <path class="cls-7" d="M200.98,508.69c-2.35-5.37-2.98-11.37-1.68-17.38l7.12-33.06,8.31-32.67,3.1-11.82,3.9-13.36c1.87-6.41,4.62-12.26,8.18-17.53.46.08.94-.15,1.67.26-2.07,6.2-2.88,12.02-2.7,18.58.04,1.33-1.47,3.29.33,4.53.91-2.24-.09-4.84,1.22-6.68,1.39-1.95,3.66-3.89,5.38-5.36.32-.28,1.49.31,1.89.2.63-.18.94-1.27,1.35-1.88l10.02-14.97c2.51,13.28,6.3,26.07,11.24,39.23-11.08,8.18-16.22,21.18-19.54,34.41l-5.23,29.6-3.9-34.97-1.56-16.58c-.2-2.14.84-4.22-.51-6.48-1.72,3.8,1.16,9.57-1.2,13.59-2.71-7-3.57-13.49-4.84-20.78-1.21,7.97.66,15.37,2.08,23.01.73,3.7,1.85,7.06,3.46,10.51l-.26,26.65c-.02,2.29-.33,4.66-3.23,4.65.58,2.52,2.93,4.93,3.14,8.9.09,1.69-2.68,2.8-4.03,3.34-5.07,2.04-9.88,5.95-8.37,8.17.35.51,7.15-1.7,11.96-1.2-2.94,6.18-5.86,11.2-7.65,17.25-1.94.27-3.14-.69-4.46-1.66l-11.94-8.78c-.93,1.24-1.83,2.12-3.26,2.27ZM222.25,466.81c-1.96,4.77.24,12.53,2.71,11.43s.94-7.66-2.71-11.43Z"/>
      <path class="cls-11" d="M279.91,581.34c24.43,4.63,67.16,5.81,90.68-1.17l5.4-1.6c-.24,3.91,1.99,7.68,1.7,10.78-.3.03-.92-.11-1.16-.59l-2.47-4.9c-13.38,5.44-39.15,9.09-52.69,8.05l-29.74-2.29c-.08,5.23,1.09,10.04,2.04,15.52-2.9-4.57-3-9.81-3.5-15.61l-27.69-5.43-19.06-6.98c-.03,1.34-.19,2.51-1.1,2.44l.59-8.16c5.79,3.07,12.43,5.28,19.05,6.54l17.97,3.41Z"/>
      <path class="cls-7" d="M271.57,340.87c9.08,5.06,20.51,7.07,31.27,6.41l7.85-2.77c7.9-.95,15.96-.44,23.91.33,5.43.53,10.88,2.02,16.13,3.97,5.63,2.09,8.91,6.3,10.41,12.02,1.77,1.71,5.01,3.25,5.26,6.06-.66.47-.65,1.15-.75,2.8-.7-1.55-1.9-1.47-3.1-1.92-9.83-3.7-17.04,2.84-24.85,8.33l-22.5,15.82c-9.2,5.23-19.01,8.33-29.57,7.07-18.99-2.26-30.55-15.19-33.36-33.27-.56-3.58,1.51-7.3,4.64-9.28l5.43-3.44c.31-7.11,2.69-11.33,9.24-12.11ZM315.82,359.08l-16.72,2.36c-6.78.38-14.67.96-20.61-2.73-2.83-1.75-4.4-6.5-8.84-6.39-1.63.04-3.61,1.61-4.61,3.25,14.97,10.91,29.89,12.63,47.16,6.9l14.35-4.76c-4-.27-7.23.87-10.73,1.37Z"/>
      <path class="cls-7" d="M366.6,564.16c-12.56,3.76-25.08,5.19-38.2,4.75l10.61-9.27c6.75-7.47,10.76-16.44,10.3-26.8l8.89-17c.59-1.13.29-2.52,1.79-3.56,1.15,9.35,3.86,17.94,6.81,26.81l2.03,8.77c1.43,6.17,2.24,14.96-2.22,16.29Z"/>
      <path class="cls-7" d="M370.59,580.16c-23.52,6.99-66.25,5.8-90.68,1.17.2-.96.94-1.33,1.84-1.29,16.81.67,29.72-.39,44.46-9.24l15.52-.64c9.42-.39,18.31-2,27.44-3.98l1.41,13.98Z"/>
      <path class="cls-7" d="M308.99,417.28l-7.19-1.2c-.16-2.44-.5-6.94-3.52-8.13-3.93-1.54-9.45-1.64-13.41-.18-2.62.97-2.86,5-3.3,7.05l-6.18.19c1.44-4.75-2.79-8.65-3.37-14.38,3.04,1.1,5.02,2.26,7.74,2.61,7.7,1,15.35,1.94,23.08-.38,1.45.32,2.36,2.67,3.28,3.73.84-1.63-.2-2.44-.95-3.96l14.07-6.62-9.23,16.11c-1.73-2.07-1.07-4.73-3.75-5.74,1.81,3.76,2.41,7.2,2.72,10.9Z"/>
      <path class="cls-14" d="M222.25,466.81c3.65,3.77,5.22,10.31,2.71,11.43s-4.67-6.66-2.71-11.43Z"/>
      <path class="cls-14" d="M313.59,235.54l2.89,3.31c1.91-3.29,4.95-4.21,7.93-3.31,1.7,1.2,2.94,2.56,3.18,4.86.86-1.01,1.58-1.8,2.47-1.81.77,0,1.63.8,2.1,2.19,2.55-2.45,4.81-1.56,7.21-1.28,1.28,2.04,2.05,4.07,2.07,6.72,3.09-.18,6.27-.24,8.66,1.43s2.21,5.43.79,8.35c3.35.94,6.48.44,7.6,4.06.73,2.35-.31,4.28-2.39,6.06,3.1,1.86,3.75,4.3,3.24,6.96-1.53,2.28-2.99,4.12-5.81,4.12l-1.03,3.78-2.01.84c-1.35.57,2.11,4.02-2.66,9.09-4.74,5.03-1.02,12.48-4.6,13.1-2.55.44-2.08-7.36-7.06-5.68-2.74.93-3.32,3.69-4.68,5.5-.82,1.09-2.05,2.02-2.01,4.15.06,2.68-.22,5.68-1.84,7.88l-10.11,13.75c-1.53,2.08-5.86.21-7.68-1.34-1.93,1.47-3.58,2.78-5.93,3.24-2.64.51-4.25-1.88-5.71-3.11-1.73.85-3.6,2.75-5.9.72-.12,1.8.14,1.88.3,2.71.1.51.14,1.5-.97,1.46.22-1.89.57-4.11-.1-6.24-1.21-3.9-3.57-7.91-6.79-10.32-.78-.58-2.76-.25-3.13-.97-.66-1.3-.55-2.37-.23-4.26-2.79.78-5.9-.17-5.77-2.72l.21-4.1c-2.59.61-4.5-.58-5.2-2.35-.48-2.06.38-3.76,2.07-5.41-1.11-.93-1.89-.83-2.54-1.09-1.87-.74-3.27-2.41-2.86-4.55l1.94-3.35c-1.71-.53-3.42-1.05-4.26-2.1-1.71-2.15-1.78-4.97-.5-7.71.87-1.88,2.8-3.57,5.58-4.93-2.12-2.24-4.13-4.39-3.64-7.41.32-1.94,2.22-2.97,3.99-3.81-.12-1.86-.58-3.3-.19-4.72,3.13-3.75,9.62-2.09,8.85-4.17-.82-2.22-1.64-4.31.1-6.31,2.62-3.03,6.54-3.17,10.33-1.28-.2-2.88,1.01-4.87,2.47-6.32l1.77-.6c3.25-1.1,6.02-1.02,8.61,2.15.56-3.11,2.18-4.51,4.15-6.31,2.37.14,5.41-.8,7.08,1.12Z"/>
      <path class="cls-14" d="M290.68,342.01l5.48,1.05,14.53,1.46-7.85,2.77c-10.76.65-22.19-1.35-31.27-6.41,4.23-.5,8.49.05,13.06.52l6.05.62Z"/>
      <path class="cls-13" d="M389.56,599.97c-1.11,1.73-2.76,3.32-4.71,5.04l-6.66-13.93c2-1.21,1.55-4.32,2.49-5.14,1.21-1.04,4.94,2.41,10.09.93,1-.29,1.46-.97.91-1.68,1.84.09,3.12-.08,4.58-.52-1.03,5.47-3.65,10.56-6.7,15.3Z"/>
      <path class="cls-15" d="M378.19,577.8c2.06,4.73,8.55,7.15,13.49,7.39.55.71.09,1.4-.91,1.68-5.14,1.48-8.88-1.97-10.09-.93-.94.81-.49,3.93-2.49,5.14-.25-.53-.57-1.01-.5-1.74.29-3.09-1.94-6.87-1.7-10.78.53-.16,1.04-.78,2.2-.76Z"/>
      <path class="cls-13" d="M354.47,282.86l1.13,6.62c.62,3.64-2.76,7.49-1.04,13.62,1.42,5.07,1.16,10.04.41,15.22-.89,6.15-3.39,11.56-5.41,17.33-.97,2.76-1.78,5.12-4.83,5.55-3.66-2.36-7.76-4.37-10.66-8.45-.42,2.79.51,5.62.52,8.55v3.54c-7.93-.77-16-1.28-23.89-.33l-14.53-1.46-5.48-1.05.96-8.71c1.11.03,1.07-.95.97-1.46-.16-.82-.41-.91-.3-2.71,2.3,2.04,4.16.14,5.9-.72,1.46,1.23,3.07,3.62,5.71,3.11,2.34-.46,3.99-1.76,5.93-3.24,1.82,1.55,6.15,3.42,7.68,1.34l10.11-13.75c1.95.03,2.3,3.19,4.95,5.58,1.97,1.78,4.74,1.62,6.28-.66-2.43.03-3.58-1.09-4.41-3.01l-2.65-6.16-.33-7.77c1.36-1.81,1.94-4.57,4.68-5.5,4.98-1.68,4.52,6.11,7.06,5.68,3.59-.62-.14-8.07,4.6-13.1,4.78-5.07,1.31-8.52,2.66-9.09l2.01-.84,1.03-3.78.93,5.66ZM338.67,314.28c.27-2.62-1.38-4.27-.47-5.91,1.18-2.12,2.04-5.11-.27-6.61-.94-.61-2.61,1.73-1.82,2.38.45.37,1.65.56,1.71,1.31.05.57-.24,1.04-.68,1.65-1.68,2.37-1.49,6.29,1.52,7.17Z"/>
      <path class="cls-15" d="M344.72,341.21c-4.16.58-6.57.09-10.14.1-.01-2.93-.94-5.77-.52-8.55,2.89,4.09,6.99,6.1,10.66,8.45Z"/>
      <path class="cls-15" d="M327.65,315.87c1.61-2.2,1.9-5.2,1.84-7.88-.05-2.13,1.19-3.07,2.01-4.15l.33,7.77,2.65,6.16c.82,1.92,1.97,3.05,4.41,3.01-1.54,2.28-4.31,2.43-6.28.66-2.65-2.39-3-5.54-4.95-5.58Z"/>
      <path class="cls-15" d="M338.67,314.28c-3.01-.89-3.2-4.8-1.52-7.17.44-.62.72-1.08.68-1.65-.06-.75-1.26-.93-1.71-1.31-.79-.66.88-3,1.82-2.38,2.3,1.5,1.45,4.49.27,6.61-.91,1.63.74,3.29.47,5.91Z"/>
      <path class="cls-5" d="M275.39,415.01l6.18-.19,20.23,1.26,7.19,1.2c13.66,2.28,21.67,12.78,24.06,25.88-8.31,1.57-4.67,7.61-9.31,12.81-.97-1.09-.82-1.98-.38-3.56l-4.58,1.77c-3.5-15.56-16.52-19.78-31.47-20.98-13.2-1.06-32.91-3.03-38.72,8.21,4.49-3.14,8.7-5.2,14.02-5.54,12.71-.83,35.19-.16,44.68,6.31,4.37,2.98,7.13,7.82,8.51,12.97,2.56,9.52,4.22,18.81,4.87,28.8l4.15,63.36c.35,5.3-1.42,9.69-4.64,13.4-3.29,1.29-6.89,2.16-10.88,2.11-20.75-.25-46.85-2.23-66.25-8.48-6.08-1.96-9.74-6.67-10.46-13.11-1.25-11.2-1.44-22.46-.32-33.65,9.51,2.89,18.95,5,28.87,5.76l32.77,2.51,10.54-.37,1.36,32.41c.24,5.59-.33,11.1-6.41,13.4,8.26.82,15.47-4.53,14.97-12.75l-2.74-44.85c-.27-4.35-4.12-7.03-8.3-7.43l-58.77-5.57c-1.91-.18-3.96-.44-5.77.51l31.65,4.23,26.52,2.47c4.3.4,7.48,3.38,7.52,7.61l.07,7.7c-6.14.74-11.87.69-18.03-.01l-43.55-4.96-10.51-2.51c-.53-4.67.35-11.01,3.96-13.3l2.75-19.99c1.39-10.15,3.12-19.89,6.37-29.61,3.08-9.2,10.3-21.28,19.16-25.16,3.38-1.48,7.04-2.53,10.7-2.64Z"/>
      <path class="cls-7" d="M333.05,443.15l4.39,24.06,6.27,66.81c.75,8.04-2.75,14.5-8.94,18.95-3.84,2.77-7.46,5.42-11.91,7.35l-2.69.37c3.22-3.72,4.99-8.1,4.64-13.4l-4.15-63.36c-.65-9.98-2.31-19.27-4.87-28.8-1.39-5.15-4.15-9.99-8.51-12.97-9.49-6.48-31.96-7.14-44.68-6.31-5.32.35-9.53,2.4-14.02,5.54,5.81-11.24,25.53-9.26,38.72-8.21,14.96,1.2,27.98,5.42,31.47,20.98l4.58-1.77c-.43,1.58-.59,2.47.38,3.56,4.64-5.2,1-11.24,9.31-12.81Z"/>
      <path class="cls-7" d="M232.26,507.57l.19-1.86,10.51,2.51,43.55,4.96c6.15.7,11.89.75,18.03.01l-.07-7.7c-.04-4.23-3.22-7.21-7.52-7.61l-26.52-2.47-31.65-4.23c1.81-.95,3.86-.7,5.77-.51l58.77,5.57c4.18.4,8.04,3.08,8.3,7.43l2.74,44.85c.5,8.22-6.71,13.57-14.97,12.75,6.07-2.29,6.64-7.8,6.41-13.4l-1.36-32.41-10.54.37-32.77-2.51c-9.93-.76-19.36-2.88-28.87-5.76Z"/>
      <path class="cls-14" d="M301.8,416.08l-20.23-1.26c.44-2.05.67-6.08,3.3-7.05,3.96-1.46,9.48-1.36,13.41.18,3.02,1.18,3.35,5.69,3.52,8.13Z"/>
      <path class="cls-14" d="M315.82,359.08c3.51-.49,6.74-1.64,10.73-1.37l-14.35,4.76c-17.26,5.73-32.19,4.01-47.16-6.9,1-1.64,2.98-3.21,4.61-3.25,4.44-.11,6.01,4.63,8.84,6.39,5.94,3.68,13.83,3.11,20.61,2.73l16.72-2.36Z"/>
      <path class="cls-12" d="M270.17,295.84c.65.26,1.43.16,2.54,1.09-1.69,1.65-2.55,3.36-2.07,5.41-1.41-.22-1.41-2.34-3.85-2.94l.51-1.44,2.88-2.11Z"/>
      <path class="cls-1" d="M267.31,291.28c-.41,2.15.99,3.81,2.86,4.55l-2.88,2.11.19-2.09c.06-.54-.87-1.05-1.54-1.27-.42-1.35.28-2.83,1.37-3.3Z"/>
      <path class="cls-3" d="M341.11,234.54c.53,1.34.34,5.22-1.73,4.97-2.41-.29-4.66-1.18-7.21,1.28-.48-1.38-1.33-2.19-2.1-2.19-.89,0-1.61.8-2.47,1.81-.24-2.29-1.48-3.66-3.18-4.86l.03-1.06,16.66.05Z"/>
      <path class="cls-3" d="M306.51,234.43c-1.98,1.8-3.59,3.2-4.15,6.31-2.59-3.17-5.36-3.25-8.61-2.15l-1.77.6c-.95-1.28-.53-2.92-.48-4.55l11.86-.6c1.2-.06,2.16.33,3.14.39Z"/>
      <path class="cls-16" d="M324.5,233.99l-.05.5-.03,1.06c-2.98-.9-6.02.02-7.93,3.31l-2.89-3.31c-.24-.58.02-1.3.38-1.28l1.97.12c3.08.19,5.8-.69,8.56-.4Z"/>
      <path class="cls-16" d="M381.68,61.29l.05,125.15c-.93-.17-3.19-.18-3.91.76l-.13,8.85c-.96,1.78-1.78,4.71-.43,6.38,1.01,1.25,3.35.42,4.45.16l-.08,6.91c-2.38-.48-3.46-2.95-5.35-4.58-1-.54-2.96,1.47-3.12,2.73l-4.98.15-.04-20.75,4.3-.08-.1-53.29.02-65.72h-110.16s.04,72.27.04,72.27l.09,37.2c.63,1.84,2.34,2.7,3.93,2.92l-.05,27.11-3.89.23-.1,2.86-.04,5.38-1.04-.24-7.61-.4-.22-15.49.21-138.09,122.28-.05c2.3,0,3.89-.03,5.87-.39Z"/>
      <path class="cls-8" d="M381.68,61.29c-1.99.36-3.57.39-5.87.39l-122.28.05,3.95-15.55,118.74.05,5.46,15.07Z"/>
      <path class="cls-8" d="M381.72,186.45l.11,13.2-.12,2.95c-1.1.25-3.45,1.08-4.45-.16-1.35-1.67-.53-4.6.43-6.38l.13-8.85c.71-.94,2.98-.92,3.91-.76Z"/>
      <path class="cls-8" d="M368.53,133.68c-.35,1.25-.41,2.58-.4,4.23v49.16s.06,20.75.06,20.75l4.98-.15c.16-1.26,2.12-3.27,3.12-2.73,1.89,1.64,2.97,4.1,5.35,4.58-.02,1.46.69,3.81-.24,5.42-.78,1.35-3.49.19-4.62.44-.43-2.15-2.6-2.34-4.45-1.9-.03-1.04.21-2.19-.37-3.24l-5.1.22-20.81-.08-21.68.2-20.26-.17-21.8.04-20.06.12.1-2.86,3.89-.23.05-27.11-.03-41.31v-68.21s102.14.03,102.14.03l-.25,53.15.4,9.65ZM311.25,128.28c-.11,1.45-.27,2.77-.7,4.09-1.7-.75-3.03.64-4.25,1.17l-6.31,2.73c-5.3,2.29-8.79,6.32-10.43,11.87-1.84,6.2-3.12,12.37-3.59,18.58l-2.62,34.1c3.16,1.71,6.31,2.36,9.81,2.44-.15,1.71-.42,3.13-.02,4.55l48.59-.08.05-4.47c3.25-.31,6.39-.59,9.29-2.34l-2.37-31.27c-.56-7.39-1.6-14.74-3.94-22.13s-9.07-11.45-16.21-13.93c-1.45-.5-2.65-1.55-4.34-1.65l-.57-3.7c2.4-1.29,3.91-4.43,5.42-6.56,4.58-2.37,6.73-6.51,4.66-11.49l-.24-6.45c.21-.04.49-.25.65-.37l7.04-2.24-.16,9.74c-.05,3.36-1.28,6.55-.85,9.9,1.42.55,2.93.52,4.26,0,.39-3.46-1.09-6.6-1.14-9.95l-.17-10.35,4.99-1.79c.64-.23.76-.79.69-1.17-.04-.21-.18-.72-.63-.89l-30.93-12.05-32.29,12.88,15.99,6.41c.91,8.6-3.8,13.19,4.51,17.62,1.62,2.2,3.21,5.45,5.81,6.82Z"/>
      <path class="cls-9" d="M372.34,133.7l-3.81-.02-.4-9.65.25-53.15-102.13-.03v68.21c-1.46-.01-2.55.89-4,1.19l-.04-72.27h110.16s-.02,65.72-.02,65.72Z"/>
      <path class="cls-3" d="M372.34,133.7l.1,53.29-4.3.08v-49.16c-.01-1.65.04-2.97.39-4.23l3.81.02Z"/>
      <path class="cls-3" d="M266.24,139.07l.03,41.31c-1.59-.22-3.3-1.08-3.93-2.92l-.09-37.2c1.45-.3,2.54-1.2,3.99-1.19Z"/>
      <path class="cls-16" d="M376.78,215.37l-2.77.6h-1.62s-.07-2.5-.07-2.5c1.85-.44,4.02-.25,4.45,1.9Z"/>
      <path class="cls-9" d="M348.7,169.63l2.37,31.27c-2.89,1.75-6.03,2.03-9.29,2.34l-.05,4.47-48.59.08c-.4-1.42-.13-2.84.02-4.55-3.51-.08-6.65-.73-9.81-2.44l2.62-34.1c.74-.05,1.25-.73,1.43-1.79l4.32,1.64c2.39-.91,3.69.24,5.74.3l4.9.14,9.72,2.83,13.43,1.75c1.98.26,3.81-.41,6.18-.5l8.85-.35,8.18-1.09Z"/>
      <path class="cls-4" d="M306.3,133.54c1.83.79,2.75,2.52,3.96,4.03l7.02,8.74,11.28-12.73c7.14,2.48,13.85,6.5,16.21,13.93s3.38,14.73,3.94,22.13l-8.18,1.09-8.85.35c-2.37.09-4.2.76-6.18.5l-13.43-1.75-9.72-2.83-4.9-.14c-2.05-.06-3.35-1.21-5.74-.3l-4.32-1.64c-.18,1.06-.69,1.74-1.43,1.79.48-6.21,1.76-12.38,3.59-18.58,1.64-5.54,5.13-9.57,10.43-11.87l6.31-2.73Z"/>
      <path class="cls-11" d="M334.14,103.36c-.59-1.75-2.2-2.38-3.96-3.04l-11.83-4.43c-.65-.24-1.27.21-1.51.52-.14.19-.37.63.14.95,5.8,1.51,11.42,3.82,16.52,6.38l.24,6.45c2.06,4.98-.08,9.12-4.66,11.49-1.51,2.13-3.02,5.27-5.42,6.56-4.1,2.21-8.3,2.2-12.39.06-2.61-1.37-4.2-4.62-5.81-6.82-8.31-4.43-3.6-9.03-4.51-17.62l-15.99-6.41,32.29-12.88,30.93,12.05c.45.18.6.68.63.89.07.37-.05.94-.69,1.17l-4.99,1.79.17,10.35c.06,3.35,1.53,6.49,1.14,9.95-1.33.52-2.84.55-4.26,0-.43-3.35.79-6.54.85-9.9l.16-9.74-7.04,2.24ZM330.7,105.69c-5.05.15-9.69,1.93-13.31,5.09,4.83-.92,9.34-1.9,13.31-5.09Z"/>
      <path class="cls-4" d="M323.65,128.22l.57,3.7c.22,1.56-5.08,7.73-6.22,7.92-1.01.17-2.05-.41-2.73-1.3l-4.71-6.19c.43-1.32.6-2.64.7-4.09,4.09,2.15,8.3,2.15,12.39-.06Z"/>
      <path class="cls-11" d="M328.56,133.57l-11.28,12.73-7.02-8.74c-1.21-1.51-2.13-3.24-3.96-4.03,1.22-.53,2.54-1.93,4.25-1.17l4.71,6.19c.68.89,1.72,1.47,2.73,1.3,1.14-.2,6.44-6.36,6.22-7.92,1.7.1,2.89,1.15,4.34,1.65Z"/>
      <path class="cls-4" d="M334.14,103.36c-.16.12-.44.33-.65.37-5.1-2.56-10.72-4.86-16.52-6.38-.51-.33-.28-.77-.14-.95.24-.3.86-.76,1.51-.52l11.83,4.43c1.76.66,3.38,1.3,3.96,3.04Z"/>
      <path class="cls-4" d="M330.7,105.69c-3.97,3.19-8.48,4.17-13.31,5.09,3.62-3.15,8.26-4.93,13.31-5.09Z"/>
    </g>
  </g>
</svg>