<?xml version="1.0" encoding="UTF-8"?>
<svg id="Layer_2" data-name="Layer 2" xmlns="http://www.w3.org/2000/svg" viewBox="0 0 649.77 613">
  <defs>
    <style>
      .cls-1 {
        fill: #f8f8f7;
      }

      .cls-2 {
        fill: #f4eeea;
      }

      .cls-3 {
        fill: #da622c;
      }

      .cls-4 {
        fill: #b5681c;
      }

      .cls-5 {
        fill: #db8831;
      }

      .cls-6 {
        fill: #191c1e;
      }

      .cls-7 {
        fill: #ddc8b6;
      }

      .cls-8 {
        fill: #f1e8e1;
      }

      .cls-9 {
        fill: #bfab99;
      }

      .cls-10 {
        fill: #35383b;
      }

      .cls-11 {
        fill: #484542;
      }

      .cls-12 {
        fill: #f6f2ee;
      }

      .cls-13 {
        fill: #753f1e;
      }

      .cls-14 {
        fill: #1f2122;
      }

      .cls-15 {
        fill: #fdfdfd;
      }

      .cls-16 {
        fill: #7f7b5e;
      }
    </style>
  </defs>
  <g id="Layer_1-2" data-name="Layer 1">
    <g>
      <path class="cls-1" d="M616.17,569.17c.37.53.8,1.21.74,1.65-.05.32-.87.9-1.26.87-2.31-.16-3.27,1.19-4.71,2.5l-3.44,3.15c-2.61,2.39-7.5,3.2-11.61,6.42-1.47,1.15-4.48-.57-7.3,2.34-2.31-1.21-3.48.32-5.27,1.28-1.54.82-3.99,1.36-5.63,1.91l-5.41,1.83c-3.14,1.06-6.38.22-9.53,2.1-1.01.6-3.37,1.9-4.54,1.81-2.67-.2-4.15,1.3-6.3,1.61l-6.81.99-20.53,4.1c-2.16-.44-4.2-.39-6.6-.02l-12.95,1.99c-3.53-1.73-6.94.85-10.04,1.27l-10.69,1.45-9.48.56-11.48,1.11-5.77.21-6.76.44-10.28.68-8.4.26c-1.28.04-2.07-.16-3.33.65-2.12,1.36-5.25-.39-7.31.05l-5.95,1.25-7.55-.66-6.92.53c-2.53.19-4.39-.16-6.78-.14l-22.96.24c-1.67.02-2.61,1.09-4.67.51-3.81-1.07-8.02.91-11.93.88l-12.88-.11-21.88-.36-4.59-.32-6.75-.41-7.57-.34-9.31-.68-10.11-1.15c-2.99.33-5.69,1.24-8.58-.68-2.29,1-4.75.91-7.06-.19-1.93.55-3.38-.42-5.1-.67l-6.31-.93c-2.98-.44-6.69.22-9.22-1.51-1.33-.91-1.67-.4-3.06-.67l-15.85-3.03c-2.44-.47-4.66.38-7.34.09l-13.14-1.38c-2-.21-4.35-.97-5.88-2.18-2.72.8-5.12,1.5-7.83-.23-2.01,1.37-4.18,1.45-5.86-.08-2.38,1.37-4.64.7-6.89.15l-7.24-1.75c-1.79-.43-3.61-.19-5.47-1.26-.9-.52-2.69-.12-3.74-.26-1.6-1.59-3.37-1.98-5.44-.95-2.52-2.47-5.66-1.02-8.34-1.42-2.18-.33-3.4-1.06-5.31.65-1.19,1.07-3.4-.86-4.6-1.01l-7.93-.97-6.53-1.85c-7.24-.47-13.26-2.17-19.97-4.86-3.26-1.31-10.75-.44-16-3.88-2.55-1.66-5.8-3.58-8.86-4.17l-5.05-.97c-1.12-.21-1.73-.93-1.54-2.08l.65.15c12.08,4.3,24.9,5.59,37.9,6.26l13.64.1,3.02.55,8.35-1.04c2.38-.3,5.21.32,7.08-1.46.58-.59-.25-2.37-.47-2.85l7.22.07c-.44.96-1.19,3.91.33,4.33,2.51.7,4.46,1.12,6.74,2.51h5.92c.39,0,7.81,2.78,11.58,1.3,1.34-.53,2.44,1.13,3.19,1.24l8.22,1.16c1.51-.09,3.25-1.89,5.47-1.18l5.79.21c5.59,2.43,10.27.78,14.41,3.02,2.25,1.22,3.66,1.33,6.18,1.49l8.28.53,7.83,1.91c2.23.54,4.16.41,6.27,1.19,4.3,1.6,7.52-.67,12.3,2.01,1.91,1.07,4.3.2,5.98.53l8.8,1.73c1.15.23,2.63.64,3.8.24,3.2,2.74,8.06,1.05,9.74,1.02l6.64-.14c1.75-.04,4.11.8,5.68,1.63,1.74.92,3.94-.35,5.37.1,2.77.88,5.18.69,8.02,1.01,5.07.57,9.89.78,14.82-.12,2.71,2.9,8.07-1.55,15.32.36,2.45.65,3.36.92,6.03.24,1.25-.32,3.64,1.26,5.17,1.27l13.11.07c2.31.01,5.13,1.3,6.24-1.33l5.16,2.58c.94.47,1.92.51,2.52-.12.18.03.46.03.63-.1-.14.32-.13.74.01.92.17.21.66.29,1.07.37,8.13,1.63,15.99.37,22.86-3.64,1.26,1.93,5.89-3.05,9.37-2.69s6.01,1.15,9.47.77c2.05-.22,5.2.41,7.31.42l7.94.04c3.16.01,5.06-.24,8.13-.55l12.29-1.22c2.24-.22,3.9.38,6.4-.67l7.7-1.07c2.33-1.56,3.72-1.66,6.46-1.38,1.49.15,3.88-2.25,5.62-1.43,4.76,2.25,9.91,1.95,13.62-1.77l10.41-.34c3.21-.68,5.99-.93,9.26-1.01l15.6-.41,4.05-.68c3.36.65,8.61-1.54,12.36-3.41,5.01-2.49,14.07.05,20.87-4.24,1.35-.85,2.32-2.19,4.22-2.49l8.77-1.4c.65-.1,1.02-.3,1.13-.79.07-.3-.04-.62-.42-.84l-.03-1.33c7.71-.66,15.46-.99,23.36-2.69l9.68-2.08,2.24-1.26Z"/>
      <path class="cls-12" d="M72.18,572.98c-5.31-2.3-10.78-4.42-15.57-7.71l4.76-3.27c5.33,3.12,8.51.51,9.32,7.28.14,1.14,2,2.46,1.49,3.7Z"/>
      <path class="cls-12" d="M568.95,575.12c-.07.36-.13.78.02,1.32l2.92.09h9.03c.38.21.48.53.42.83-.11.49-.47.69-1.13.79l-8.77,1.4c-1.9.3-2.87,1.64-4.22,2.49-6.79,4.29-15.85,1.74-20.87,4.24-3.76,1.87-9.01,4.06-12.36,3.41l-4.05.68-15.6.41c-3.27.09-6.05.33-9.26,1.01l-10.41.34c-3.71,3.72-8.86,4.02-13.62,1.77-1.74-.82-4.14,1.58-5.62,1.43-2.74-.28-4.13-.17-6.46,1.38l-7.7,1.07c-2.5,1.04-4.17.44-6.4.67l-12.29,1.22c-3.07.3-4.97.56-8.13.55l-7.94-.04c-2.11,0-5.26-.64-7.31-.42-3.46.38-6.09-.42-9.47-.77s-8.11,4.63-9.37,2.69c.75-.44,1.32-.8,1.15-1.88.27-.18.87-.48,1.19-.49.47-.01,1.04.09,1.5-.09s.52-.91.21-1.39c2.54-1.53,4.81-3.33,6.31-6.17.5-.95,1.62-.71,2.33-.79l4.64-.52c2.76.68,4.61.04,7.24.12l4.36.14,14.41-1.34,12.33-.32,7.74-.81,4.81-1.64c.45-.15.91-.93.83-1.12.18.03.48.08.63.02.12.64.34,1.11.64,1.44.45.51,1.35.55,1.73.18.53-.52.55-1.17.46-1.79.46.04,1.37-.21,1.78.05.72,1.2,2.47.19,3.48.47l3.46.98c.7.2,1.29-1.32,2.28-1.71,1.2-.47,2.83-.22,3.51-1.36.14.09.41.07.47-.13,1.71,2.07,4.76,2.83,7.23.75,4.19,1.56,7.6-.83,11.5-1.13l7.65-.58,11.53-.02c3.98,0,8.44-2.1,12.41-1.63,2.54.3,3.84.96,6.42.24l7.2-1.99,9.04-2.19.21-1.54c-1.33.03-1.8-.77-1.73-1.56l9.6,1.17Z"/>
      <path class="cls-2" d="M556.97,573.36l2.38.59c-.08.79.4,1.59,1.73,1.56l-.21,1.54-9.04,2.19-7.2,1.99c-2.58.71-3.88.06-6.42-.24-3.97-.47-8.43,1.62-12.41,1.63l-11.53.02-7.65.58c-3.9.29-7.32,2.69-11.5,1.13-2.47,2.07-5.53,1.32-7.23-.75l24.06-3.72c.51.74,1.36,1,2.31.8l16.34-3.47c.48-.1.88-.21,1.05-.44.15-.21.14-.65.04-.92,1.23-.25,2.36-.67,3.65-.42,3.27.64,9.57-1.7,10.07-2.29.14-.16.16-.52.03-.77.17-.03.43-.02.58,0,.7.74,1.55.44,2.64.13,3.44-.96,6.83,2.94,8.33.87ZM557.8,574.14l-.3.3.3.3.3-.3-.3-.3Z"/>
      <polygon class="cls-15" points="580.88 575.2 580.92 576.53 571.89 576.54 571.92 575.97 580.88 575.2"/>
      <path class="cls-1" d="M571.92,575.97l-.03.58-2.92-.09c-.15-.54-.09-.97-.02-1.32l2.97.84Z"/>
      <path class="cls-12" d="M182.66,572.86c-.1.51-.22,2.21.38,2.58,2.07,1.29,4.63-.04,6.64.05,1.75.08,2.68.57,4.56-.27,1.24-.55,3.47,1.11,4.71.91,2.19-.34,4.08-.06,5.97.95l3.06-.49c.65-.1,1.22,1.62,1.75,2.24,3.27-2.03,5.68,3.17,6.76,1.06.58-1.14.13-2.62,1.58-3.71,1.51,1.63,3.48,1.31,5.2,1.78,2.12.59,4.25,1.75,6.49.58.6-.32.85-1.64.85-2.2l5.54,1.89c.05,1.15.24,2.94,1.4,3.25l5.84,1.54c1.46.38,1.96,3.13,4.11,3.09.7-1.27.05-3.69-1.19-4.4l.97-1.08c.22.07.42.22.64.16-.09.33.04.96.42,1.12.27.12.83-.28.91-.6l.59-.02c.09.62.21,1.29.52,1.82.58,1,.65,2.18.87,3.51.8,4.91,6.94-.27,10.95,4.06l5.4.55c6.29-1,8.16,1.37,8.64-2.08l.55-.03c.19.47.63,1.03,1.01,1.18.57.22,1.13-.35.94-.88l1.08.23c-.08,1.52,1.42,1.37,2.67,1.59,1.92.35,3.79,1.4,5.22.31.11-.08.41-.12.55-.1-.21.4-.09,1.09.59,1.21l7.25,1.24c.79.14,1.44-.23,1.78-.61h.51c-.14,1.16.65,1.34,1.56,1.3.79-.03,1.4-.07,1.53-.98l1.16.16c-.25,1.28.57,1.4,1.5,1.41s1.87.1,2.13-.96c.41.15.87.07,1.27.11.28,1.8,1.78,1.55,3.35,1.65l17.2,1.02,6.99.16c2.95.07,5.35-.56,8.48.11,3.84.83,8.47-1.27,12.72.12.85-1.06,1.74-2.26,3.29-2.14-.35,2.23.54,3.66,2.27,4.54,1.5.77,3.14,1.3,4.56.12.1.05.23.13.41.01.07.91.64,1.39,1.35,1.74-1.11,2.64-3.93,1.35-6.24,1.33l-13.11-.07c-1.53,0-3.92-1.59-5.17-1.27-2.67.68-3.58.41-6.03-.24-7.25-1.91-12.61,2.53-15.32-.36-4.94.9-9.76.69-14.82.12-2.84-.32-5.25-.13-8.02-1.01-1.43-.45-3.62.82-5.37-.1-1.57-.83-3.93-1.67-5.68-1.63l-6.64.14c-1.68.03-6.54,1.72-9.74-1.02-1.16.4-2.64,0-3.8-.24l-8.8-1.73c-1.68-.33-4.08.54-5.98-.53-4.78-2.68-8-.42-12.3-2.01-2.11-.78-4.04-.65-6.27-1.19l-7.83-1.91-8.28-.53c-2.52-.16-3.92-.27-6.18-1.49-4.13-2.24-8.81-.6-14.41-3.02l-5.79-.21c-2.22-.71-3.96,1.09-5.47,1.18l-8.22-1.16c-.75-.11-1.85-1.77-3.19-1.24-3.77,1.48-11.19-1.29-11.58-1.29h-5.92c-2.28-1.39-4.23-1.82-6.74-2.51-1.52-.42-.76-3.37-.33-4.33,10.65.03,21.22-1.07,31.78-2.47Z"/>
      <path class="cls-12" d="M139.47,575.14c-.12.54-.1,1.11.3,1.4.31.22.81,0,.88-.31.06-.28.03-.67.01-.97h3c.22.49,1.05,2.27.47,2.85-1.87,1.79-4.71,1.17-7.08,1.46l-8.35,1.04-3.02-.55-13.64-.1c-13-.67-25.82-1.96-37.9-6.26-.07-1.86,2.18-1.65,2.39-3.52.25-2.22-2.37-2.06-4.56-4.42.55-3.69,3.97,2.32,7.98.24,1.67-.87,3.38-2.81,3.22-5.27,17.42,9.14,36.66,13.68,56.28,14.4Z"/>
      <path class="cls-2" d="M401.51,599.82c.17,1.08-.41,1.44-1.15,1.88-6.87,4.02-14.73,5.27-22.86,3.64-.41-.08-.9-.16-1.07-.37-.14-.17-.15-.59-.01-.92,8.66,1.75,17.7.71,25.1-4.23Z"/>
      <path class="cls-12" d="M504.39,99.61c-6.65,6.8-11.42,15.14-14.78,24.03-.49-.01-.79-.32-.8-1.01l-.26-22.08c-1.48-11.59-11.02-20.29-22.93-20.3l-269.02-.13c-6.69,0-12.67.98-17.71,5.3s-8.58,11.3-8.58,18.13c-8.96,3.39-13.72,11.93-13.7,21.61l.25,109.55c0,1.29.12,1.94.55,2.82-1.96-.38-3.89,1.17-6.2,2.19.74-2.73,1.09-4.85-.46-6.86-2.41-3.11-8.06-1.67-8.72-.92l-3.79,4.31c.01-2.84-.36-4.91-2.09-6.27s-4.19-1.47-6.3-.55c-2.85,1.23-3.95,3.76-5.69,6.86-.63-3.68-2.81-6.39-6.48-6.53-4.7-.18-8.25,3.15-9.35,7.44-16.43-38.5-14.91-75.74,3.12-113.85,5.95-12.58,13.72-23.72,21.6-34.77l1.35-1.51,11.97-13.91C189.27,28.86,245.76,5.31,307.24.7c33.94-2.55,67.97,1.87,99.88,13.9,42.77,16.12,75.66,45,97.27,85.02Z"/>
      <path class="cls-2" d="M586.45,193.27c10.75,5.54,20.95,12.91,29.49,22.04,13.37,14.3,22.82,30.94,28.28,49.7,4.11,14.11,6.05,28.18,5.44,42.99-1.27,31.02-11.78,60.47-30.14,85.25-.81,1.09-1.15,1.72-2.54,1.96-1.95-4.91-5.21-9.38-8.92-13.12l-.99-1.12c.75-4.85,1.64-9.79.97-15.02-.39-6.29-3.93-11.46-9.43-14.76-.74-5.79-4.94-10.23-10.91-11.06-7.37-1.02-14.68-.84-21.8.12l-8.44,1.14-2.27-13.05v-.66c-.07-5.13,3.19-9.63,6.11-14.14l6.16-9.52c1.37-.79,3.5-1.33,4.1-2.81.72-1.78,1.16-3.38.24-5.71,2.71-.73,4.8-2.37,5.36-4.33.9-3.17-.01-5.46-2.1-7.63,3.55-1.01,5.01-3.15,5.16-6.19.18-3.61-1.82-6.44-5.73-6.93,3.06-3.09,3.16-6.61,1.53-9.52-1.85-3.3-5.46-4.3-9.88-3.58.64-3.61.55-6.43-1.74-8.14s-5.16-1.93-8.12-.4c.24-2.91-.78-5.22-2.76-6.15-2.45-1.14-5.06-.85-7.59.93-.09-3.28-1.39-5.58-3.65-6.41-2.54-.93-5.2-.45-6.77,1.99-1.03-2.27-2.45-3.39-4.2-3.66-2.28-.35-3.98.53-5.58,2.7-1.64-2.8-4.03-3.86-6.81-3.34-2.38.45-4.33,2.21-5.05,5.3-2.83-2.83-6.42-3.37-9.27-1.26-1.12.83-1.44,2.25-1.79,3.9-4.5-2.16-9.2-1.16-10.36,2.27-.74,2.19-.28,4.02.95,5.82-1.44.45-2.93.6-3.69,1.35-1.23-2.65-.86-5.3-.86-8.35l.07-79.86c1.31.11,1.67,1.14,2.12,2.28,10.48,26.23,36.54,41.75,64.72,38.66,9.91-1.24,18.85-4.7,27.35-9.88.45-.77,2.37-2.31,3.33-1.82Z"/>
      <path class="cls-8" d="M133.04,88.6c-7.88,11.05-15.65,22.19-21.6,34.77-18.03,38.11-19.55,75.35-3.12,113.85-.18.69-.06,1.44-.85,2.6-2.26-3.73-6.43-4.95-10.2-3.68-4.13,1.39-6,5.4-5.46,10.44-2.65-1.55-4.79-2.56-7.4-2.51-3.32.06-6.01,2.05-7.11,4.58-1.35,3.12-.79,6.15,1.58,9.15-6.03.09-10.84,2.26-11.04,7.28-.1,2.6,1.63,4.55,4.03,6.61-2.02.5-4.36,1.16-5.47,2.82-.72-.09-1.67-.45-2.04-1.16l-5.1-10.01c-10.83-19.77-18.54-40.86-21.55-63.32-4.76-35.55,7.35-70.26,36.46-91.66,17.09-12.57,37.75-19.03,58.85-19.75Z"/>
      <path class="cls-8" d="M170.1,325.54c-1.74-.82-2.77-2.44-4.8-2.74-.61-.09-1.38-.63-2.34-.59,2.42-8.42,1.47-17.95-1.9-26.18-1.39-3.39-1.76-6.37-1-9.73.57-2.53.53-5.16-.13-7.68-1.26-4.75-2.65-9.57-5.1-13.98.61-.67,1.66-1.34,2.46-1.6,3.24-1.01.99-4.47,1.61-5.9.7-1.61,3.94-2.35,3.61-4.75s-1.7-4.09-4.61-3.97c2.36-1.82,3.27-3.48,3.23-6.09-.02-1.84-1.43-4.31-3.75-4.77-.42-.88-.54-1.53-.55-2.82l-.25-109.55c-.02-9.68,4.74-18.22,13.7-21.61l-.21,221.98Z"/>
      <path class="cls-8" d="M443.54,364.56c-.95,2.04-.73,3.89-1.07,6.01-2.13-.38-4.56.24-5.91,1.62-1.86,1.91-1.96,4.8-1.16,7.05l-80.03.47c-.98-1.62-1.21-3.62-.72-5.64-.92-.93-1.94-1.27-3.02-1.35l-1.88-6.02c1.74-.37,3.13-1.22,4.37-2.42l86.96-.11c1.21,0,1.9.25,2.45.39Z"/>
      <path class="cls-2" d="M511.68,355.04l-1.72,1.94c-4.43,2.24-8.67,5.44-12.07,9.46-2.12,2.5-3.03,5.64-3.75,8.48l-.26,1.38c-12.52,6.32-22.05,16.86-26.43,30.24l-1.31-13.3c-.6-6.1-5.99-8.38-8.18-14.56,10.12.41,17.84-7.54,19.67-17.49,7.29-4.38,10.46-10.57,11.04-19.38,1.69-.04,2.79-.93,3.64-1.67l12.42-.76c.9-.05,2.83,0,3.07.9l3.89,14.78Z"/>
      <path class="cls-8" d="M263.19,364.38l-.17,1.13c-.04.25-.05.58.05.86s.42.42.73.32c.13-.04.34,0,.63.11-.29,1.52.62,4.35,1.35,6.09l1.63,3.88c-.48.73-.39,1.52-.84,2.49l-26.67.36-26.06-.07c-3.18,0-6.36.35-9.08-.85-1.93-.85-3.76-1.85-5.94-1.86l-4.44-11.89c1.59-1.04,3.19-.75,5.12-.75l63.69.19Z"/>
      <path class="cls-8" d="M477.63,361.18c-1.84,9.95-9.55,17.9-19.67,17.49l-1.2-1.72c-.97-3.35-2.14-6.3-4.42-5.72l-1.94.68c.4-2.39.37-4.74-.61-6.97.7-.9,1.93-.67,3.31-.68l13.81-.1c3.91-.03,7.65-1.15,10.71-2.98Z"/>
      <path class="cls-8" d="M586.45,193.27c-.96-.49-2.88,1.05-3.33,1.82-8.5,5.18-17.44,8.63-27.35,9.88-28.18,3.08-54.24-12.44-64.72-38.66-.45-1.13-.81-2.17-2.12-2.28v-4.17s-.11-30.54-.11-30.54c0-2.15.14-3.96.79-5.68,3.36-8.89,8.13-17.23,14.78-24.03,19.21-19.66,49.66-24.67,73.93-10.87,18.52,10.53,30.41,29.33,31.96,50.77,1.46,20.3-7.65,39.68-23.13,52.3-.72.58-.83,1.05-.71,1.46ZM579.21,175.71c5.05,0,8.86-4.6,8.86-9.25v-34.14c0-5.49-4.97-9.03-10.09-9.08l-11.62-.11c.92-5.07-2.59-11.33-8.02-11.34l-16.01-.03c-5.53,0-9.01,6.22-8.03,11.41l-12.21.13c-5.32.05-9.36,4.31-9.35,9.66l.06,34.1c0,4.11,3.78,8.64,8.16,8.64h58.26Z"/>
      <path class="cls-7" d="M579.21,175.71h-58.26c-4.37,0-8.15-4.54-8.16-8.64l-.06-34.1c0-5.34,4.03-9.6,9.35-9.66l12.21-.13c-.98-5.19,2.5-11.42,8.03-11.41l16.01.03c5.43,0,8.94,6.27,8.02,11.34l11.62.11c5.12.05,10.09,3.58,10.09,9.08v34.14c0,4.65-3.8,9.25-8.85,9.25ZM562.34,123.11c.16-3.63-.48-4.8-1.8-6.14-1.22-1.24-2.89-1.34-4.82-1.35l-11.42-.06c-2.19-.01-4.16.87-5.1,2.43s-1.23,3.77-.59,5.27l23.74-.14ZM587,137.63c.07-.36.13-.87-.41-1.04l-30.84,12.16c.51-2.14.56-5-1.43-5.19-2.88-.27-6.1-.52-8.89.18-1.53.38-1.08,3.31-.98,5.02l-30.45-12.43-.42.91,28.86,11.88c3.94,1.62.69,4.54,3.01,6.32,1.33,1.02,7.62,1.02,9.08.2,1.66-.93,1.57-3.38,1.25-5.35l31.24-12.66Z"/>
      <path class="cls-8" d="M587,137.63l-31.24,12.66c.32,1.97.41,4.42-1.25,5.35-1.45.81-7.75.81-9.08-.2-2.32-1.78.93-4.7-3.01-6.32l-28.86-11.88.42-.91,30.45,12.43c-.1-1.71-.55-4.64.98-5.02,2.79-.69,6.01-.45,8.89-.18,1.99.19,1.95,3.05,1.43,5.19l30.84-12.16c.54.17.48.68.41,1.04Z"/>
      <path class="cls-8" d="M562.34,123.11l-23.74.14c-.64-1.5-.35-3.69.59-5.27s2.91-2.44,5.1-2.43l11.42.06c1.93.01,3.6.12,4.82,1.35,1.33,1.34,1.97,2.52,1.8,6.14Z"/>
      <path class="cls-1" d="M489.61,123.64c-.65,1.72-.8,3.53-.79,5.68l.11,30.54v4.17s-.08,79.86-.08,79.86c0,3.06-.37,5.7.86,8.35-1.03,1.02-1.66,2.58-1.67,3.8-.01,1.9,1.5,2.84,2.78,4.06-.45,3.04.21,3.74,2.49,4.87.07.93-.39,1.96-.82,3.08l-4.09,10.55c-.72,1.86-.92,3.18-.66,5.32.3,2.44,1.35,6.03.31,8.59-2.08,5.09-9.23,9.29-8.24,13.14.82,3.18,4.25,4.1,4.64,5.11,1.02,2.61-4.51,4.71-.19,9.3-.54,1.18-2.05,3.5-.64,4.79,4.99,4.56.63,10.36,5.71,13.43,1.09.66,2.25.94,2.97,1.84-.84.74-1.94,1.63-3.64,1.67-.57,8.81-3.75,15-11.04,19.38-3.06,1.84-6.79,2.95-10.71,2.98l-13.81.1c-1.39,0-2.61-.22-3.31.68-.86-1.95-.34-4.38-.15-6.94,11.74-1.01,21.64-8.85,24.73-20.3,3.75-13.9-3.11-27.81-16.4-33.02l-.03-137.51c.05-1.65-.98-2.18-2.42-2.17l-33.53.24v150.39c0,1.21.01,1.59.93,2.17-2.13,4-3.11,8.88-2.9,13.55.61,13.59,10.09,24.28,23.53,26.37.43,2.2.88,4.88-.02,6.83-.56-.15-1.24-.4-2.45-.39l-86.96.11.16-1.71c-2.12,1.11-3.31,1.55-4.92,1.31,2.89-12.01-2-17.4-.63-19.92,1.25-2.31.52-5.12.52-7.68l.13-102.56c0-1.21-.64-2.08-1.81-2.08h-32.36c-1.06,0-2.1.83-2.1,2.05l-.36,70.17c-1.18-5.33-5.38-9.42-11.61-8.03-.16-1.54.34-2.08,1.07-3.08-2.33-2.46-4.72-4.66-7.61-6.03l.19-18.89c0-1.58-.94-2.28-2.42-2.27l-33.67.24.12,23.76-1.99,3.23c-.5.81-.96,1.27-1.69,1.38-3.02.48-5.98,1.9-5.76,4.29-8.41,3.81-8.66,14.16-6.87,16.29,1.16,1.37.9,2.81-.54,4.08-2.03,1.78-4.36,5.76-3.01,8.38,1.21,2.34,1.27,3.29.95,6.01-.34,2.87,3.23,5.05,5.92,5.91-.52,1.91-.95,3.38-.18,5.03.58,1.24,2.48,1.94,3.96,2.43.47,2.67,1.02,5.08,3.54,6.73,2.77,1.82,7.21,3.14,9.72.79.38-.09.88-.18,1.07-.03.41.31.36,1.09.26,1.72l-.98,6.13h-1.08c-.24,0-.58.56-.31.89.3.36,1,.39,1.39.28l-.02,1.3-63.69-.19c-1.93,0-3.53-.29-5.12.75l-7.51-24.06c-.88-2.81-2.38-4.91-4.84-6.57l-10.41-6.98-1.52-1.8.21-221.98c0-6.83,3.31-13.62,8.58-18.13s11.02-5.3,17.71-5.3l269.02.13c11.92,0,21.45,8.71,22.93,20.3l.26,22.08c0,.69.31,1,.8,1.01ZM205.11,273.67l50.72-24.33,56.99-41.42,47.21-18.28,73.1-49.61,5.41,8.05c.59.88.95,1.5,1.78,1.66.51.09,1.75.05,2.07-.7l11.59-27.73c.71-1.7-1.58-2.53-2.82-2.45l-26.68,1.8c-1,.07-1.8.27-2.18.91-.45.74-.44,1.71.09,2.51l5.46,8.3-72.39,49.09-47.82,18.7-56.02,40.82-50.26,24.44c-.15,3.19.84,6.34,3.76,8.25ZM367.68,200.33v137.81s36.28,0,36.28,0v-137.81s-36.28,0-36.28,0ZM200.98,292.83l-.02,45.33h35.92s.02-45.31.02-45.31h-35.92Z"/>
      <path class="cls-9" d="M457.98,304.69c-13.54-5.31-28.17.18-35.05,13.13-.92-.59-.93-.96-.93-2.17v-150.39s33.53-.24,33.53-.24c1.44-.01,2.46.52,2.42,2.17l.03,137.51Z"/>
      <rect class="cls-9" x="316.91" y="251.1" width="137.81" height="36.29" transform="translate(116.56 655.04) rotate(-90)"/>
      <path class="cls-9" d="M345.74,333.72c-.25.34,0,.62.35.62l.89-.02c.07.45.28.89.6,1.2.05.24.36.56.61.61l-.18,2.13-2.64-.42-.93-.45-.34-3.06c-.07-.61,1.27-.76,1.64-.62Z"/>
      <path class="cls-9" d="M349.25,336.28l-1.05-.14-.61-.61c-.07-.49-.29-.84-.6-1.2-.08-.22-.15-.46-.31-.62-.33-.3-.71-.22-.93.02.16-1.89.2-4.08-.68-5.62l-.62.61c.6,1.3,1.29,3.05-.17,4.54l-4.59-7.67c.73-.4,1.17-.05,1.44.07l.62-.79c-3.42.37-7.64-2.81-9.15-6.37-1.62-.2-3.79-.37-5.49-1.43-3.69-2.29-8.09-2.72-12.46-3.17l-1.99-3.65.1-6.4.36-70.17c0-1.22,1.04-2.05,2.1-2.05h32.36c1.17,0,1.81.88,1.81,2.08l-.13,102.56ZM341.94,325.22l-.56.52.95.48.5-.61-.9-.39ZM343.44,326.1l-.73.4c.34.28.37-.56.73-.4ZM344.54,327.19l-.48,1.14.48-1.14Z"/>
      <path class="cls-3" d="M205.11,273.67c-2.92-1.9-3.91-5.06-3.76-8.25l50.26-24.44,56.02-40.82,47.82-18.7,72.39-49.09-5.46-8.3c-.53-.8-.53-1.77-.09-2.51.38-.63,1.18-.84,2.18-.91l26.68-1.8c1.24-.08,3.53.75,2.82,2.45l-11.59,27.73c-.31.75-1.55.79-2.07.7-.83-.15-1.19-.77-1.78-1.66l-5.41-8.05-73.1,49.61-47.21,18.28-56.99,41.42-50.72,24.33Z"/>
      <rect class="cls-9" x="196.26" y="297.54" width="45.33" height="35.92" transform="translate(-96.66 534.29) rotate(-89.98)"/>
      <path class="cls-9" d="M294.59,286.7c-3-1.43-6.68.18-9.34,1.24-2.37-1.9-4.77-3.78-8.15-3.51-2.98.24-5.48,2.14-7.43,4.51-3.77-1.25-7.48-1.28-10.86.59l-.12-23.76,33.67-.24c1.47-.01,2.42.69,2.42,2.27l-.19,18.89Z"/>
      <path class="cls-8" d="M263.22,361.91v1.17c-.4.11-1.1.08-1.39-.28-.27-.34.07-.89.31-.89h1.08Z"/>
      <path class="cls-2" d="M470.51,548.75l-.14,7.45-.2,4.1-.19,9.06-.03,2.96c-.28-.22-1.27-.05-1.23.61.22,4.19-.49,8.19.4,11.96.35-.03.4.33.29.53.07.19-.39.97-.83,1.12l-4.81,1.64-7.74.81-12.33.32-14.41,1.34-4.36-.14c-2.63-.09-4.47.55-7.24-.12l-4.64.52c-.69-1.08-.1-1.76.68-2.86,7.15-10.12,12.08-21.68,14.57-33.82,1.12-5.47.35-10.48-1.85-15.04l3.42-9.77c.64-1.82,1.77-2.49,2.92-3.8l7-7.98c2.14,7.76,4.88,15.16,10.11,21.39s12.7,10.53,20.63,9.75Z"/>
      <path class="cls-8" d="M531.67,575.84c.11.27.11.72-.04.92-.17.23-.58.34-1.05.44l-16.34,3.47c-.95.2-1.8-.06-2.31-.8l19.75-4.03Z"/>
      <path class="cls-2" d="M487.39,583.72c-.69,1.14-2.31.89-3.51,1.36-.99.39-1.58,1.91-2.28,1.71l-3.46-.98c-1.01-.29-2.76.73-3.48-.47-.08-.28.02-.51.18-.57.21-.09.75-.07,1.09-.1l11.46-.94Z"/>
      <path class="cls-15" d="M469.95,572.33l-.03,9.64-.8,2.93c-.9-3.77-.18-7.78-.4-11.96-.04-.66.95-.83,1.23-.61Z"/>
      <path class="cls-8" d="M545.42,572.37c.13.25.11.61-.03.77-.5.59-6.8,2.93-10.07,2.29l6.05-2.22,4.05-.83Z"/>
      <path class="cls-14" d="M469.98,569.37l.19-9.06c.69.01,1.03.46,1.02,1.16v6.73c-.01.47-.2.96-.39,1.1-.18.13-.6.14-.82.07Z"/>
      <path class="cls-2" d="M472.87,585.28c.09.62.07,1.27-.46,1.79-.38.37-1.28.32-1.73-.18-.3-.34-.52-.81-.64-1.44.87-.33,2-.25,2.83-.16Z"/>
      <rect class="cls-12" x="557.59" y="574.23" width=".42" height=".42" transform="translate(-242.82 562.83) rotate(-45.01)"/>
      <path class="cls-2" d="M278.81,392.84c-2.62,4.83-1.08,10.29,3.22,13.56-.54.87-.64,2.11-.13,2.85.41.61,1.7.92,2.69.71l4.23-.91c-.17,2.17-.34,3.83.57,5.1v.56s-3.08-.48-3.08-.48c-.69-.11-1.48,1.95-.79,2.33.89.48,1.72.47,1.93.89.47.92-1.23,3.52.33,3.96-1.79,4.71-4.92,10.5-10.39,11.12-3.02.34-5.1,1.5-8.08,2.83l-20.75,9.24c-5.72,3.55-10.32,8.44-13.68,13.99l-10.01-30.36-9.91-26.59c-.83-2.23-3.35-3.13-3.93-5.11l-3.7-12.57-2.57-5.27c2.72,1.2,5.9.84,9.08.85l26.06.07,26.67-.36c.45-.96.36-1.76.84-2.49l3.79,9.28c.16.4.93,1.08,1.1.87l.96-1.21c.76,3.7,2.91,5.4,5.56,7.12Z"/>
      <path class="cls-2" d="M188.65,500.51l3.56,2.32c7.96,5.19,16.76,7.85,26.03,5.88l-4.46,24.62c-2.12,11.73-3.5,30.25,4.63,38.13l11.96,3.78.26,1.11c0,.56-.24,1.89-.85,2.2-2.23,1.18-4.36.01-6.49-.58-1.72-.48-3.68-.15-5.2-1.78-1.45,1.09-1,2.57-1.58,3.71-1.08,2.11-3.49-3.09-6.76-1.06-.53-.62-1.11-2.34-1.75-2.24l-3.06.49c-1.89-1.01-3.78-1.3-5.97-.95-1.24.2-3.47-1.46-4.71-.91-1.89.84-2.81.34-4.56.27-2.01-.09-4.57,1.24-6.64-.05-.6-.37-.48-2.07-.38-2.58.25.13,1.56-.08,1.55-.72l-1.35-54.91-.36-21.35,6.14,4.62Z"/>
      <path class="cls-1" d="M140.67,575.26c.02.3.05.69-.01.97-.07.3-.58.53-.88.31-.4-.29-.43-.86-.3-1.4l1.2.12Z"/>
      <path class="cls-2" d="M435.4,379.23l1.84,5.18c-3.43.39-5.55,2.74-5.06,6.35.14,1.04.72,3.68-.12,4.35-1.92,1.54-1.65,3.2-2.48,4.96-1.52,3.26-2.41,6.43-.34,9.82l1.75,4.15c-.7,1.17-1.53,1.38-3.03,1.17l-58.12-8.15c-1.27.06-2.71.46-3.15,1.53l-2.6,6.36-9.69,31.02c-.34,1.1-.4,1.79-1.64,2.04l-13.32-6.04c-3.45-1.57-6.02-5.24-9.89-4.61-3.06-5.64-2.38-16.99-.77-24.03,1.24-5.41,5.65-2.5,11.59-2.86,4.57-.22,7.83-3.76,7.69-8.36,2.95-6.13,4.23-12.36,4.97-19.1.18-1.67,1.43-3.05.64-5.07l-2.05-5.24c1.08.08,2.11.42,3.02,1.35-.49,2.02-.26,4.02.72,5.64l80.03-.47Z"/>
      <path class="cls-2" d="M265.32,586.03c-.02,1.92,2.85,1.16,6.77,3.04.58.28,1.5-.15,1.65-.66.66.19,1.87-.03,2.46.76-.48,3.46-2.35,1.09-8.64,2.08l-5.4-.55c-4.01-4.33-10.15.85-10.95-4.06-.22-1.33-.29-2.51-.87-3.51.86.23,1.8-.13,2.51-.55l12.47,3.45Z"/>
      <path class="cls-2" d="M297.85,593.32c-.34.38-.99.75-1.78.61l-7.25-1.24c-.68-.12-.81-.81-.59-1.21l9.62,1.84Z"/>
      <path class="cls-8" d="M273.74,588.41c-.15.51-1.07.94-1.65.66-3.93-1.88-6.79-1.12-6.77-3.04l8.42,2.38Z"/>
      <path class="cls-2" d="M306.23,594.26c-.25,1.06-1.16.96-2.13.96s-1.75-.13-1.5-1.41c1.2.17,2.48.02,3.63.45Z"/>
      <path class="cls-8" d="M252.85,582.57c-.71.42-1.65.78-2.51.55-.3-.53-.42-1.19-.52-1.82.97.57,1.92.96,3.02,1.27Z"/>
      <path class="cls-2" d="M301.45,593.64c-.13.9-.74.95-1.53.98-.91.04-1.71-.14-1.56-1.29,1.05.03,2.07.17,3.09.31Z"/>
      <path class="cls-2" d="M278.69,589.44c.2.54-.36,1.11-.94.88-.38-.15-.83-.71-1.01-1.18.67-.04,1.3.16,1.95.3Z"/>
      <path class="cls-8" d="M249.11,580.68c.09.15.18.47.13.65-.08.32-.64.71-.91.6-.38-.17-.51-.8-.42-1.12l1.19-.12Z"/>
      <path class="cls-2" d="M246.31,581.72c1.24.71,1.89,3.13,1.19,4.4-2.14.04-2.65-2.71-4.11-3.09l-5.84-1.54c-1.16-.3-1.35-2.1-1.4-3.25,3.36,1.14,7.1,1.73,10.16,3.48Z"/>
      <path class="cls-2" d="M289.5,401.67c-.58-.03-1.13-.15-1.67-.03.47,1.38-.04,2.25.04,3.2-1.1,1.41-3.3,1.29-5.12.22-3.93-2.32-4.56-7.56-2.85-11.52l7.88,5.5c-1.47,1.57-2.72,2.28-1.52,3.15.58-.97,1.2-1.38,1.7-1.54.84-.27,1.48.29,1.54,1.02ZM286.91,402.79c0-.26-.21-.46-.46-.46s-.46.21-.46.46.21.46.46.46.46-.21.46-.46Z"/>
      <path class="cls-5" d="M279.89,393.54c-1.71,3.96-1.08,9.2,2.85,11.52,1.82,1.07,4.02,1.19,5.12-.22.93-.46,1.43.57.64,1.01l-2.72,1.51c-.59-.02-1.13-.07-1.7-.14-.42-.6-1.57-.75-2.05-.83-4.31-3.26-5.85-8.72-3.22-13.56l1.08.7Z"/>
      <path class="cls-8" d="M348.02,338.27l.05,5.1c-1.46-1.33-2.31-3.55-2.69-5.53l2.64.42Z"/>
      <path class="cls-1" d="M263.8,366.68c-.31.1-.63-.03-.73-.32s-.09-.61-.05-.86c.44.24.71.68.78,1.18Z"/>
      <path class="cls-13" d="M442.47,370.57c-.45,2.86.42,4.97,1.76,7.41,2.83,5.17,5.59,10.22,10.63,13.63-.03-7.78-6.35-8.36-4.45-19.7l1.94-.68c-.48,1.94.11,3.89,1.76,5.35.85.75,1.74.85,2.65.38l1.2,1.72c2.19,6.18,7.58,8.46,8.18,14.56l1.31,13.3-2.57,8.34-1.97,10.09-2.69-.04-7.4-.11,1.45-5.73-20.19-2.84c-1.45-.2-2.54-.91-3.08-2.2l-1.75-4.15c-2.06-3.39-1.18-6.56.34-9.82.82-1.76.55-3.42,2.48-4.96.85-.68.26-3.31.12-4.35-.49-3.61,1.62-5.96,5.06-6.35l-1.84-5.18c-.8-2.24-.7-5.14,1.16-7.05,1.35-1.38,3.78-2,5.91-1.62ZM455.24,391.89l-.3.3.3.3.3-.3-.3-.3Z"/>
      <path class="cls-14" d="M457.98,304.69c13.29,5.21,20.15,19.12,16.4,33.02-3.09,11.44-12.99,19.29-24.73,20.3-.19,2.56-.71,4.99.15,6.94.98,2.23,1.01,4.57.61,6.97-1.9,11.34,4.42,11.93,4.45,19.7-5.04-3.41-7.8-8.46-10.63-13.63-1.33-2.44-2.21-4.54-1.76-7.41.34-2.12.12-3.97,1.07-6.01s.45-4.63.02-6.83c-13.43-2.09-22.91-12.78-23.53-26.37-.21-4.67.77-9.55,2.9-13.55,6.89-12.94,21.51-18.43,35.05-13.13ZM425.76,338.04c3.46,9.84,13.08,16.16,23.49,15.42s19.04-8.35,21.07-18.58-3.04-20.56-12.38-25.21c-8.44-4.21-18.58-2.88-25.65,3.36s-9.65,16.13-6.53,25.02Z"/>
      <path class="cls-9" d="M457.94,309.66l-.11,28.32-32.07.06c-3.12-8.89-.54-18.79,6.53-25.02s17.21-7.56,25.65-3.36Z"/>
      <path class="cls-1" d="M425.76,338.04l32.07-.06.11-28.32c9.34,4.66,14.41,14.98,12.38,25.21s-10.66,17.84-21.07,18.58-20.03-5.57-23.49-15.42Z"/>
      <path class="cls-16" d="M456.76,376.95c-.91.48-1.8.37-2.65-.38-1.65-1.46-2.24-3.41-1.76-5.35,2.28-.58,3.45,2.38,4.42,5.72Z"/>
      <rect class="cls-14" x="455.03" y="391.97" width=".42" height=".42" transform="translate(-143.97 436.89) rotate(-45.01)"/>
      <path class="cls-6" d="M157.4,237.55c2.32.45,3.72,2.93,3.75,4.77.03,2.61-.87,4.27-3.23,6.09,2.9-.11,4.27,1.53,4.61,3.97s-2.91,3.14-3.61,4.75c-.62,1.43,1.63,4.89-1.61,5.9-.81.25-1.85.93-2.46,1.6-.41.44-1.83.11-1.96,1.53-.29,3.08-3.34,2.89-3.42,4.35-.11,2,2.65,6.73.07,9.08-7.97,7.29-3.44,13.39-4.94,16.13-.6,1.09-2.8,1-3.62.35-1.77-1.4-3.21-6-7.84-6.12-2.15-.05-4.12,1.21-5.44,3.33-2.36,3.78-2.65,8.92-.51,12.75-1.2.78-1.9,2.52-1.49,3.67l-1.83,1.1-14.08,4.62c-4.39,1.44-8.76,2.38-13.3,3.57-.74.19-1.06,1.7-1.5,2.09-1.9-3.42-4.73-7.07-7.39-10.38l-4.9-6.11c-1.34-.41-3.76-.1-4.86-1.4-1.84-2.17-2.3-5.01-.61-7.81-1.86,0-3.49.22-4.91-.63-2.01-1.21-2.73-3.46-2.51-5.63.18-1.79,1.34-3.36,2.77-5-2.7-.59-4.83-1.65-5.97-3.27-1.23-1.75-1.27-4.72-.17-6.35s3.45-2.32,5.47-2.82c-2.4-2.06-4.13-4.01-4.03-6.61.2-5.02,5.01-7.19,11.04-7.28-2.37-3-2.93-6.03-1.58-9.15,1.09-2.52,3.78-4.51,7.11-4.58,2.61-.05,4.75.97,7.4,2.51-.54-5.04,1.33-9.05,5.46-10.44,3.76-1.27,7.94-.05,10.2,3.68.78-1.16.67-1.91.85-2.6,1.1-4.29,4.64-7.62,9.35-7.44,3.67.14,5.85,2.85,6.48,6.53,1.74-3.09,2.84-5.63,5.69-6.86,2.11-.91,4.62-.77,6.3.55s2.1,3.43,2.09,6.27l3.79-4.31c.66-.75,6.31-2.2,8.72.92,1.55,2.01,1.2,4.13.46,6.86,2.31-1.02,4.23-2.57,6.2-2.19Z"/>
      <path class="cls-2" d="M94.96,321.08c.29.52.64,1.49.67,2.02l.27,3.98c-1.04,7.05-2.14,14.03-5.14,20.69-4.26-.88-8.13,1.56-10.1,5.84-15.39,7.35-27.48,15.05-33.89,31.42-2.77,7.07-4.51,14.12-4.71,21.8l-.41,14.5c-5.77-5.52-11.58-10.86-18.11-15.43,0-.78.27-1.63.73-1.8.62-.23,1.57-.37,2.96-.02,5.84-19.92,16.22-37.56,28.84-54.11l11.45-15.01c5.92-7.76,9.17-17.1,9.59-26.96.08-1.8-.43-3.5.7-4.81,1.1,1.3,3.52.99,4.86,1.4l4.9,6.11c2.66,3.31,5.49,6.96,7.39,10.38Z"/>
      <path class="cls-2" d="M60.56,523.54l1.42,21.63c2.94,2.52,5.18,5.25,8.41,6.44,1.07,2.24,3.52,3.36,5.57,4.67l7.24,4.46c.16,2.46-1.55,4.4-3.22,5.27-4.01,2.08-7.43-3.93-7.98-.24,2.19,2.36,4.81,2.2,4.56,4.42-.21,1.86-2.47,1.66-2.39,3.52l-.65-.15-1.32-.57c.52-1.24-1.35-2.56-1.49-3.7-.81-6.77-3.99-4.15-9.32-7.28l-4.76,3.27c-12.34-8.47-22-20.85-19.12-36.32-3.63-4.67-11.06-15.46-10.72-16.82.07-.29.42-.57.74-.78,6.01,2.57,12.1,4.16,18.99,4.64,2.75.19,6.22-.22,8.66.98,2.61,1.28,3.88,4.73,5.39,6.58Z"/>
      <path class="cls-2" d="M20.9,443.91c3.45,11.54,9.85,21.92,18.88,30.19l14.84,11.58c1.27.99,1.75,2.02,2.2,3.31-.47.2-.62.7-.57,1.18l1.59,14.49c.43,3.93.98,7.67.5,11.45-.5-.65-.93-1.22-1.26-2.3-5.31-17.3-19.02-29.55-36.98-30.5l-.54-8.71c-.63-9.99-1.5-19.61-.24-29.49.11-.83.79-1.17,1.58-1.2Z"/>
      <path class="cls-9" d="M90.76,347.78l15.98,2.37c6.34.94,12.59,1.48,18.65,3.66l10.8,5.27,2.6,2.3c1.08.95,2.11,1.84,2.41,3.26-1.41-.73-3.39-1.14-5.89-1.26l19.86,9.08,9.11,4.79c2.12,1.12,3.98,2.38,5.44,4.6-3.04.49-5.5-.28-7.55,1.75,4.47-1.36,8.31-1.34,12.26.06.77.72,1.76,1.61,2.6,2.07.3.85.66,2.07,1.48,3.11,4.55,5.77,7.86,12.09,11.45,18.53l10.97,19.69,18.79,30.05-1.99-7.8c1.95.27,2.63,1.66,3.55,2.53l.53-.43c-2.09-4.79-6.22-8.17-10.76-11.25l-7.74-12.65-14.42-27.74c6.02-3.76,12.76-5.26,19.54-3.67-.52-1.33-1.85-1.52-3.13-1.69-5.99-.82-11.67.78-16.98,3.4l-5.05-11.38c-.73-1.65-1.77-3.09-3.03-4.01,5.53-3.66,11.95-5.65,18.57-5.59,2.18.02,4.01,1.01,5.94,1.86l2.57,5.27,3.7,12.57c.58,1.98,3.1,2.88,3.93,5.11l9.91,26.59,10.01,30.36c-4.23,6.98-7.34,14.6-9.48,22.76l-7.17,27.35c-9.26,1.97-18.07-.69-26.03-5.88l-3.56-2.32c.34.05.7-.36.57-.42l-1.01-.49-8.78-8.01-32.19-36.05c-2.41-2.7-3.88-5.13-4.68-8.73-1.98-8.89-3.03-17.48-2.44-26.85-.93,1.23-1.06,2.87-1.14,4.34-.49,8.24.81,15.98,3.38,24.35-2.57-.51-3.3-2.67-4.78-3.76l-.58.85,6.29,10.05,16.53,29.08,20.96,30.56c.6.88,1.22,1.48,2.09,1.81l1.35,54.91c.02.65-1.3.85-1.55.72-10.56,1.4-21.13,2.49-31.78,2.47l-7.22-.07h-3s-1.2-.12-1.2-.12c-19.62-.72-38.86-5.26-56.28-14.4l-7.24-4.46c1.89-3.47,2.96-7.97,5.86-10.91,2.83-1.51,6.82-1.89,10.01-2.57,8.77-1.87,16.24-5.41,22.88-11.49,6.82-6.25,12.37-13.95,15.55-22.7l4.8-13.23c-31.14-1.49-52.98,18.82-56,48.78l-4.92,9.32-2-17.14c.15-8.04,1.91-15.79,3.32-23.6l6.01-5.01c20.63-17.17,23.28-35.67,20.45-62.4-10.13,5.6-18.2,12.76-23.99,22.29-8.71,14.32-9.43,28.78-4.89,44.86l-2.94,14.67c-3.13-13.72-6.7-27.03-10.98-40.61-1.06-3.36,6.62-19.74-1.44-39.88-2.79-6.98-6.22-13.22-11.09-19.03l-.83-12.36-.02-9.68c-1.27,2.02-.82,4.26-1.03,6.68l-.94,10.92c-1.51-.24-1.57-1.35-2.11-1.87l.41-14.5c.2-7.68,1.95-14.73,4.71-21.8,6.41-16.37,18.5-24.07,33.89-31.42,1.97-4.27,5.84-6.71,10.1-5.84ZM112.56,359.97c-2.07-1.09-4.34-.74-6.7-1.05l-22.5-2.97c5.43,2.99,11.56,4.12,17.71,4.08l11.49-.06ZM192.07,395.04c-.39-4.42-2.38-8.22-3.97-12.36.32,4.45,1.67,8.41,3.97,12.36ZM161.73,383.64c-1.64-.61-2.61.55-2.92,1.5,1.4-.37,2.29-.54,2.92-1.5ZM157.76,385.29l-.3.3.3.3.3-.3-.3-.3ZM134.97,441.65v.39s-.01.4-.01.4v.39s.02-.39.02-.39v-.8ZM135.93,444.12l.39-.78-.39.78ZM136.82,443.94l-.61.53.5.9.73-.61-.61-.82ZM222.06,451.59l-.5.58c.05.24.44.85.95.89.4.03.31-.59.13-.8l-.59-.67ZM223.13,453.64l-.3.3.3.3.3-.3-.3-.3Z"/>
      <path class="cls-16" d="M23.54,405.9c6.52,4.57,12.34,9.91,18.11,15.43.54.52.6,1.63,2.11,1.87l.94-10.92c.21-2.42-.24-4.66,1.03-6.68l.02,9.68.83,12.36c4.87,5.81,8.3,12.05,11.09,19.03,8.06,20.14.38,36.52,1.44,39.88,4.28,13.58,7.85,26.89,10.98,40.61l2.94-14.67c-4.55-16.07-3.82-30.54,4.89-44.86,5.8-9.53,13.86-16.69,23.99-22.29,2.83,26.73.18,45.23-20.45,62.4l-6.01,5.01c-1.41,7.81-3.17,15.57-3.32,23.6l2,17.14,4.92-9.32c3.01-29.96,24.86-50.27,56-48.78l-4.8,13.23c-3.17,8.74-8.73,16.45-15.55,22.7-6.64,6.08-14.11,9.63-22.88,11.49-3.19.68-7.18,1.06-10.01,2.57-2.9,2.94-3.97,7.44-5.86,10.91-2.05-1.32-4.5-2.43-5.57-4.67-.28-4.76.49-10.17-1.77-14.56l-5.47-10.63c-.75-1.45-1.88-2.02-2.58-2.87-1.52-1.85-2.79-5.3-5.39-6.58-2.44-1.2-5.91-.78-8.66-.98-6.89-.48-12.98-2.07-18.99-4.64-5.3-2.81-10.18-6.5-14.56-10.98l-12.96-13.29c6.54-2.88,13.32-4.12,20.1-3.76,17.96.95,31.67,13.2,36.98,30.5.33,1.08.76,1.66,1.26,2.3l9.27,12.1c-2.96-13.76-6.36-26.63-10.78-39.22-.45-1.28-.93-2.32-2.2-3.31l-14.84-11.58c-9.04-8.27-15.44-18.65-18.88-30.19-3.85-12.89-3.75-26.68-2.25-40.45,2.13.71,3.56,1.51,4.89,2.45Z"/>
      <path class="cls-9" d="M70.38,551.61c-3.23-1.19-5.47-3.91-8.41-6.44l-1.42-21.63c.7.86,1.84,1.43,2.58,2.87l5.47,10.63c2.26,4.39,1.49,9.8,1.77,14.56Z"/>
      <path class="cls-9" d="M58.34,516.11c.47-3.79-.07-7.52-.5-11.45l-1.59-14.49c-.05-.48.1-.99.57-1.18,4.42,12.59,7.83,25.46,10.78,39.22l-9.27-12.1Z"/>
      <path class="cls-13" d="M154.83,264.63c2.44,4.41,3.83,9.23,5.1,13.98-1.58,1.3-2.47,3.12-3.03,5.33.98-.35,1.31-.76,2.52-.75-.21,1.4-.19,2.55.64,3.1-.76,3.37-.39,6.34,1,9.73,3.37,8.23,4.32,17.77,1.9,26.18-.96,3.33-2.3,6.14-2.23,9.81.06,3.04-3.04,5.66-6.41,5.29.96,1.8,2.48,2.25,4.02,3.73,1.91-2.99,4.61-4.52,8.4-5.4-1.12-1.46-2.53-2.21-2.71-3.5-.44-3.18.25-6.29,1.26-9.35,2.03.3,3.05,1.92,4.8,2.74l1.52,1.8,10.41,6.98c2.47,1.65,3.97,3.76,4.84,6.57l7.51,24.06,4.44,11.89c-6.62-.06-13.04,1.93-18.57,5.59l-1.21.53c-1.02-2.79-2.07-5.57-3.87-8.22-7.57-2.48-11.8-8.68-15.12-15.69-1.25-1.23-4.27-2-3.62-4.95.48-2.16-1.3-5.25-3.67-5.49l-5.18-6.24c-1.01-1.22-.92-2.84-.33-4.43l-5.95-.49c-3.8-.31-5.01,14.71-5.12,21.63l-10.8-5.27c-6.07-2.18-12.31-2.72-18.65-3.66l-15.98-2.37c3-6.66,4.1-13.64,5.14-20.69l4.13-.94c2.77-.69,4.86-.49,7.64-.5,1.09,0,2.72-1.67,4.24-.32,3.09-1.49,5.49-3.5,6.75-6.44,2.26-2.17,4.05-4.98,5.19-8.08l1.83-1.1c.91,2.55,2.98,5.07,5.55,6.41s5.59,1.1,7.08-1.56c-4.85,1.12-8.57-3.95-11.14-8.53-2.14-3.83-1.85-8.97.51-12.75,1.32-2.12,3.3-3.38,5.44-3.33,4.63.11,6.07,4.72,7.84,6.12.82.65,3.02.74,3.62-.35,1.5-2.73-3.03-8.84,4.94-16.13,2.57-2.35-.18-7.08-.07-9.08.08-1.46,3.14-1.26,3.42-4.35.13-1.42,1.55-1.08,1.96-1.53Z"/>
      <path class="cls-6" d="M123.85,310.8c-1.14,3.1-2.92,5.92-5.19,8.08-.08-.27-.35-.54-.56-.59-.98-.27-8.88,3.84-15.26,4.23l-7.21.58c-.04-.53-.38-1.5-.67-2.02.44-.4.76-1.9,1.5-2.09,4.55-1.19,8.91-2.12,13.3-3.57l14.08-4.62Z"/>
      <path class="cls-6" d="M125.68,309.7c-.41-1.15.29-2.9,1.49-3.67,2.56,4.58,6.28,9.65,11.14,8.53-1.49,2.65-4.46,2.93-7.08,1.56s-4.64-3.86-5.55-6.41Z"/>
      <path class="cls-6" d="M118.67,318.88c-1.26,2.94-3.66,4.96-6.75,6.44-1.52-1.36-3.14.31-4.24.32-2.78.02-4.87-.19-7.64.5l-4.13.94-.27-3.98,7.21-.58c6.39-.39,14.28-4.5,15.26-4.23.2.06.48.32.56.59Z"/>
      <path class="cls-14" d="M165.3,322.8c-1.01,3.06-1.7,6.17-1.26,9.35l-3.31-.14c-.07-3.66,1.27-6.48,2.23-9.81.96-.03,1.73.5,2.34.59Z"/>
      <path class="cls-14" d="M160.06,286.29c-.83-.55-.86-1.7-.64-3.1-1.21,0-1.54.4-2.52.75.56-2.21,1.45-4.03,3.03-5.33.67,2.51.71,5.14.13,7.68Z"/>
      <path class="cls-8" d="M152.77,348.61c-.38,1.31-.56,2.72.35,4.07.59.88,1.91,1.57,3.32,1.41-.66,2.96,2.37,3.72,3.62,4.95,3.32,7.01,7.55,13.22,15.12,15.69,1.8,2.65,2.86,5.43,3.87,8.22-.93.41-1.53,1.64-2.01,2.77-.83-.47-1.82-1.36-2.6-2.07l-3.94-3.64c-7.13-5.21-14.87-8.9-23.1-12.15l-6.21-3.22c-.3-1.42-1.33-2.31-2.41-3.26l-2.6-2.3c.11-6.93,1.32-21.95,5.12-21.63l5.95.49c-.59,1.6-.68,3.21.33,4.43l5.18,6.24Z"/>
      <path class="cls-16" d="M188.65,500.51l-6.14-4.62.36,21.35c-.87-.33-1.49-.93-2.09-1.81l-20.96-30.56-16.53-29.08-6.29-10.05-.28-.37-.5-.9c-.04-.08-.09-.21-.28-.35l.39-.78.51.6.61.82s.08.09.14.13c1.48,1.09,2.21,3.25,4.78,3.76-2.57-8.38-3.87-16.11-3.38-24.35.09-1.47.21-3.11,1.14-4.34-.59,9.37.46,17.96,2.44,26.85.8,3.59,2.26,6.02,4.68,8.73l32.19,36.05,8.78,8.01,1.01.49c.13.06-.23.48-.57.42ZM142.16,448.84l-.3.3.3.3.59-.3-.59-.3Z"/>
      <path class="cls-16" d="M177.04,385.73c.48-1.13,1.08-2.36,2.01-2.77l1.21-.53c1.26.92,2.3,2.36,3.03,4.01l5.05,11.38c5.32-2.62,10.99-4.22,16.98-3.4,1.28.18,2.61.37,3.13,1.69-6.77-1.59-13.52-.09-19.54,3.67l14.42,27.74,7.74,12.65c4.53,3.09,8.66,6.46,10.76,11.25.03.09.18.13.24.17l.59.67c.19.21.27.84-.13.8-.51-.04-.91-.66-.95-.89-.05-.1-.17-.21-.28-.32-.93-.88-1.6-2.26-3.55-2.53l1.99,7.8-18.79-30.05-10.97-19.69c-3.59-6.44-6.9-12.76-11.45-18.53-.82-1.04-1.19-2.26-1.48-3.11ZM217.13,448.24l-.3.3.3.3.3-.3-.3-.3Z"/>
      <path class="cls-16" d="M141.2,364.64l6.21,3.22c8.22,3.25,15.96,6.94,23.1,12.15l3.94,3.64c-3.95-1.4-7.8-1.42-12.26-.06,2.05-2.03,4.51-1.26,7.55-1.75-1.46-2.22-3.32-3.48-5.44-4.6l-9.11-4.79-19.86-9.08c2.49.13,4.48.54,5.89,1.26Z"/>
      <path class="cls-16" d="M112.56,359.97l-11.49.06c-6.15.03-12.28-1.09-17.71-4.08l22.5,2.97c2.36.31,4.63-.04,6.7,1.05Z"/>
      <path class="cls-16" d="M192.07,395.04c-2.3-3.95-3.65-7.91-3.97-12.36,1.58,4.14,3.58,7.94,3.97,12.36Z"/>
      <path class="cls-9" d="M161.73,383.64c-.63.97-1.53,1.13-2.92,1.5.32-.95,1.29-2.12,2.92-1.5Z"/>
      <polygon class="cls-16" points="134.97 441.65 134.98 442.04 134.98 442.45 134.97 442.84 134.96 442.45 134.96 442.04 134.97 441.65"/>
      <rect class="cls-16" x="222.92" y="453.72" width=".42" height=".42" transform="translate(-255.66 290.83) rotate(-45.01)"/>
      <rect class="cls-9" x="157.55" y="385.38" width=".42" height=".42" transform="translate(-226.48 224.56) rotate(-45.01)"/>
      <path class="cls-8" d="M164.04,332.15c.18,1.29,1.59,2.03,2.71,3.5-3.79.88-6.5,2.41-8.4,5.4-1.54-1.48-3.07-1.94-4.02-3.73,3.37.36,6.47-2.26,6.41-5.29l3.31.14Z"/>
      <path class="cls-14" d="M156.44,354.09c-1.41.16-2.72-.53-3.32-1.41-.91-1.35-.73-2.76-.35-4.07,2.37.23,4.15,3.32,3.67,5.49Z"/>
      <polygon class="cls-9" points="142.16 448.84 142.76 449.14 142.16 449.44 141.86 449.14 142.16 448.84"/>
      <rect class="cls-9" x="216.92" y="448.33" width=".42" height=".42" transform="translate(-253.6 285) rotate(-45.01)"/>
      <path class="cls-15" d="M430.99,414.05c.54,1.29,1.64,2,3.08,2.2l20.19,2.84-1.45,5.73-6.47,20.42-.6,2.44-8.79,28.74-1.62,5.43c-1.05-.05-1.7-.49-2.81-1.49-.36,1.04-.65,1.95-1.48,2.1.83-2.71.11-7.33-2.74-7.14s-3.94,8.19-9.09,15.74c-1.35,1.98-2.87,3.71-3.7,5.76-9.01-1.44-17.97-2.92-26.91-5.59-1.21-.36-2.19-.58-3.25-.27-1.58-7.28-4.15-14.32-7.29-21.12,3.2,1.26,5.84.53,5.71-.91s-3.51-1.87-7.02-1.91l-5.8-7.27c.58-.99,1.86-.84,2.99-.65l11.42,1.93c1.05.18,1.64-.77,1.57-1.58-.07-.7-.66-1.26-1.7-1.35-7.02-.62-13.61-2.03-20.19-3.86l-12.28-6.21c1.24-.25,1.3-.94,1.64-2.04l9.69-31.02,2.6-6.36c.44-1.07,1.88-1.46,3.15-1.53l58.12,8.15c1.5.21,2.32,0,3.03-1.17ZM370.07,442.24c.02,1.39.63,2.76,1.83,3.89,4.33,4.08,10.51,3.6,14.98.13,5.23-4.07,8.05-10.85,5.28-17.4-2.62-6.19-9.79-8.23-15.69-5.03-5.83,3.16-8.95,9.83-7.71,16.42.17.89.72,1.61,1.32,2ZM435.43,436.24c1.85.28,2.29-3.94.87-4.15l-32.89-4.88c-1.33-.2-1.68,1.04-1.94,1.62-.21.46-.33,2.26.42,2.37l33.53,5.03ZM430.68,445.49c1.38.23,2.1.05,2.63-.72s.46-2.47-.48-2.63l-32.44-5.28c-1.38-.22-1.86,1.24-1.76,2.04.16,1.29.95,1.46,2.29,1.68l29.77,4.91ZM416.15,452.08c1.19.18,1.98-1.25,1.84-1.74-.19-.67-.69-1.07-1.67-1.23l-18.36-2.89c-1.11-.17-1.62.4-1.91,1.1-.24.56-.06,1.74.94,1.89l19.16,2.87ZM425.13,468.24c1.23.21,1.79-1.25,1.66-1.71-.1-.34-.15-1.06-.9-1.19l-32.22-5.48c-1.19-.2-1.75.63-1.85,1.27-.21,1.46.66,1.52,1.87,1.72l31.43,5.38ZM422.16,475.21l-24.21-4.13c-4.76-.81-6.35-2.09-8.12-1.35-.49.21-.9,1.54-.43,2.19l32.48,6.32c1.18-.13,1.77-.72,1.82-1.53.04-.6-.4-1.3-1.55-1.5ZM418.02,485.02l-16.01-3.06-13.14-2.94c-1.07-.24-1.79.51-1.8,1.3,0,.63.45,1.41,1.45,1.16l26.84,5.85c1.38.3,2.98-.4,2.66-2.3Z"/>
      <path class="cls-15" d="M414.78,498.6c-1.11,4.8-1.76,9.76-1.56,14.98.18,4.59-1.33,8.61-3.82,12-.54-1.55-1.55-2.6-3.35-2.7-5.47-.32-9.49-2.36-14.24-2.76l-3.23-15.52c1.63-.2,3.1.13,4.75.46l9.48,1.92c.97.2,1.48-.51,1.72-.93.19-.34.14-1.59-.37-1.68l-16.47-2.86-1.73-7.75,24.5,5.14,4.33-.3Z"/>
      <path class="cls-8" d="M409.4,525.58c-.66.9-.82,2.47-1.22,3.51-2.66-.15-5.43.89-7.12,3.18l-3.75,5.05c-.25.34-.89.59-1.6.85l-3.9-18.06c4.75.4,8.77,2.44,14.24,2.76,1.81.11,2.82,1.15,3.35,2.7Z"/>
      <path class="cls-8" d="M415.5,496.81l-.72,1.78-4.33.3-24.5-5.14-.61-2.81c1.06-.31,2.04-.09,3.25.27,8.94,2.67,17.9,4.15,26.91,5.59Z"/>
      <path class="cls-8" d="M370.95,459.75l-3.89-3.43c-.78-.69-2.04-.8-2.02-2.08,6.58,1.82,13.17,3.23,20.19,3.86,1.04.09,1.64.66,1.7,1.35.08.81-.51,1.75-1.57,1.58l-11.42-1.93c-1.14-.19-2.41-.34-2.99.65Z"/>
      <path class="cls-8" d="M388.57,504.6l-.89-3.08,16.47,2.86c.51.09.56,1.35.37,1.68-.24.42-.75,1.13-1.72.93l-9.48-1.92c-1.65-.34-3.12-.66-4.75-.46Z"/>
      <path class="cls-8" d="M378.06,469.83l-1.3-2.82c3.51.04,6.9.46,7.02,1.91s-2.51,2.18-5.71.91Z"/>
      <path class="cls-7" d="M386.88,446.25c-.05-3.46-2.29-4.97-5.17-6.94,5.51-2.37,5.66-9.36,3.53-11.06-1.05-.85-2.49-1.24-4.07-.9-2.42.51-3.7,2.75-4.26,4.45-.85,2.55-.39,4.62,1.11,6.63-1.71,1.14-3.23.85-4.45,1.65l-3.51,2.17c-.59-.39-1.15-1.11-1.32-2-1.23-6.59,1.89-13.26,7.71-16.42,5.9-3.2,13.07-1.16,15.69,5.03,2.77,6.55-.05,13.33-5.28,17.4Z"/>
      <path class="cls-9" d="M386.88,446.25c-4.47,3.47-10.65,3.95-14.98-.13-1.2-1.13-1.81-2.49-1.83-3.89l3.51-2.17c1.21-.8,2.74-.51,4.45-1.65-1.51-2.01-1.96-4.08-1.11-6.63.57-1.7,1.84-3.94,4.26-4.45,1.58-.33,3.01.06,4.07.9,2.13,1.71,1.98,8.69-3.53,11.06,2.88,1.98,5.12,3.48,5.17,6.94Z"/>
      <path class="cls-9" d="M435.43,436.24l-33.53-5.03c-.75-.11-.63-1.91-.42-2.37.26-.58.61-1.82,1.94-1.62l32.89,4.88c1.42.21.97,4.42-.87,4.15Z"/>
      <path class="cls-7" d="M430.68,445.49l-29.77-4.91c-1.34-.22-2.12-.38-2.29-1.68-.1-.8.38-2.26,1.76-2.04l32.44,5.28c.95.15.99,1.89.48,2.63s-1.24.95-2.63.72Z"/>
      <path class="cls-8" d="M425.13,468.24l-31.43-5.38c-1.21-.21-2.08-.26-1.87-1.72.09-.64.66-1.47,1.85-1.27l32.22,5.48c.75.13.8.85.9,1.19.13.46-.44,1.92-1.66,1.71Z"/>
      <path class="cls-8" d="M422.16,475.21c1.15.2,1.59.9,1.55,1.5-.05.81-.64,1.41-1.82,1.53l-32.48-6.32c-.47-.65-.06-1.99.43-2.19,1.76-.74,3.35.53,8.12,1.35l24.21,4.13Z"/>
      <path class="cls-8" d="M418.02,485.02c.32,1.9-1.29,2.6-2.66,2.3l-26.84-5.85c-1,.25-1.45-.53-1.45-1.16,0-.79.73-1.54,1.8-1.3l13.14,2.94,16.01,3.06Z"/>
      <path class="cls-8" d="M416.15,452.08l-19.16-2.87c-1-.15-1.18-1.32-.94-1.89.3-.7.81-1.27,1.91-1.1l18.36,2.89c.98.15,1.48.56,1.67,1.23.14.49-.65,1.92-1.84,1.74Z"/>
      <path class="cls-5" d="M277.4,432.53c.78,2.91,8.63,5.35,13.14,6.16,9.57,1.73,19.08,1.87,28.68.33l10.32-1.66c3.87-.62,6.44,3.05,9.89,4.61l13.32,6.04,12.28,6.21c-.01,1.28,1.25,1.39,2.02,2.08l3.89,3.43,5.8,7.27,1.3,2.82c3.14,6.8,5.7,13.84,7.29,21.12l.61,2.81,1.73,7.75.89,3.08,3.23,15.52,3.9,18.06,5.34,23.44c.35,1.53-1.11,3.65.83,5.18.78-4.39-.2-8.06-.37-12.73l4.11,4.71c.21-4.24-2.52-7.34-5.31-10.41l-2.99-11.05,3.75-5.05c1.7-2.29,4.46-3.34,7.12-3.18,5.2.3,10.67,1.92,14.52,5.91,1.37,1.42,2.08,3.34,3.74,4.17,2.2,4.56,2.97,9.57,1.85,15.04-2.49,12.14-7.42,23.7-14.57,33.82-.78,1.11-1.37,1.78-.68,2.86-.72.08-1.83-.16-2.33.79-1.5,2.84-3.78,4.64-6.31,6.17-.64.39-1.4.67-1.71,1.48-.32,0-.92.3-1.19.49-7.4,4.94-16.44,5.98-25.1,4.23-.17.13-.45.13-.63.1l-9.03-4.2c-.17.11-.31.04-.41-.01l-5.82-6.18c-3.78-5.65-6.74-11.79-8.54-18.65l-8.83-33.78-5.01-25.34v-16.01c0-2.49,1.16-4.85.68-7.57-2.04,4.3-2.14,9.13-2.05,13.98l.15,7.65,1.61,13.67-7.19-11.94c1.6,7.24,4.36,13.53,7.11,20.11l.46,24.42,1,35.36c-10.84.35-21.66-.31-32.42-1.3-.4-.04-.86.05-1.27-.11-1.15-.43-2.43-.28-3.63-.45l-1.16-.16c-1.02-.14-2.04-.29-3.09-.31h-.51s-9.62-1.85-9.62-1.85c-.14-.03-.44.02-.55.1l-7.9-1.91-1.08-.23c-.65-.14-1.28-.34-1.95-.3l-.55.03c-.59-.79-1.8-.58-2.46-.76l-8.42-2.38-12.47-3.45c-1.1-.31-2.05-.7-3.02-1.27l-.59.02c.06-.18-.04-.5-.13-.65l-2.53-18.37-5.3-31.86c-2.43-14.63-4.18-28.9-4.56-43.68-.05-1.89,1.59-3.94-.12-5.78-.59,2.29-.87,4.62-1,6.77l-.62,10.28-2.86,54.13-.71,23.21-1.05-.14-11.96-3.78c-8.13-7.88-6.76-26.4-4.63-38.13l4.46-24.62,7.17-27.35c2.14-8.16,5.25-15.78,9.48-22.76,3.37-5.55,7.97-10.44,13.68-13.99l20.75-9.24c2.98-1.33,5.07-2.49,8.08-2.83ZM331.09,514.79l-.3.3.3.3.3-.3-.3-.3ZM406.79,561.55c.59-1.65-.3-2.06-.88-2.4-.54,1.27.05,2.01.88,2.4Z"/>
      <path class="cls-2" d="M375.78,604.15c-.6.63-1.57.59-2.52.12l-5.16-2.58c-.71-.35-1.28-.83-1.35-1.74l9.03,4.2Z"/>
      <path class="cls-14" d="M346.98,334.32l-.89.02c-.35,0-.6-.28-.35-.62.22-.24.6-.32.93-.02.17.15.23.4.31.62Z"/>
      <path class="cls-14" d="M347.59,335.53c-.46-.4-.76-.94-.87-1.51.44.46.77.89.87,1.51Z"/>
      <path class="cls-14" d="M348.73,343.96l-.67-.58-.04-4.2c0-.6-.06-1.21-.16-1.8l-.33-1.91-1.1-1.91c.99.43,1.66,1.36,1.77,2.43.2,1.97,1.48,6.22.53,7.97Z"/>
      <path class="cls-14" d="M294.59,286.7c2.89,1.37,5.28,3.57,7.61,6.03-.72,1.01-1.23,1.54-1.07,3.08,6.23-1.39,10.43,2.7,11.61,8.03l-.1,6.4,1.99,3.65c4.37.45,8.77.87,12.46,3.17,1.7,1.06,3.87,1.23,5.49,1.43,1.5,3.57,5.72,6.74,9.15,6.37-.03.18.07.29.21.35l.9.39.6.49c-.11.28-.4.68-.73.4-.17-.2-.3-.24-.37-.28l-.95-.48-.26-.08c-.26-.12-.7-.47-1.44-.07l4.59,7.67c1.46-1.49.78-3.24.17-4.54-.05-.1-1.52-2.02-1.74-2.16l.73-.46,1.62,2.01c.88,1.53.84,3.72.68,5.62-.36-.14-1.7,0-1.64.62l.34,3.06c.05.48-.75,1.39-.34,2.21.91,1.82-.96,3.03-1.17,4.01.05,2.92,1.09,5.77-.3,8.59l-3.54,1.32c1.12,1.9.35,3.58.32,5.43l-.13,8.93c-.02,1.1-.75,1.92-1.6,2-.93.1-1.56-.49-2.01-1.6-1.1-2.68-4.53-5.03-7.25-3.37-4.36,2.66-4.6,7.94-4.34,12.62.15,2.8-2,5.45-2.53,8.02-.47,2.28-2.48,3.41-3.36,5.02-1.2,2.18-2.09,2.99-3.93,4.75-1.04.99-1.57,4-3.85,3.49-.88-.19-1.95.58-3.1.65-6.75.42-11.25,2.24-16.5,1.91l.07,1.31c.01.24-.46.39-.73.31-.02-.28.24-.77-.04-1.13-.11-.14-.37-.25-.6-.23-.07-.73-.71-1.29-1.54-1.02-.5.16-1.12.57-1.7,1.54-1.2-.87.05-1.58,1.52-3.15l-7.88-5.5-1.08-.7c-2.65-1.73-4.8-3.43-5.56-7.12l-.96,1.21c-.17.21-.93-.47-1.1-.87l-3.79-9.28-1.63-3.88c-.73-1.74-1.64-4.57-1.35-6.09l.57-2.95c1.56-.99,2.18-2.73,1.49-5.3,3.49,2.05,6.5,3.28,9.74,1.57,1.16-.62,2.05-1.36,3.7-1.27.13,1.4-.18,2.5.5,3.82.88-1.28.36-2.38.56-3.67,3.32.15,5.52-1.34,6.85-4.25,5.24,2.08,9.2-1.61,12.13-6.86,3.65-.38,5.9-3.24,6.24-6.95,4.87-2.84,7.59-7.94,6.38-13.36l-5.17,3.45c.25,3.02.07,6.18-2.12,8.33-1.6,1.57-3.56,2-5.56.83.27,2.98-1.17,4.94-2.53,6.46-1.95,2.18-4.54,1.15-6.74,1.64-1.13,1.43-2.23,3.91-3.62,4.44-2.23.86-4.32.59-6.61-.58-2.06,4.45-8.47,6.12-12.14,2.83-.75-.67-.23-3.5-2.34-3.29-1.49.15-2.32,1.5-2.88,2.42-2.51,2.35-6.95,1.03-9.72-.79-2.52-1.65-3.07-4.07-3.54-6.73-1.48-.5-3.38-1.19-3.96-2.43-.77-1.64-.34-3.12.18-5.03-2.69-.87-6.26-3.04-5.92-5.91s.26-3.68-.95-6.01c-1.35-2.62.98-6.59,3.01-8.38,1.44-1.27,1.7-2.71.54-4.08-1.8-2.13-1.54-12.48,6.87-16.29,1.49-.68,3.75-.39,5.48-.34l.28-3.95c.73-.12,1.2-.58,1.69-1.38l1.99-3.23c3.38-1.87,7.09-1.84,10.86-.59,1.95-2.37,4.45-4.27,7.43-4.51,3.38-.27,5.78,1.6,8.15,3.51,2.66-1.05,6.34-2.66,9.34-1.24Z"/>
      <path class="cls-6" d="M264.43,366.79c-.29-.11-.5-.16-.63-.11-.08-.5-.34-.94-.78-1.18l.17-1.13.02-1.3v-1.17s.98-6.13.98-6.13c.1-.63.16-1.41-.26-1.72-.2-.15-.69-.06-1.07.03.56-.91,1.39-2.27,2.88-2.42,2.11-.21,1.59,2.62,2.34,3.29,3.67,3.29,10.07,1.62,12.14-2.83,2.3,1.17,4.38,1.44,6.61.58,1.38-.53,2.49-3.01,3.62-4.44,2.21-.5,4.8.54,6.74-1.64,1.37-1.53,2.81-3.48,2.53-6.46,2,1.17,3.96.74,5.56-.83,2.19-2.15,2.37-5.3,2.12-8.33l5.17-3.45c1.21,5.42-1.51,10.51-6.38,13.36-.34,3.72-2.59,6.57-6.24,6.95-2.94,5.26-6.9,8.94-12.13,6.86-1.33,2.91-3.53,4.4-6.85,4.25-.21,1.29.32,2.39-.56,3.67-.69-1.32-.37-2.42-.5-3.82-1.65-.09-2.53.65-3.7,1.27-3.24,1.71-6.24.49-9.74-1.57.69,2.57.07,4.3-1.49,5.3l-.57,2.95ZM265.04,362.56c.59-.63.55-2.38.12-3.66-.02,0-.18.12-.33.32-.03,1.08-.2,2.22.21,3.34Z"/>
      <path class="cls-8" d="M255.13,294.16l-.28,3.95c-1.73-.05-3.99-.33-5.48.34-.22-2.39,2.74-3.81,5.76-4.29Z"/>
      <path class="cls-1" d="M404.41,597.86c.31.48.27,1.19-.21,1.39s-1.02.08-1.5.09c.31-.81,1.06-1.09,1.71-1.48Z"/>
      <path class="cls-4" d="M249.11,580.68l-1.19.12c-.22.05-.42-.09-.64-.16l-15.87-5.26.71-23.21,2.86-54.13.62-10.28c.13-2.14.41-4.48,1-6.77,1.71,1.84.07,3.88.12,5.78.38,14.78,2.13,29.05,4.56,43.68l5.3,31.86,2.53,18.37Z"/>
      <path class="cls-4" d="M360.53,593.76c-6.96,1.36-13.76,1.68-20.6,1.9l-1-35.36-.46-24.42c-2.74-6.58-5.51-12.87-7.11-20.11l7.19,11.94-1.61-13.67-.15-7.65c-.1-4.86,0-9.69,2.05-13.98.48,2.73-.69,5.08-.69,7.57v16.01s5.02,25.34,5.02,25.34l8.83,33.78c1.79,6.86,4.75,13.01,8.54,18.65Z"/>
      <path class="cls-2" d="M339.93,595.66c6.84-.22,13.64-.54,20.6-1.9l5.82,6.18c-1.42,1.19-3.06.65-4.56-.12-1.73-.89-2.62-2.32-2.27-4.54-1.55-.12-2.44,1.08-3.29,2.14-4.25-1.39-8.88.71-12.72-.12-3.12-.68-5.53-.05-8.48-.11l-6.99-.16-17.2-1.02c-1.57-.09-3.07.16-3.35-1.65,10.77.99,21.58,1.65,32.42,1.3Z"/>
      <path class="cls-4" d="M395.71,538.17c.72-.26,1.35-.51,1.6-.85l2.99,11.05c2.79,3.07,5.52,6.17,5.31,10.41l-4.11-4.71c.18,4.67,1.16,8.33.37,12.73-1.94-1.53-.48-3.65-.83-5.18l-5.34-23.44ZM401.26,553.16l-.3.3.3.3.3-.3-.3-.3Z"/>
      <path class="cls-8" d="M247.28,580.64l-.97,1.08c-3.06-1.75-6.79-2.34-10.16-3.48l-5.54-1.89-.26-1.11,1.05.14,15.87,5.26Z"/>
      <path class="cls-2" d="M287.67,591.58c-1.44,1.08-3.31.03-5.22-.31-1.25-.23-2.76-.07-2.67-1.59l7.9,1.91Z"/>
      <path class="cls-4" d="M406.79,561.55c-.83-.39-1.42-1.13-.88-2.4.58.34,1.47.75.88,2.4Z"/>
      <rect class="cls-4" x="330.88" y="514.88" width=".42" height=".42" transform="translate(-267.27 385.1) rotate(-45.01)"/>
      <path class="cls-8" d="M289.5,401.67c.23-.02.49.09.6.23.28.36.02.85.04,1.13l.39,4.56-.76,2.78c-.35,1.25.66,2.76-.38,3.78-.91-1.27-.74-2.93-.57-5.1l-4.23.91c-.99.21-2.28-.1-2.69-.71-.5-.74-.41-1.98.13-2.85.48.08,1.63.23,2.05.83.19.28.09.87.8.93.77.06.61-.63.9-.79l2.72-1.51c.79-.44.3-1.48-.64-1.01-.08-.95.43-1.82-.04-3.2.54-.12,1.09,0,1.67.03Z"/>
      <path class="cls-8" d="M289.4,414.71l-.81,2.8c-.43,1.51-.28,2.54-.8,3.91-1.56-.43.14-3.04-.33-3.96-.22-.42-1.05-.41-1.93-.89-.69-.38.09-2.45.79-2.33l3.09.48Z"/>
      <path class="cls-14" d="M265.04,362.56c-.41-1.12-.24-2.26-.21-3.34.14-.19.31-.31.33-.32.42,1.28.47,3.03-.12,3.66Z"/>
      <path class="cls-13" d="M345.38,337.85c.38,1.98,1.23,4.2,2.69,5.53l.67.58c-1.36,2.51,3.52,7.91.63,19.92-.24,1.01.12,1.95.39,2.82l1.88,6.02,2.05,5.24c.79,2.01-.46,3.39-.64,5.07-.74,6.74-2.03,12.98-4.97,19.1.14,4.6-3.12,8.14-7.69,8.36-5.95.36-10.36-2.55-11.59,2.86-1.61,7.04-2.29,18.38.77,24.03l-10.32,1.66c-9.6,1.55-19.11,1.4-28.68-.33-4.51-.82-12.37-3.25-13.14-6.16,5.47-.61,8.61-6.41,10.39-11.12.52-1.37.37-2.4.8-3.91l.81-2.8v-.56c1.03-1.03.02-2.53.37-3.78l.76-2.78c1.04-2.19,4.19-3.85,6.63-2.57.81.43,1.61,1.57,2.11,1.35l1.93-.84c5.09-.79,9.49-2.06,9.21-6.7,2.28.5,2.82-2.5,3.85-3.49,1.84-1.76,2.73-2.56,3.93-4.75.88-1.61,2.89-2.74,3.36-5.02.53-2.56,2.69-5.21,2.53-8.02-.25-4.68-.01-9.96,4.34-12.62,2.72-1.66,6.15.69,7.25,3.37.45,1.1,1.08,1.69,2.01,1.6.85-.09,1.58-.9,1.6-2l.13-8.93c.03-1.86.79-3.54-.32-5.43l3.54-1.32c1.39-2.82.36-5.67.3-8.59.21-.99,2.09-2.19,1.17-4.01-.41-.82.4-1.73.34-2.21l.93.45ZM329.82,388.25c-7.39,3.11-6.78,13.07-1.49,17.44,3.3,2.43,7.33,2.31,10.85.38,2.86-1.56,4.65-4.89,4.75-8.85.13-4.87-2.79-10.87-8.42-10.4,4.63,2.92,7.21,5.56,7.06,10.22-.12,3.87-2.68,7.69-6.83,8.88-2.93.84-5.96-.48-7.85-2.78-3.98-4.86-1.99-10.74,1.92-14.89Z"/>
      <path class="cls-14" d="M354.13,364.28c-1.24,1.19-2.63,2.05-4.37,2.42-.27-.87-.63-1.8-.39-2.82,1.61.25,2.81-.19,4.92-1.31l-.16,1.71Z"/>
      <path class="cls-13" d="M431.03,482.46l-3.51,11.54c4.26-2.99,6.38-7.37,7.81-12.15l1.62-5.43c2.36-.13,4.01,1.64,5.15,3.95,2.27,4.58-2.15,10.1,1.47,12.46.07.86.69,2.16,1.23,2.87.17,9.64,2.37,13.49-5.01,21.92l-7,7.98c-1.15,1.31-2.28,1.98-2.92,3.8l-3.42,9.77c-1.66-.83-2.37-2.75-3.74-4.17-3.85-3.98-9.32-5.6-14.52-5.91.39-1.04.56-2.61,1.22-3.51,2.49-3.39,4-7.42,3.82-12-.2-5.22.45-10.18,1.56-14.98l.72-1.78c.82-2.05,2.35-3.78,3.7-5.76,5.15-7.55,6.28-15.55,9.09-15.74s3.57,4.43,2.74,7.14Z"/>
      <path class="cls-14" d="M310.41,398.83c.29,4.63-4.12,5.91-9.21,6.7l-1.93.84c-.5.22-1.3-.92-2.11-1.35-2.43-1.28-5.59.38-6.63,2.57l-.39-4.56c.27.07.75-.07.73-.31l-.07-1.31c5.25.32,9.75-1.5,16.5-1.91,1.16-.07,2.22-.85,3.1-.65Z"/>
      <path class="cls-5" d="M329.82,388.25c-3.92,4.15-5.91,10.03-1.92,14.89,1.89,2.3,4.92,3.62,7.85,2.78,4.15-1.19,6.72-5.01,6.83-8.88.14-4.66-2.43-7.3-7.06-10.22,5.62-.47,8.55,5.52,8.42,10.4-.11,3.95-1.89,7.28-4.75,8.85-3.52,1.93-7.55,2.05-10.85-.38-5.29-4.37-5.9-14.33,1.49-17.44Z"/>
      <path class="cls-8" d="M435.32,481.85c-1.43,4.78-3.55,9.16-7.81,12.15l3.51-11.54c.83-.15,1.12-1.06,1.48-2.1,1.11,1,1.77,1.44,2.81,1.49Z"/>
      <rect class="cls-5" x="401.05" y="553.25" width=".42" height=".42" transform="translate(-273.85 445.97) rotate(-45.01)"/>
      <circle class="cls-8" cx="286.44" cy="402.79" r=".46"/>
      <path class="cls-2" d="M285.79,407.37c-.29.16-.13.85-.9.79-.72-.06-.61-.65-.8-.93.57.07,1.1.12,1.7.14Z"/>
      <path class="cls-8" d="M549.28,571.11c2.64.06,5.18,1.42,7.69,2.25-1.5,2.07-4.89-1.83-8.33-.87-1.09.31-1.94.61-2.64-.13.81-.7,2.16-1.29,3.28-1.26Z"/>
      <path class="cls-14" d="M555.18,327.69c-3.54-1.79-7.14-3.42-11.4-2.85-2.57-1.74-5.52-2-8.49-2.4-2.25-1.04-4.27-1.33-6.6-.9-2.73-3.87-5.39-7.53-7.64-12.44-2.68,5.06-6.82,10.3-10.41,9.31-1.15-.32-2.54-1.04-2.97-2.53,6.26,1.56,8.36-4.1,10.96-9.74,2.01-4.36,1.29-10.06-1.89-13.76-2.02-2.35-5.52-1.53-7.4.35-3.14,3.14-3.53,5.85-6.35,4.64-3.04-1.31,1.07-10.2-4.44-15.56-1.78-1.73-2.53-3.24-1.78-5.8l2.47-8.41c-2.51-.58-4.18-1.74-5.94-2.61-2.28-1.12-2.93-1.83-2.49-4.87-1.28-1.23-2.8-2.16-2.78-4.06,0-1.23.64-2.78,1.67-3.8.76-.75,2.25-.9,3.69-1.35-1.24-1.81-1.69-3.64-.95-5.82,1.16-3.44,5.86-4.43,10.36-2.27.35-1.65.67-3.07,1.79-3.9,2.85-2.11,6.44-1.57,9.27,1.26.71-3.09,2.67-4.85,5.05-5.3,2.78-.52,5.17.54,6.81,3.34,1.6-2.17,3.29-3.05,5.58-2.7,1.75.27,3.17,1.39,4.2,3.66,1.56-2.44,4.22-2.92,6.77-1.99,2.26.82,3.56,3.12,3.65,6.41,2.54-1.78,5.14-2.07,7.59-.93,1.98.93,3,3.24,2.76,6.15,2.96-1.53,5.8-1.33,8.12.4s2.38,4.53,1.74,8.14c4.42-.72,8.03.28,9.88,3.58,1.64,2.91,1.53,6.43-1.53,9.52,3.91.49,5.91,3.32,5.73,6.93-.15,3.04-1.61,5.19-5.16,6.19,2.08,2.17,3,4.46,2.1,7.63-.56,1.97-2.65,3.61-5.36,4.33.92,2.33.48,3.93-.24,5.71-.6,1.47-2.73,2.01-4.1,2.81l-6.16,9.52c-2.92,4.51-6.18,9.01-6.12,14.14Z"/>
      <path class="cls-13" d="M528.7,321.54c2.45,3.48,6.19,5.56,10.85,6.29l15.64.53,2.27,13.05c-14,1.9-27.89,5.14-40.85,11.39-1.8.87-3.09,2.19-4.93,2.25l-3.89-14.78c-.24-.9-2.18-.95-3.07-.9l-12.42.76c-.72-.9-1.88-1.18-2.97-1.84-5.09-3.07-.73-8.87-5.71-13.43-1.41-1.29.1-3.61.64-4.79-4.32-4.59,1.21-6.69.19-9.3-.39-1.01-3.82-1.93-4.64-5.11-.99-3.85,6.16-8.05,8.24-13.14,1.04-2.55-.01-6.15-.31-8.59,1.28-.31,2.11.23,3.58,1.23-.41-2.32-.93-4.91-2.92-6.55l4.09-10.55c.44-1.12.89-2.15.82-3.08,1.76.87,3.43,2.04,5.94,2.61l-2.47,8.41c-.75,2.55,0,4.07,1.78,5.8,5.51,5.36,1.4,14.26,4.44,15.56,2.82,1.21,3.21-1.49,6.35-4.64,1.88-1.88,5.38-2.7,7.4-.35,3.18,3.7,3.9,9.4,1.89,13.76-2.6,5.64-4.7,11.3-10.96,9.74.43,1.5,1.82,2.21,2.97,2.53,3.58.99,7.72-4.25,10.41-9.31,2.24,4.91,4.91,8.57,7.64,12.44Z"/>
      <path class="cls-14" d="M555.18,327.69v.66s-15.63-.53-15.63-.53c-4.67-.73-8.4-2.81-10.85-6.29,2.33-.43,4.36-.14,6.6.9,2.97.4,5.91.66,8.49,2.4,4.26-.57,7.85,1.07,11.4,2.85Z"/>
      <path class="cls-14" d="M487.74,283.92c-.26-2.14-.06-3.46.66-5.32,1.99,1.64,2.51,4.23,2.92,6.55-1.47-1-2.3-1.54-3.58-1.23Z"/>
      <path class="cls-11" d="M598.93,400.71c2.75,1.61,3.44,4.14,7.21,2.94l.15,5.34c6.19,3.8,12.06,8,16.46,14.36-13.83-5-27.81-5.14-40.77.2-10.68,4.39-17.01,13.79-20.15,24.81-2.79,9.81-4.16,19.62-5.36,29.85l-3.48,29.79c-.08.65,1.97,1.45,2.73,1.26l6.58-48.28c.96-7.07,2.98-13.52,6.09-19.79,3.55-7.15,9.11-12.52,16.7-15.18,13.87-4.87,33.75-5,44.26,4.4,1.13,1.01,1.57,2.99,3.2,3.34,4.29,5.94,7.48,22.74,7.97,31.64l1.49,27.07c4.01,1.38,6.74,5.19,6.69,9.67-.16,15.76-1.8,31.46-3.98,47.14-.95,6.85-4.61,12.42-11.14,13.99l-6.85,1.65-10.55,4.26-2.24,1.26-9.68,2.08c-7.9,1.7-15.66,2.03-23.36,2.69l-8.96.77-2.97-.84-9.6-1.17-2.38-.59c-2.51-.83-5.05-2.19-7.69-2.25-7.64-4.46-16.44-8.34-18.82-16.75-.95-3.36-.8-7-.53-10.81l.76-10.74,12.12-84.14c1.63-11.3,5.6-21.34,12.17-30.52l6.15-6.12c-4.79-6.98-10.73-12.91-16.92-18.84l-6.62-6.34c-.82-3.63-4.03-5.01-2.3-5.33l16.96,10.8c5.21,3.32,10.36,6.28,16.15,8.39,2.53.93,4.09,2.88,4.81,5.54,2.19.69,4.17-.58,6.21-.8,5.13-.55,10.04-.51,15.17.02l.51-2.34,3.84-2.43ZM604.04,519.18c9.24-.76,17.89-1.1,26.58-3.19,5.44-1.07,10.89-1.48,15.79-4.24l-40.89,5.27c-9.33,1.2-18.22,1.05-27.62.23.14-4.33.11-8.43,1.52-12.41,1.32-3.73,5.36-5.84,9.25-5.67.51.02.45-1.18.06-1.15l-10.13.68c-3.79,1.05-5.76,5.07-6.22,8.89l-5.45,45.49c-.7,5.88,1.95,10.64,7.4,12.66,3.1,1.15,6.01,3.02,9.66,2.2l-5.56-1.7c-2.87-.88-5.13-4.86-4.78-8.33l3.92-39.33c8.69,1.56,17.2,1.38,26.46.62Z"/>
      <path class="cls-10" d="M616.98,395.21l3.94,9.93,5.86,20.64,5.76,7.97c-1.62-.34-2.07-2.33-3.2-3.34-10.51-9.41-30.39-9.28-44.26-4.4-7.59,2.67-13.15,8.03-16.7,15.18-3.11,6.27-5.13,12.72-6.09,19.79l-6.58,48.28c-.76.19-2.8-.62-2.73-1.26l3.48-29.79c1.2-10.23,2.57-20.05,5.36-29.85,3.14-11.02,9.47-20.42,20.15-24.81,12.96-5.33,26.94-5.2,40.77-.2-4.4-6.37-10.27-10.56-16.46-14.36l-.15-5.34c-3.77,1.2-4.46-1.33-7.21-2.94l3.39-3.46c1.08.95,3.12,1.09,3.6-.37.32-.99-.14-2.51-1.27-3.23,1.23-2.97,2.47-6.09,2.65-9.58.05-.9.1-1.51.77-1.98,3.7,3.74,6.96,8.21,8.92,13.12ZM623.17,423.06l-.3.3.3.3.3-.3-.3-.3ZM624.47,424.55h-.39s.39.02.39.02h.8s-.39-.02-.39-.02h-.4Z"/>
      <path class="cls-10" d="M607.08,380.97l-5.28,10.26c-11.99,15.02-30.82,6.52-45.65-2.81l-21.32-13.42c-10.37-6.53-27.19-8.83-37.18-.63,8.05-1.75,17.37,1.36,17.55.56l.33-1.46c7.1,1.86,13.86,4.2,19.76,8.05-1.73.32,1.48,1.7,2.3,5.33l-4.23-2.32-.51.54c6.32,5.57,12.05,11.69,16.39,19.24,2.52,3.78,4.37,7.67,5.54,12.13-8.13,11.03-13.23,23.15-16.77,36.36l-11.4,51.42-3.32,18.48c-.36,2.01,4.36,7.28,7.4,10.11l-.76,10.74c-.27,3.8-.42,7.44.53,10.81-1.17.07-1.75-.8-2.43-1.71l-9.58-12.85c3.82,8.25,8.43,15.49,13.38,22.8,2.78,4.1,5.88,7.47,9.54,10.61l-6.05,2.22c-1.29-.25-2.42.16-3.65.42l-19.75,4.03-24.06,3.72c-.06.2-.33.22-.47.13l-11.46.94c-.34.03-.88.02-1.09.1-.16.07-.27.29-.18.57-.41-.26-1.32,0-1.78-.05-.84-.08-1.96-.17-2.83.16-.15.06-.45,0-.63-.02.12-.2.06-.55-.29-.53l.8-2.93.03-9.64.03-2.96c.22.07.65.06.82-.07.19-.14.38-.63.38-1.1v-6.73c.01-.7-.33-1.14-1.01-1.16l.2-4.1c4.9.37,9.94.93,14.77-1.07,13.93-5.77,20.63-25,24.55-39.51l2.66-9.86,5.29-32.77c1.09-6.73,4.37-12.69,3.99-19.8-1.61,3.32-1.77,6.63-4.25,9.13l-.37-10.27c-.96-11.7-2.41-23.46-8.46-34.14,5.04,14.59,9.35,32.01,6.83,47.61-2.33,14.46-6.01,28.2-10.51,42.14-5.65,17.5-15.12,39.2-34.36,41.08-7.93.78-15.43-3.57-20.63-9.75s-7.97-13.63-10.11-21.39c7.38-8.43,5.19-12.27,5.01-21.92,1.05-.78.49-2.56,1.19-3.6l3.62-5.42,11.39-51.52,1.91-10.19,1.97-10.09,2.57-8.34c4.38-13.38,13.91-23.92,26.43-30.24.29.04.72.08.95-.02.36-.14.46-.65.29-.88-.26-.37-.61-.47-.98-.48.71-2.84,1.62-5.97,3.75-8.48,3.4-4.02,7.64-7.22,12.07-9.46.6.1,1.42.11,2.16-.26,5.57-2.82,11.04-5.75,17.18-7.38,7.26-1.93,14.68-1.69,22.19-1.92l23.75-.74c2.97-.09,5.88-.8,8.43-2.62-1.19-1.64-2.95-1.9-4.63-1.93l-11.39-.15c-.75,0-1.42-.37-1.65-.77-.13-.23-.16-.68-.1-.96,7.13-.97,14.43-1.15,21.8-.12,5.97.83,10.18,5.27,10.91,11.06,5.5,3.3,9.04,8.47,9.43,14.76.68,5.23-.22,10.16-.97,15.02ZM595.27,359.87c-5.88,2.74-11.09,4.51-16.79,3.63l-23.24-3.57-25.77-3.57c6.9,1.55,13.31,1.63,19.69,4.34l22.73,6.07c5.57.82,10.93,1.02,16.28-.58,3.1-.93,7.04-2.45,7.1-6.33ZM496.02,374.5l-.3.3.3.3.3-.3-.3-.3ZM531.64,383.93l.72-.32-.72.32ZM532.67,383.96l-.45.49c.07.1.2.25.35.32l.55-.48-.45-.33Z"/>
      <path class="cls-14" d="M537.59,386.85l6.62,6.34c6.19,5.93,12.12,11.86,16.92,18.84l-6.15,6.12c-6.57,9.17-10.54,19.21-12.17,30.52l-12.12,84.14c-3.04-2.82-7.76-8.1-7.4-10.11l3.32-18.48,11.4-51.42c3.54-13.22,8.64-25.33,16.77-36.36-1.17-4.46-3.02-8.35-5.54-12.13-4.34-7.54-10.07-13.66-16.39-19.24-.02-.13-.14-.24-.28-.31-.15-.07-.28-.22-.35-.32-.05-.07-.17-.22-.58-.51l.72-.32c.13.19.22.28.31.34l.45.33c.01.15.13.25.24.24l4.23,2.32Z"/>
      <path class="cls-14" d="M607.08,380.97l.99,1.12c-.67.47-.73,1.08-.77,1.98-.18,3.49-1.42,6.61-2.65,9.58l-2.32,3.61-3.39,3.46-3.84,2.43-.51,2.34c-5.12-.53-10.04-.57-15.17-.02-2.04.22-4.02,1.49-6.21.8-.72-2.66-2.28-4.61-4.81-5.54-5.78-2.11-10.94-5.08-16.15-8.39l-16.96-10.8c-5.9-3.85-12.66-6.19-19.76-8.05l-.33,1.46c-.18.79-9.5-2.31-17.55-.56,10-8.2,26.81-5.9,37.18.63l21.32,13.42c14.83,9.34,33.67,17.83,45.65,2.81l5.28-10.26Z"/>
      <path class="cls-10" d="M604.04,519.18c-9.27.76-17.77.95-26.46-.62l-3.92,39.33c-.35,3.48,1.91,7.46,4.78,8.33l5.56,1.7c-3.65.82-6.57-1.05-9.66-2.2-5.45-2.02-8.1-6.78-7.4-12.66l5.45-45.49c.46-3.82,2.43-7.84,6.22-8.89l10.13-.68c.39-.03.45,1.17-.06,1.15-3.89-.17-7.93,1.95-9.25,5.67-1.41,3.98-1.38,8.08-1.52,12.41,9.41.82,18.3.97,27.62-.23l40.89-5.27c-4.9,2.76-10.35,3.17-15.79,4.24-8.69,2.09-17.33,2.44-26.58,3.19Z"/>
      <path class="cls-14" d="M530.46,554.36c2.38,8.41,11.18,12.29,18.82,16.75-1.12-.03-2.48.56-3.28,1.26-.14-.01-.41-.03-.58,0l-4.05.83c-3.66-3.13-6.76-6.51-9.54-10.61-4.95-7.31-9.57-14.55-13.38-22.8l9.58,12.85c.68.91,1.26,1.78,2.43,1.71Z"/>
      <path class="cls-14" d="M565.9,340.25c-.06.29-.03.73.1.96.23.4.89.76,1.65.77l11.39.15c1.68.02,3.44.29,4.63,1.93-2.55,1.82-5.45,2.52-8.43,2.62l-23.75.74c-7.51.23-14.93,0-22.19,1.92-6.13,1.63-11.6,4.55-17.18,7.38-.74.38-1.56.36-2.16.26l1.72-1.94c1.84-.06,3.13-1.38,4.93-2.25,12.96-6.25,26.85-9.49,40.85-11.39l8.44-1.14Z"/>
      <path class="cls-11" d="M602.32,397.25l2.32-3.61c1.14.72,1.59,2.24,1.27,3.23-.47,1.47-2.52,1.32-3.6.37Z"/>
      <polygon class="cls-11" points="624.47 424.55 624.87 424.55 625.26 424.56 624.87 424.57 624.47 424.57 624.08 424.56 624.47 424.55"/>
      <rect class="cls-11" x="622.96" y="423.15" width=".42" height=".42" transform="translate(-116.81 564.8) rotate(-45.01)"/>
      <path class="cls-14" d="M470.37,556.21l.14-7.45c19.24-1.88,28.71-23.58,34.36-41.08,4.5-13.93,8.17-27.68,10.51-42.14,2.52-15.59-1.79-33.02-6.83-47.61,6.05,10.67,7.5,22.43,8.46,34.14l.37,10.27c2.48-2.5,2.64-5.81,4.25-9.13.38,7.11-2.9,13.07-3.99,19.8l-5.29,32.77-2.66,9.86c-3.91,14.51-10.61,33.74-24.55,39.51-4.83,2-9.87,1.44-14.77,1.07Z"/>
      <path class="cls-14" d="M462.9,424.96l-1.91,10.19-11.39,51.52-3.62,5.42c-.7,1.04-.14,2.82-1.19,3.6-.54-.71-1.16-2.01-1.23-2.87.54.06.83-.34,1.03-.85l3.24-8.2,3.18-14.91,4.83-24.74c-5.79.09-7.59,3.58-10.12,3.55l.6-2.44c2.8.84,5.35-2.64,10.15-3.78l1.54-6.89c.75-3.36,2.02-6.43,2.18-9.64l2.69.04Z"/>
      <path class="cls-14" d="M595.27,359.87c-.06,3.88-4,5.4-7.1,6.33-5.35,1.6-10.71,1.4-16.28.58l-22.73-6.07c-6.38-2.71-12.79-2.8-19.69-4.34l25.77,3.57,23.24,3.57c5.71.88,10.91-.89,16.79-3.63Z"/>
      <path class="cls-14" d="M493.88,376.29l.26-1.38c.36.01.71.11.98.48.17.24.07.74-.29.88-.24.09-.66.06-.95.02Z"/>
      <rect class="cls-14" x="495.81" y="374.59" width=".42" height=".42" transform="translate(-119.73 460.64) rotate(-45.01)"/>
      <path class="cls-10" d="M460.2,424.92c-.15,3.21-1.42,6.28-2.18,9.64l-1.54,6.89c-4.81,1.14-7.35,4.62-10.15,3.78l6.47-20.42,7.4.11Z"/>
      <path class="cls-10" d="M443.56,492.83c-3.62-2.36.81-7.88-1.47-12.46-1.15-2.31-2.79-4.08-5.15-3.95l8.79-28.74c2.52.02,4.32-3.46,10.12-3.55l-4.83,24.74-3.18,14.91-3.24,8.2c-.2.51-.49.92-1.03.85Z"/>
    </g>
  </g>
</svg>